<mxfile host="65bd71144e">
    <diagram id="UJlkzqp46Weycv0dEWWK" name="Page-1">
        <mxGraphModel dx="1002" dy="489" grid="1" gridSize="10" guides="1" tooltips="1" connect="1" arrows="1" fold="1" page="1" pageScale="1" pageWidth="850" pageHeight="1100" math="0" shadow="0">
            <root>
                <mxCell id="0"/>
                <mxCell id="1" parent="0"/>
                <mxCell id="4" value="" style="edgeStyle=none;html=1;" edge="1" parent="1" source="2" target="3">
                    <mxGeometry relative="1" as="geometry"/>
                </mxCell>
                <mxCell id="6" value="" style="edgeStyle=none;html=1;" edge="1" parent="1" source="2" target="5">
                    <mxGeometry relative="1" as="geometry"/>
                </mxCell>
                <mxCell id="11" value="" style="edgeStyle=none;html=1;" edge="1" parent="1" source="2" target="10">
                    <mxGeometry relative="1" as="geometry"/>
                </mxCell>
                <mxCell id="2" value="&lt;b&gt;JavaScript Execution Context&lt;/b&gt;" style="rounded=1;whiteSpace=wrap;html=1;fontSize=19;fillColor=#fad7ac;strokeColor=#b46504;" vertex="1" parent="1">
                    <mxGeometry x="270" y="150" width="200" height="60" as="geometry"/>
                </mxCell>
                <mxCell id="8" value="" style="edgeStyle=none;html=1;" edge="1" parent="1" source="3" target="7">
                    <mxGeometry relative="1" as="geometry"/>
                </mxCell>
                <mxCell id="3" value="Global Execution Context" style="whiteSpace=wrap;html=1;fontSize=14;rounded=1;fillColor=#b0e3e6;strokeColor=#0e8088;" vertex="1" parent="1">
                    <mxGeometry x="60" y="250" width="120" height="60" as="geometry"/>
                </mxCell>
                <mxCell id="5" value="Functional Execution Context" style="whiteSpace=wrap;html=1;fontSize=14;rounded=1;fillColor=#b0e3e6;strokeColor=#0e8088;" vertex="1" parent="1">
                    <mxGeometry x="520" y="250" width="120" height="60" as="geometry"/>
                </mxCell>
                <mxCell id="7" value="It will be having this keyword which represents window object in browser not in Node" style="whiteSpace=wrap;html=1;fontSize=14;rounded=1;fillColor=#b1ddf0;strokeColor=#10739e;" vertex="1" parent="1">
                    <mxGeometry x="20" y="350" width="200" height="60" as="geometry"/>
                </mxCell>
                <mxCell id="10" value="Eval Execution Context" style="whiteSpace=wrap;html=1;fontSize=14;rounded=1;fillColor=#b0e3e6;strokeColor=#0e8088;" vertex="1" parent="1">
                    <mxGeometry x="310" y="250" width="120" height="60" as="geometry"/>
                </mxCell>
                <mxCell id="15" value="" style="edgeStyle=none;html=1;" edge="1" parent="1" source="12" target="14">
                    <mxGeometry relative="1" as="geometry"/>
                </mxCell>
                <mxCell id="17" value="" style="edgeStyle=none;html=1;" edge="1" parent="1" source="12" target="16">
                    <mxGeometry relative="1" as="geometry"/>
                </mxCell>
                <mxCell id="12" value="{ codes }" style="rounded=1;whiteSpace=wrap;html=1;fontSize=22;fillColor=#bac8d3;strokeColor=#23445d;" vertex="1" parent="1">
                    <mxGeometry x="30" y="560" width="120" height="60" as="geometry"/>
                </mxCell>
                <mxCell id="14" value="Memory &lt;span style=&quot;background-color: light-dark(rgb(130, 182, 222), rgb(237, 237, 237));&quot;&gt;Creation Phase&lt;/span&gt;" style="rounded=1;whiteSpace=wrap;html=1;fontSize=14;" vertex="1" parent="1">
                    <mxGeometry x="450" y="500" width="260" height="60" as="geometry"/>
                </mxCell>
                <mxCell id="16" value="Execution Phase" style="rounded=1;whiteSpace=wrap;html=1;fontSize=14;" vertex="1" parent="1">
                    <mxGeometry x="450" y="620" width="260" height="60" as="geometry"/>
                </mxCell>
                <mxCell id="19" value="JavaScript codes executes in two phases" style="rounded=1;whiteSpace=wrap;html=1;fontSize=18;fillColor=#1ba1e2;fontColor=#ffffff;strokeColor=#006EAF;" vertex="1" parent="1">
                    <mxGeometry x="230" y="430" width="300" height="60" as="geometry"/>
                </mxCell>
                <mxCell id="20" value="Whatever the code we write in JS it is assigned to GEC first which comes under this keyword. Then it will be executing two times first for creation phase or you can say memory phase where we will be having all variables and initially assigned with undefined values but when it comes to function it will be storing function declaration and the value will be definition which holds all function declaration." style="text;html=1;align=center;verticalAlign=middle;whiteSpace=wrap;rounded=0;fillColor=#647687;fontColor=#ffffff;strokeColor=#314354;fontSize=14;" vertex="1" parent="1">
                    <mxGeometry x="30" y="720" width="720" height="90" as="geometry"/>
                </mxCell>
                <mxCell id="21" value="" style="shape=image;verticalLabelPosition=bottom;labelBackgroundColor=default;verticalAlign=top;aspect=fixed;imageAspect=0;image=data:image/png,iVBORw0KGgoAAAANSUhEUgAAAwQAAAIuCAIAAACO2VhRAAAAAXNSR0IArs4c6QAAIABJREFUeAHsvYd7FFea789/0khYtkQ2Jo2NDdhgm7HBJAmD0zhhjA22sYEZB0AkkZVzK2cJoYAEmGTw2AQTPGYM2IN299ln7p279z7zY+/Ozs7OeAfd31adrlOnTp1z6pwK3dWtl6cfnlKrurvq2xU++r5pVNeJX3ce/zLBj2PnOxUfHcfOKz7OdRxTe7QPnkvMY+CLdlePtoEvgnycbRuABygACoACSadAgBdGd9dq7VUJur+o3gf19dXutqp3c239RENI14lfj0rwRigyUKcyA51X+u7jeoC6Ih7y3PMPfZLu6sbf4KNn2+ABCoACcVAgpf468geYyOuzy+U4QpLSzVHRfVA2OBKORImDodBgUJwAyDP6tHs1fvgAkXQXtThc6OEjQAFQwLUCSXdJEW2we05yyUPUzSIueCQNRinrEiUChsKBQfFgIOqYVv/RlfcTPPS4vkTCC0EBUAAUiIMCIrjx6wqpDEk+sFHwYCRHRSmIRPGFoXhgkHNcLFgMUicedIa44h50Nno7t+NwYYrXR7QePQsPUAAUiJsCKRWS9spPymyErvnuCSlIMJJAIjUe6lC/+8dyj+KVThQXGHKlgmqEUl/fIUU6KAxyBUAJoJ94QUkcLpFxu9zDB4ECoICSAnE4/eP6ES4hKb5sFAwYjSgkChiGUhiD1AEorvSTQtzTBn4PKAAKJLMCcWWXOFz63OBRHNnIbzAaIUgUGAyFBoM6jvlXIR8/AFKPfLm6BCj9wRf2lfvPtMIDFAAF4qxAMlMadU1zCW3xYiM3ATWfwEiCh865COa4KcIPrA4/GBhSJyEXOsp9PZ5JKE4AFA/6oc785P4xzld8+DhQABSQVGCE41Fc2Cj+YCR5w3VxK3eDRAEkEvkNQ4oYpC6cQ1YQ+YW5zxBSASBXwS9F9FF0fRJPOZIXTVgNFAAFQAEXCiSat5Q9JGVCUg6rKeORK9OIvMNKLKslWStTka9I5CsMqZBQ6DBIGoACpx8V9HHDPS4uPaF8SUv/GXiAAqBAqBRInVC1Om+pEVLAeKTARupUJIFBpG0RJBL5x0P+wZA0CSliEKmpw7JLK0gCgxQBSMX4CQ59wkEwobpSw8aAAqBAkioQFsxSgaSQ4JEUGKkjUfugwx3ZxkwKVKTgEvnEQz7BUCAkJCW0SwBCX7wQg6QBSAV9BhSGRSi4Porck6RXQ9tmn27phwcoAAqESoFU8GuVwUuakBTwSNk6Oitzz3IAI1dIhO7CNvTh3cFlkSjOPOQHDMmRkLQhxFOQfj4gDJI4nhJNP9LoY6OHOF+nQnWNho0BBUCBFFAgzhcxy8cpQJIcHimw0VHF+47T+CYRFcUDiWSrz2SRyLM/5BmG/CQhGneYpOmJgQbP8Y4A3xjI97CXHPqoc08KXBZPt/TBAxQABUKjQIo4tRYAcry0yhKSBB6psZEsHjnkYvPuiR5vtczbN+tJZ6MoPjzkDYYkSMhHQ8jjd8P7yp0wSMjjKugj2zzQZ/pJHPQAqYACoAAo4K8CieQtKUhKJBs54JGIinj3R4+3XRb9MF0Pn5DIgz8ULAzJkRBTGvNJj1+G9nJObpAQg/gMpAJAsnk/EgDk+AeKcgKNvxepRLxbc98peIACoEBIFEgFp1YZtpwJyRmPJEyjVpX7juYwiVKOuFTEu1d6vwtLUFGCecgDDDnZQhIkZBIPUynvXwDvq3WDQRLHoiz6oEPfCYB8ox/AFGAmUAAUSBUFEoNcspDkwEbOYNR/Rv4+IhVW41JRUiKRc8jMrTnkFobCT0I+ukEcDJI/ZM01hQDkA/0ock9I/qCEzQAFQAFQIOEKKGOWMyF5YyM5x8i8v3BuVUKjKN5IxDQ+rE86WEQB8ZArGAqYhLwaQgFjEHnkOSwL0Qf/ieDEQE5JP3IAlPALDWwAKAAKgAJJp4AsIXkDI3w7cFiQxiOuacQ2ipIMiYLgIXUY8kpCotBYcmOQHPqgY90TAAnpJ+muNb5tcO+pZniAAqBAnBVIleib6oXIAZIc2EjkGDnwEHWjEeJR4Eg08IWXu7bVELKzgcgi8p2HFGEonCTEsYLaHRotcFLMWE4jwwGijkiJH0cWAMX5igwfBwqAAiNEgVDil4iN4gZG6DbEwiMGFbEtIlHnRl4Orva829ZE4eEhFRhyIqHOYyKOE+yzax0F341fKdKuMcgJfdBfBsIQGN8BUv0jJpD1R8iVF3YTFAAFkkiBEKBSQGCE7imyvlHqIBGXK5zNoWPnO6XzqaVhKGwkFDI3SA59sDXKZ6CgASheF7Wm3pPwAAVAAVDAdwXiFw33g6vcghG+WTgviPDIhkQMi0hUh6+eS+TWJRLYJYLKdB95SA6GkoSE3LhBrGFhMm6QIv2ccWgC5DsDxQV6fL/MwRuCAqAAKOBagThxkitIcktFp1XvNQw2ij8SuYqaJZaHJGBIgoSEATJ7VlTsGTfRMY4h5BcGMZpE25KB5A5NvvdDxo85DOQmqiVNP64vNGov7DnZBA9QABQABXxXIC6uswJXqbORBzBCdxZXdlEyIFECeUgIQ14x6Dxvx+KCQQr50QwGOnrWztccDJLjHsRAHPpp6TutDEB8+lGjFnRl8f2CxXjDz5t64AEKgAKggJICwf9ZpU5XIlRSZCPPYIRvQAxCst/F7HEPduBMPXbGTeFVd4l45OA1XiZMIeLAkBwGxckQUnODPDOQDYNYDISPP/4Cn3vQ0R9v+mHQiY9XGaWrG6wMCoACoICPCvh4KbO9lQQqxYmN0D2FjC1wl2kwoqnI5hKJxn2o1J35hUR8HuKOu5fKH8JsY0ustsEQXtVpQcBovN1QNoRYGMSPiLEwiFUnz/aBbAzU2k8fTzoVcejHCX3cAJA770cWeny8EtFv1djzOTxAAVAAFAhIgYA9ZhsP8S6qHE7yi41EphF5x3GNRJzRH4peETvJmk1Fii4RjyUE+KGARFYeImDIiX7wZwi2g7/p59RIiIVB/L5Bshhkdwhjz0glBlkxiDwWOcvK3k8ft22gKPLFO1Fjz9OkIn8d8fNCduREIzxAAVAAFHChgH9/XMlf/VhrCiGJA0ZNvSe5bKQYUGvuOyWFRzQb0X/V0y4RB4m4XhHbKGIgEZuHFMvNBFAhQBGMK84LBhLpMOQPBvmXIcQiIY4hZMMgb1YQyw2yMlD/acHh6IZ+XAAQl36cucdPvsFXKBdXt2R7ScORE/AABZJUgRHxdwi+HPm3wOIh+zWWQ0gcNvIRjBzYiEYiuiqNgUQcKvJoFLGRKHiLqEMabDRgOv7lKGdu0t9RgGD6r3wqGfMbg9hWkM0HYjEQqxje5gC5pB8OAHHtH3X6kYWeAKAkSW8YsNmgACiQRAoEQnhyICWEJD/YSN0xQncixh/qTkjUwrobapwkn1TEMIqkXSIVJHJnEckjkTMMOWFQ/A0hZzeI+UWyQVgmMcgvBmLlALEBKAj6Uecef66M3Sca4AEKgAKggEcF/HBn3SCUEyH5xUZs08gVGElQER0780pFEkiUQItIBolEMOQagzqO+ZAhxIqL+YlBUjViHjGIRT/oiGcwEBuA7K5s7Bmu9yMBPf5QzpHUo5zjDd3wAAVGlAKpdRb7AUwNEpdQDao4kKTMRqyAGhuMek8pxSIkkIiOnSUFErm2iMRIxIYhCQxKtCFkyw1iuEEsA5DFQM4RMYVDUAmAepmeKhuAeOee+G8dZ+7x+Oea5eWpfBep7z4OD1Ag6RRIdb73D+acQEp8peVdn/lsZLv4K1GRChjRVCQRO5OnIkZGEe0SyUXNVEJm7YPczBwZemFmBzFgSOK9uNvhvWTMhSEkg0HuGEi2F6IPAHTSfs7wzi7BOemAPhZwkbmIeIKbpLttwAaDAqBAyBXwg+1kLn3GOkJCElyKeVdv+3We3amfBUYeC9NoJOqz1QZpkCQXPrNlFNFIRPPQWfud3XvUzF+LiIYhJxLyCYMGzzGFsOvVRmnqaAjZ3CDmt8uYFOYiIsZhIEYIjO0ASQMQ37YV0Y8D+sQddA4fq4cHKAAKgAJKCqg7sp6BySAh5iWUj0eqbOQFjFzH0eSQiEFFjKRbKxLRPMToYU1bREwMULNURBYRtz0j4hzKHzJhyDUGKWcIsUiIhUFfiEmINoSkMMjGwi4YiFULxgYgLwzEASAu/TDPW/NJEfr48Leg0tUNVgYFQAFQwEcF1IGJuug58ZMbPOKykS3ZiEVFnzMcI3m7SCLtWo6KaKNIGYkoO2OA5qE2Vgm5rzwki0QxGHJNQqobra1v23kWCTnkSotJiOUG+YFBLCuIgUHSqdAMK9XGQFz6EeUv+4c+Pl6wUuKt6rqOwQMUSAoFwIilFVBhJpd4pOQbuaainpP2+w7bK3KiIn+QSGwR0TwkFzJTTCESZhFJ8ZAGQ8lFQiHBIPuxyAB5jYrobGgZAGrknVGm00P9pcKlH+oPIPrHeAFKUtw8YCNBAVAghArQTBPcVUtIS0I8oi7Ixo+cKznDNJICI1vOtSQV+YNEdOyMdokESJQMPDRKSEL+ZQghyvPsCQlIyOYG+WEFSUbEGFaQGwZimED+0k8wF5EQXj29bdJgXRc8QIGUVyClPM6ggImPR76wUXBUxDCKnJCI3dLaqfTMgkQCHopXCpFri0gAQ76SkA2DWIPGVEJj1gwhKwn5gUG2iJicFRQcA7nyfrzRjwekSPkbCewgKAAKJFYBNzDnlZn8YiObY+QbFdnyilxQkWrszMJD1u7VdFZ1iC0iHgyxSchNhlAQSUIECVkxyNYxyEV+tBsM8oOBGCYQG4DoUBc+P12hjyLxJPbyl/hPr+0cgAcokBQKgMGpdHFzyUn48mtd4PtGRgQNX/CtYOQPFcUJiSzp1RYkIiwif3hIcbwrYhV+7T0jO4gJQ/6RkJQh5L5qzEpCVkPIikHOXRODYCCZbGh8SsQWaADyEX2El4Z4cEZS3EJgI0EBUCAkCsSL57gmkxtCslIRvoCz8MgKRlYqYjfCtqYW2XNSGamrVjDywSiiA2cmEvF4qNXWE4cuFbdVmdkLrbRn/MyqpnnIDkM+kZAfGNRG0KWWLcQ1hPzEIDoc5pQP5JgQLZEJJAFAiq5P3LgnJBdN2AxQABQY4Qr4TU7+EZINj3wAIysVNdoqdXynIjp2po5EtEUUrywiSX+IgiE/SMgdBg2cpZSSzpUmSEjJDbJaQU4M5BQIs5pAPgCQCv3w0cel3zMCr6o1HUfhAQqMQAVG4MnuAZvYhKRmIFnZKAFgJPaKhHnWQiTyxSKSK7xXdIlkeIiEIQYJqblSshgUQFyMwCCHiJgHBqJNICsAMerhVUNgEgDkI/f4fhEcgTcS2GVQABRIoAK+X8RccZIHQvIGRo4JRrY4mrU43y8qsrhESYdEsXgZhiH/SYjVSlERgyRDY5Ik5BaDxAxEm0A0AJ2gwB+HkGMLTgDEoR81y8fjJSOBFzv4aFAAFAAFPCrg8QKoTkiu8MgBjKwJRt0nqFsPDUbWOJqVivxBIotLpM5DLhKJvLer5lhEGg8hGIoPCalUzscNg+iUIEs4TIBB1IHYQDOQUxqQkIFYAKRAP6pnvscLTeq9PNreDw9QIIUVSL1z1uMeqV4zazsHVAiJZiOHsJqViuq76bsJfbuxZl4LqMiKRLaJH4RRROdZ82NnHpGISo+xJVb7HzXj8dAo5i8UomO20JgPhhCRKN1KD9FlZwhxQ2MCN4iPQX4xkJIJZAMgWfpROo09XjJcvDyF7yiwa6AAKBA3BVxcfDy+ROnS6pqNlMCIijMoUJEro0gSiZR5yNqLKP4WERN7GDDkNwm5N4S4JCQTF5PFIL4VZE0JslhBQh9InoFsAHTM8YySPz89XggEL4/b5S/xH9TWF4UHKJAyCowYy1Nw+fL4K/krsOPF3H79F4GR1S7yhYpERhHhEjX1nrRQEccl8ohE/lhE0rX3dh6iYShYErI2GxDUi3ExqP80qTjbEFLHIFkryMJAFutSHoDqD9OWqfickTz3PJ7h1MsDpJBku69Ut/XBAxRIAQWSD+sDQzfqcufxR8lLtPg6T4GRiIoOH6NuNyIwIiJolvCZpFFEIJGFh3pPMW++5N25RSaLSNkioqNmjHZEbnnILQw5R8dUDCFRXMzaVNrwhJjfhPYkQUKWanlLUMx0gywYJGsFmRhEHZTiI9h6uIuiYDJnl8cTGL3cB+hxCzcpcHeBXQAFQAHfFXAPbZ7hyZeLqszV2zcwEtlFRMI1gUR0L0eCiqxGEZFkzUMiR4uIw0Mt1ju+1kGQ6CmoahG55iHKHLLAkKwtpEpCcTeEvGAQPxzmhoGsACSKgjmeQh5PVPfcI4E7vl8Qw/aGVa298AAFklSBsJ1Nvm+PFD+5RSWPF17HC7sQjCxhBNEf2+pUxDOKfEGi4C2iL6jsZBqJ5PwhkodMGEoACVnx0Dpbg20ItfSdZntCTENI0Q1SxiB+RZgvDOT6JHTDPU7E4/v1i3rDJL3NwGaDAqCARwWoS0EQPzrQkjonub44C9jIdyqyhs/YRpE/SJQYi8jCQzQMSXdlxDwUg6FASMgXQ4hIElLAoF7C4tOQKBYX4wXFHDHIEg4LHwOp0Q+fe3y5DHm8Mob65S09VfAABZJIgdR1NH25WIkgSYWQXLBRgqjIDyRSiZqZFpElZHaa8j7IWVtkyMyp0MxPHlKBIYfomDVJSJqEKFEsWVdGhpDPhhCRG8TBIE5EjINB3n0g1XNJln785p44kUqIbzaVLT3wAAWSQoFQg3tcKM0dMHknJNXruXcw4kbQiPAZ2ygi0okkXCLCZTCQiMzTZRoWJg/1EZ1xNDYye1XTWURECpETD1lSqt35Q8gc0mBIyhZyICFra2kBCYlCY1alpEmIkyHkkCXNwSCzYbSjGxRPBvJCP+6uCL5xjweyCfct50hlCzxAgXAqEFJk98RnPvGTu+shm5Dk3CN5NuJRkdcImjskcsytNnjIUnvPCpnxeciCRBZ/SCGr2gd/qOPYuVGJIiGKCgMyhJzjYqxqeUUM4taF8Y5syXNDCoBs3o/qqe4SehQRJ9xYg+4c4byrwVaBAnFQIKTwhK4bygjlCptUr5wMPJJgI8mLP+/eIUlFbKOIjUROgTM2EiXAIhJWmfnAQxIw5NYToiJ/JPRZScilIdTce8r0hMxcaZYhxIyLecWgBDGQB/pxwz186HHLN3G4srv9iOYjlfAABUaaAuE1ON0gmoic1CFJnpBU2SgOVOQRiZhRM5yAqy8YSGRYRB5CZnyLSBAyGyCTc7zykBMMxZOEHONiRBshE4MsudKiRGkzLqaOQdaIGBuDeCwvedBzfSBX9KPMPS6hRx07wnqnqWg+Ag9QYAQqEN4/ANxQGpeffIQkGUKSZyPJGwTv/sKfkmaW5TOoSNolMpHIhUXECpk1953iR83MLCLSPaGMFYtF5B8PCWHIFxKSTBJyJCGH4nmRISSLQaz8aAKDGAzEO0Alj29JAHI892TRh0M8Qo+HgzvqTOPmNtPUXQEPUAAUSBkF1P/kcMNqXIpSRyU5M8nxEk2zESegJnnj4N13OEG0GBUxkIhoZk2kVzMCZ7JI5INFZPKQIKs6CB7iw5DfJMQNjTliENMQMuNirMp5Iy5mYtAR4gs2hgCbuUGKGMQ7FmUOZe8A5Iw+ytCjRjzKWJMyl/Km7vKmw/AABZJCgZT6Q0KRorgIpchJXD/JCZLEeGRhIw9gxLsTsagoECQiomZGyKznJI7bmFGzACwi33lIFoaobo9tpDdF1I5Z7CzCEwqMhGxxMQODGomKQWK0b6xm3l8M8ouBeOePKv3wnR4W9HA8Hi7xBEw2Ib3NNB4uhwcokKQKhJLgA2c1Dj8pchLbTKIhyS0bBUpFAiSq6zrGMIqM2BnDJSLup3aXiIFEdosoPDzEaU7NgSGrLZQwEjJCY5g0tQXTE+KSkGkImelBzhhERMQYczPsDO7IQDImkEsAsno/LPqxcQ8LeoIjHjdME747TVljFzxAgZRRIIxArw5qPlCUEicxzCSakJTYiHfN9wWM7PepIJBIiofcWUSW3oxmyIyXQsT3h4T9h1g8xIKh+JIQs02T9qSdhJIEg1wzkMgBcqAfZ/RhcI+ixyPLN+pME7qbTUNXGTxAgRRWIGSU74bS5ChKmZxsnMRwkpzwSJ6NnMHIVRBNDokG8d//7lwiKSRyYRH5xkPC+jIbD9lgKA4k5JgkZGCQuHje7CFkhMY8G0KWFGn78SS2ghwZiHfccxmIACCb92OlH5vr4xp9uMQjgTgumSaFbzmwa6AAKCCpgCs+k6IoDjbJcpINjyps11tb/1WLdWRhI05AjXd3cLSLxHcl+11MYBTRSCQRNXPJQ72nmCYIp8rMiz+kwEMiGAokOiZNQoLQWNAYVNc1SB1D4gOOjUFGSTzvKGczkFsAoulHwvVhcw8HeqRAR/KqF8xqpQ2d8AAFQIE4K5BgD1UCobjAxIIkKUKy4hFtHdG+kRoY8e4XJhWxvCLxHYq6nSnwkLjczEgk4iORkdZi+ENue1UHw0NWc8gKQyJbiOhu5Dpj2gUJeQiNCbKksT1oPyyo40ZwkLlgIDYAtfaSfzoQJpDI/lGlHxp9WNDDJZ4A8MXrJbu+sxQeoAAoEEIFvP1ZEghdcZiJzUk2SHIgJFdsRF7zefcFJhi5piLq1ma/9+HbIm0RMZDIqM525qHPzTRfA4lwDkz8/SF6eBnBQ1wYstpCwZOQx9CYdKI0/r7thwJ1rKhhkOEDRdv67Ecw+1jnmkAEAxF+rBL9OKIPg3tcEY8bpnF/+e4orYcHKAAKJJECbv9oUScqlxRl4yQGIVnxyD0bWUwj0zFyBCP7PaWauOPY/ywX3Lyo25z9PohvkTQSOUXN+P6QkIdYIbNA42UWHmLDEGELhZqEnDKEXBhC1PEhOJLshx3mdPvx6pKBeAAkjHyJ6cc1+ohYxw3TKF/ES+o64AEKgAIpoICrv2TUWYpPUQq0ZCUkGo/cspEloGaCkScqwjcg+71JcCOjbnk8JKJ5SN0ikqq6V+Ahc2qHen2ZmT/E5CHCGXINQ479hMTRMcMTEiQJNeFG4FwScqicx7RLfevUMVHbOcA7gOhDzQBzOwNVt/UxMMjwgYgoWI8l7Y7JQHwAUqMfoevDJR4R7qhhTbJfyovr2uEBCiSpAsl+9qlTFB+hOKjkwEl+sRERUDPByKSiI+TdwbSLbDnXzJsOj4p4dzT7vY+6OeKbJo1EPIuIEzIT8JA4hchvf0gShsJDQmaSUKy1NDddmhcas7WTNr5US7GYfJa0PAZ5YSBLFIzDQBYAsib90N6PEv2woYeLO0FfW8Nyy6ltL4YHKJBiCoQD64O+hgj5iYVKVkjyi424AbXAqMgjEtl4KFZ+T/OQYRHx2jPyQ2ZGSrVcFyIODzn4Q/zmQyIeMpwhNgw5pQr57gmZJOTUUNFKQrzQmIFBdBNFCop57Ow3BhnJQComkCwAydMPjT4M6PHlUuWSaTzde9qKa+EBCoACcVPAwx8MrrDMl0sTB5WskETgkTwbCQJqjmBkekXNxp1CM41iQTQlo8hvJOKM8qAtIk5WtRHYEVhEgpRqDg851Jc58pA9UqbDEJuEvjBnbjiVj7GnbahGx5xIyNZGSDI0ZjGEKAzixcUkMUjOCjKObGkG4gGQvP1jiXwJ6Ufp4qLAN26YxuUVvKimDR6gACiQQAU8/BGijlPSFKV0cbMRkis2EgTUiEwjNhgZdpFfVBQEEtEWEc1Dx2PDr6iQWdx46OhZPBOMw0Ncc2iUhY8GzPVMEho4i98Uf4y2YNhCoSAha2jMiyFEY1B7PzqkqDCtOwwyY2GsQBiTgSQByEI/DdbT2FqBJb5AiHBHlm+UmcbtRby1qAYeoAAoECoF3Pxl4oql5CiKT07iK6GIjQjTqLShk+sbSYCRLBWZeUXKRpESElFmgS1qJrKI6JBZqHiInKZKcA7JPxYYYheRMW2hZCMh6jtWiotJYhD2M820aMMKkmUgIg3IwkCcEJgFgPj2j+CcZ6APl3icEccV04TqOg4bAwqAAglUQBmk5CiKg002ThJcKq1sZP1rk2AjLhg1mFMOLaE0wy7ynYqo21YMiawNG3n3Qep2yUQipkWUJDxkmj4yMGRkCwlJqLXfjNu14HkicY6OsT0hUWiMeQTQhhCrWIx2gxgFYnRETIBBpg/EZKBgAIimHxp9uMQjATrxuIYWRlvhAQqAAsmiQFy8WweEEgKTlZOseMRjIysYdVi6v8qAkeEYyVKRPXwmbRS5RqJk5CEcrdIWjHgZjmtpC6Y/FOMhNgwRthDxGgOG8FuTn0cEyE7bYYjRXNJeRW/NE5IsHGOmS8uExjAG5e4rWrrihSlTp6WlpUfgHygACoACoAAoMIIVSEtLnzJ12tIVL+TuK8I3ShKJmP5QXdcxi0VEpxBZUqqdS8wkWlSL86lJPsHQYvKQCUPmTHvMQ7EwGUFCjLxp/KbaAiNA5pGE2IVjDunSHgyhpSteGMHHPOw6KAAKgAKgACjAVWDpiheYPFTbOcBEIgsP8aruJVOIlHgIx6O0hVicCiMKyS0sHqKDZXYYMmwhwxNqM+ym5CUh/L3WdBx9fP7T3EMAfgEKgAKgACgACox4BR6f/zR533S0iELOQyYM8YNlGgzJ2kKGJyROFVKJjlk9Iaq7tEQnIWZojPzaqMp58IRG/DkOAoACoAAoAAo4K0D6QzUdR6kbq9UiYlWZqYTM6BZELv0hmznETB7iBMtGyZKQOEBmJE0HS0KKoTESbGs6jubuK3L+/mENUAAUAAVAAVAAFIhEyPwhdD8lkcjKQ5xe1ToSGVVmohSioHiICG2Z/pDJQ6YZRMKQESBjNhYybCEcmfOWMS3jCVl7KnojoZqOo2ALwdkNCoACoAAoAApIKkCZQ37wkKUrI5VSHTQPmTDECpaxYMjIFjLzjxhLmZ2pAAAgAElEQVQkdIaCIb89IS4JqYbG0PcXbe+f8tA0ySMAVgMFQAFQABQABUa4AlMemhZt76diLK5DZoY/FAwPySVTmzxkM4cwDBm2kJ2E3AXIJKvo9TwhZuGYfP08adxRSUKYhKLt/VBFP8JPbNh9UAAUAAVAAXkF0tLSUQc+RR5ihcyYKUSsEjPDHzJGujrlD5nF9iYP2ZKHJIJlEjDEsIWMWnqnVKEmYzeamP2E2BnTmickJCFuQ0X7F1bTcRR3U5Q/AmBNUAAUAAVAAVAAFMA3UEeLyGUKkc5DnHhZIDzEM4cQDPFtIQ8k1Nx7KgZD7kjIc5IQ+S1G2/rgsAYFQAFQABQABUABeQW0OR7EEA+740BGZuLHQ32nqMwcJX+IyUOjiAbVrIGsLmCICpAxSajnc0SCsQBZrIqe8IScSIj8AgShsdi3qM/WkP/6YU1QABQABUABUAAUsA81E/OQrTGjVnUv7EKkl5iR/hA94t7iDzUbgOE3DJ0lYMieLeSdhHqN3ehhlI/JkJDrdGkTZnUSqgZnCE5rUAAUAAVAAVBARYFqY0yneUtlpVRTWdVWi4jbhchIqWbzkJE89HkszcbIugmIh5xhSKGW3kA2W6pQUCRkR1QySUj78tr68KQ6lQMA1gUFQAFQABQABUa6AvgG6hgvE/IQN6U6UTxkj5QZMOSfLeQ3CblMl6ZICJyhkX5Ow/6DAqAAKAAKKCqAYchuETHNCDKDxeoPBcND1uQhL5lDOgz5R0IOSdNkqpAwT8iIjimQEGnioTAn+S1WtfYqHgOwOigACoACoAAoMKIVqGrtJe+kqilEvvKQkXWjx8t8D5YpwhCvlp4KkHlLmraTEAmbkunS5PdX1doLMDSiT2jYeVAAFAAFQAF1BdDdk7yfqvKQQ0q1fV5HYMnU9oH2ZLBsFP5B2G/aqbGQDkPMAFmjkRkuWT4WEAkBDKmfBfAKUAAUAAVAgRGtAIIhColkeEiYQmQtMXPBQ1QytR/BMi4MqeZNM0moSZGE6g+jtHMzOkZ6QswIpSA6Rn6LVS09I/qIhp0HBUABUAAUAAUUFahq6SHvpNgi8s5Dlnp7CR5yKC5T5SGjJzX2g2IwxLeFpDwhW6qQx/KxGAyJSUiAQdVtfeb319JT1dJTCTCkeA7A6qAAKAAKgAIjXIFK/QZKIhHmIXtKtWKXamv/Ibc8pJo8xAuWaTDEJyHZaawxW4iZKsSYPsZurkgFyPwlIYChEX5Kw+6DAqAAKAAKqCpQqVsJGgwRFpFPPGQNlh0+hsZwmcX20pPLpHmIO7Os7ejZUSYJGQNZXQbI+CTUaOxSA1VBRrSZDpiEjlS2HFE9CGB9UAAUAAVAAVBgJCtQ2aLdPQPzhxg8ZMJQ9wnUmVlmclmMh6zBsua+U7Fie94MV8IMImCI7jctFSBjpgrFkqYd57AaMOQXCZmhsdZeRLI61erfZTPA0Eg+o2HfQQFQABQABZQVqGxGMMTgIUbVvZspZp55yFUytT1YZsAQTUJGgEytll5LFfKxfMyeMW3mCRlDNrBfR5EQMvdiVNt8pAJgSPksgBeAAqAAKAAKjGgFKpqPkDwUs4j0bjXonotvwfYUIvsdHGe/WPsPWXlIInmo0RjwRU7q8Bgss8AQL0BGTUTTfiRr6WMBMjdJ05QnVNc1iMWy6+iGhPQvsgJgaESfzrDzoAAoAAqAAm4UQHdPjYdiFpFWjUTmDzH8IWLQvf0+jm/xHnmIWVzmJVimwxBtC/kTILPPYW3QiY8sqNNhiFFIb1dQioSMwrFYdAyTUFN3RVO3mwMBXgMKgAKgACgACoxUBSr0u2fMH6J4SC6l2n435/EQyQZ0MjWVP6THoAwe0jtTew6WjcKRM9oWch0gY5SPnUApUWj38A5TthAWyK6ddxICGBqp5zLsNygACoACoIBLBWIw1NQdPA9JBcsajFxklJBj5yHXwbIYDNEk1H8a5WDTATL22A0fUoUwCdmnbfBIiEoSQs2EcJJQpR4aw19kedNhl8cCvAwUAAVAAVAAFBiRCpQ3Hca3USsPOaRUU10ZKY+DvOMT8TIpHooVlxkJyso8xKkso2AoqAAZ5QkJOk1TkvlFQgBDI/JEhp0GBUABUAAUcK9AedNhMQ8JUojc8RCOHWkLEsnUdhhq6j3JTB7izbRH8TENhmhbyJcAGdVSqPs4uYeSqUKSJGQvHNNyvlCks6lb+y4btYf7wwFeCQqAAqAAKAAKjDwF0N2T4iH5EjNJHiLMocG6Ltedqc3kIRfBslE0CakFyE4iKCMbC9nzpilbSDJVyF8SKmvsGnmHMewxKAAKgAKgACjgXoGyxq6485AgWHY81rrZNtne7g858JAtWGaDIaEt5Nhi0X8Sau+PtvXhTgZUnpCkJ1TW2FXWADDk/nyAV4ICoAAoAAqMQAXKGrr84SF+P0acP0T4QwIeOqHxkAQMSQfLYsExDEOWbCFm3rR3EpJMFTI9If9ICGBoBJ7GsMugACgACoACXhTQYChgHmLBkD/BMiUeQjDkTEK2ufScAJlzqtAxTH9YAkHSNPaEqEH0pieEmwmx8oSQJ4S+Ti8HBLwWFAAFQAFQABQYaQrEYMiRh6gWREaLavIOruUPGf4QddPHMIDxAKXTkKnGzGRqsrLMEinrOYnsG/lgGQFDYQuQWQdumAEyfYgu3VbRiYRKGzpH2kEM+wsKgAKgACgACnhRoLSh0y8eUk+mjmuwbFQLTiPSYYgZILPZQsTkDbLForMtFGs2jTGQ6iqEsRGphqGSTUItWoNw1CzcXjtGekKlDZ2l9QBDXs4IeC0oAAqAAqDAiFOgtL4ziXjIMIc+J2eWOQTLDAQyYEjGForNIOMEyI7oaU3dx2MzNxi19A4BMhkSojorypMQwNCIO4lhh0EBUAAUAAW8KaDBkBIPtaAp9/r8Mta8DoE/hF0ShWCZOJOaCpb1nSLtHqrtkAWGyPW0ZXIaa69ewa/xENFvWmALHTZbBbiopWd6Ql5IqLS+w9shAa8GBUABUAAUAAVGlgKl9R2B8JC35CE04Eu+zF7GHJKGIfFoen6AjCIh3lx6B1vInMCqU6dKdEz/IjtK6gCGRtY5DHsLCoACoAAo4FGBkroO33lI0RzSKsssnRhZbalZmdSWYBkzkzpmDumRMh2GmDEyV7YQ1V/RqKX3IUDGKB+z9Zim84T0VKHSeo2EAIY8nhLwclAAFAAFQIGRpgC6e8Z4qEEqf6hSL/HW54T2UMM6cMxHkYesMGQZ0yHRdogfLCMjZSYMiWJkhC0Uazbd8zkCMa33kbQthCOCVFkdaQthsdhJ07iQniQhfeCGRkJ6c8Wyhi4tY9pKQgBDI+0chv0FBUABUAAU8KgAgiHTH2LykGh+mZCHXAfLWOZQbKC94wBXZuZQ/+lRmIwsMETaQm7zpl0EyJgkZKYKeSCh4rp2j8eEjy9f/dCUxnlzv12y8O6q7Hsvr7z38sq7q7K/XbKwcd7c1Q9N8fGDlN5q9dL7Gj/N/DY67m7/hHtnJt47M/Fu/4Rvo+MaP81cvfQ+pbfyceUx2eMydkzLbJmVdWbu2Evzxl6al3VmbmbLrIwd08Zkj/Pxg+CtQAFQABQABSgFiuvaRTykexDavA5feQj7JkQmtVOwzG0mNUagGAxZSIhKnbbbQv7lTZOeEGPshjBVCKlf3niY9IRitpCWAB+LjpXUdRTXtRfXJh6Gxo9JL57z2N1V2f/vlVWCx91V2cVzHhs/Jp06KAP6cXzm6OIPHrjbP+H/nZ0oeNztn1D8wQPjM0cHtBnU247OSsvYPEUDoG/mCR5ZZ+ZmbJ4yOiuNejn8CAqAAqAAKOBdgeLadiYPkc2HYvM6SB7S83q1eBmruAy7Ht6DZaqZ1LHMIZY5xIKhAGwhDHquAmSipGkeCWEYQiSUcBjaOHO6IwaRhHR3VfbGmdO9H8rid9j4YoYjBpGEdLd/wsYXM8Tv6f23Y16d4IhBJCFlnZk75tUJ3j8X3gEUAAVAAVCAVECDIYKH9OQhvb7M2owR8xDu+Yca39A8ZOtMTfIQhQcYGwh/yJo8RAXLvJlDGgwFZgvFWizKVJBhVFRIFWo8HLOF0PAUlCqEmiIYtpBGQrotVFzbRn7BcV5unDeXBB355cZ5c4Pb1MZPM0nQkV9u/DQzuK3K2DGNBB355Ywd04LbKnhnUAAUAAVGoALFtW0IhrA/xOMhp+H2yslDLBhizCzzyxyywVC8bCFmgIwkIYdUIUUSKqpJGAz1LZgvTz/2NfsWzA/iDOzLy5KnH/uafXlZQWzV/YdmyNOPfc37D80IYqvgPUEBUAAUGJkKFNW0cXhIthkjWVxWpae+4Bs9MkFIcyja3k/6QyweCsockoEhhy6LVDk9lTeNd0YweYO2hZipQszyMb4nhFOFimvbimq0R0IOZdeeEElFvvtDrj0hkop894dce0IkFYE/lJDjHD4UFAAFUlIBdPfEPEQnU8s1p6aDZUZnanzr13iIVVlG8oNEsEyizL5XG+Bqzxxq6Ts9yluMjDF8gwdDJO7h3WYkTbf2Gp5Qj5Z7Ze2vyEyaZhbS4+iYAUOt8T9SN86cTjKNl2Uf84c2vphBMo2XZR/zh8a8OoFkGi/LkD8U/0MdPhEUAAVSUoGimlbDHIrFy2geciy2tyRTBxAsU8oc4sBQc98pKwwxYmT+2EIkCdV0HI3BEDGXHvtmyEajh9KTtpC1fExIQu2YhIpq4g1D48ekK2VMi1Hp7qpsX+rLxmeOVsqYFqPS3f4JvtSXjc5KU8qYFqNS1pm5UF+Wktdl2ClQABSIswI6DGEesiRTs5sPEcX2ZDK1UrCMAgbsDwVqDnmBIZ4t5EveNFFBZiUhTtK01jIcESuZNK1bfK1FNa2F0XjDUPGcx8R8o/rb4jmPeT8Nij94QMw3qr8t/uAB71uVsXmKmG9Uf5uxOWHtmryrAe8ACoACoEBIFCiMajdQwh/Sa5KM5kNKydR0sIxZWaYSLKvHI1D9MIcIGFK3hWID6o0NkgmQOdpC5NgNcii9FiDjJk07kFBCYMhHWwhh091V2d5PDx9tIYRNd/t9qGn30RZC2JR1JsAqPO/fArwDKAAKgAJJoUBhVLMSfOAhiWAZmUkdf3NIHYYchm/EbCHsa7nMm7Y2m7akCikkTce+Qv3rbInnkbf6oSmqxo/M+h77U69eep+q8SOzvsf+1GOyx6kaPzLrQ3/qeB7w8FmgACiQkgoURlsIGCLiZYY5ZAbLmMnU1k6MvGCZYyZ1TcdRDBVksIxrDnWf0GaF6Q2i0Qyxph4t56cJNZFmZQ4JYMghW8iFLSSXN80NkJH9FYWpQlopIBkg07/OuMKQL0VkdjzyWFbmSxGZHY88lpX5UkRmxyMoK0vJSzPsFCgACsRTAXT3JHgIVdpzkqlJHhIkD5FtqdWDZSQMUdPslXoOUTVlBgxJxsgUbSHK6bLDEJk3TQfI+KlCQhKyJE0jT6gw2lJQ3RzPA+jbJQvtKOP9mW+XLPSyF99Gx9lRxvsz30Y9zQjLbJllRxnvz2S2zPKiFbwWFAAFQAFQoKC6mcNDUsnUzE6MRvIQu7JMNVgmNofQRHkZc0gEQ7EB9RKTyGSyhewkVN3WF4MhsrGQQoDMmiqEuoazPKH4w5DvCUMIpDymDfmeMIRAymPakO8JQwikIG0IruOgACgACnhUgIAhMl5mdGKUmNRBj3HVb/GYh8g2jI7BMmakTN0cOqkFy2yRMhsMCcay+mILccrpY7X0uLGQ1RbSAmR0qpCVhIyZG9boWCtC2oLq5jg7Q/deXundB7K/w72XV3o5su+dEY1idW0R3Tsz0ctWabPohdNYXf720jwvWwWvBQVAAVAAFEB3T2wO2eJlFn9IVFzWdJiutOcHy+JmDpGRMh2GBDGyuNhCdICs+QhSzV5BpgXI+NPHMAmh8jGShPKr4homAxiSv4gADMlrBWuCAqAAKBBPBfKrNCuB8IdwZZklmdo6ucw6qcOePMSvLAvaHBKkUTNhSJA67dBbCLtY7GwhsS2kEiDDTTBxp2mdhNpQBSCZKlRQ3Zxf1Zxf1RTPAwjCZPJqQ5hMXitYExQABUCBeCqQX9XE5yGtUIk7qcM61t45WGbNpPbNHMI1ZUdO0JlD1kjZqJhN1HtKC6GxYmSoPq2BipGp9BYSZwvRtpBqgExLFWKXjyGeTQgMQQK1/OkKCdTyWsGaoAAoAArEUwEShlj+kLC4jMVDrGCZJZM6QHOo5/PGWIG9WWOPESgGQyiZCMMQJ3XajS1EkhCeRGYrImPNILO2WGQHyNhJ05ZUIWQLxdkZgtJ6+dMVSuvltYI1QQFQABSIpwI6DNnNIZlkajpYRleWWYNlWiY13xySmWbPLStjm0N0GrUdhlgxsmBtIWFjIVvetGDmBjNVCH2Xhyob43kAQdNFebWh6aK8VrAmKAAKgALxVOBQZSOHh2Q6U3eWyppDRyr1onLEQ/Ezh4hIGQFDVIyMlTpdr08AwfxFVtQzs4VEtpC1nN4+eYNusajlTcemj5XUdVhThSydplEhPY6O5Vc1HapsjDMMRSIR39OGPNbVo/PH9+p6j3X1aKt8TxuCuvp4Xi7hs0ABUCBVFUB3Tx4PGWM6LMnUOKNXLy4jeMieSd3UXYEq7bXKsh57mT2ZOeRkDh2jauzru7VYVizDx2oOUWnUKFKmwZBDjIxjC9Uf1j4b94J0hCHMeri3ELOc3j55gx8gE6UK6dExLW86UTAEg1rlrw4wqFVeK1gTFAAFQIG4KUDBkCCZGiXvFtOdh1jBMvuMDluZPQYGjYeE01sxhFhg6PAxA4ZMHrI1YLREyigYssTIqNRpL7YQ3jFMQlUtWs5UpUpjIUGADJeP8WyhQxUNcTt60AeNH5Puozl0d1X2+DHp3ndhfOZoH82hu/0TxmeO9r5Vo7PSfDSHss7MHZ2V5n2r4B1AAVAAFBjhChyqaKB4yFppL5c8JBssY5hD1XoRuhwPyZlDVBq1ESkbFbOFYqVkBgzRMTKvqdN2GMIkVKlnUTk1FhIFyHQSYidNo2/xUEXDwbjDUCQS2Thzur1xortnNs6c7tc5ufHFDNf9FakXbnwxw6+tGvPqBJfNFW0NG8e8OsGvrYL3AQVAAVBgJCtwsKLBiYfYyUOCYJk9k5oe4KpnUmNsIINlZNceHI9im0N6Vo85rUwYKWvqPWnAkJEwRNeRcWJkZLZQXdcg2iZyKzHH4Qoy3vANLVuIU05vn0FmTRUSdRXC0TFEQgmBoUgk4ktZmcf5rPYz2ZeJrR7ns9q3ypeyMpjPahcWngEFQAFQwJ0CB3UrwZGHBMlDOHPITKZu7EJth/CtX5w55MUcMmFIn2MviJRxYYiIkcXVFhLkTWskxB670WKNjllShRILQ5FIpG/BfHduEHpV34L57g5i8av68rIom0fpx768LPH7u/vt/YdmePGH7j80w93nwqtAAVAAFAAF7ApwYMhebI87UxttGO3JQzhYZs+ktg8ss5tDLjKHeOaQGSkz04Z0GDJsoSZ9DYRODBgSNloMxBayT97QWyzisRsyqULouzxQXm//muP2jGt/yHdPiNxl1/6Q754QuVWu/SHwhEgZYRkUAAVAAe8KHCiv5/AQNaaDlTxU146CZTFzqN5SWeavOURGyiyZ1LGaMj2NWhgpE8KQESPznjqNmymRedP2bCHmQFYzb9okIbUA2YHy+sTCEMofUsqnvrsq28c8Id4psfHFDKV86rv9E3zME+Jt1ZhXJyjlU2edmQt5Qjwx4XlQABQABVwrgO6ecjyEzSFGpT0OluGZ62VUsIxjDlW19qLkIenMIYc0al6kzAJDOGGIYQt1H7e2FxpEIIYzmLAzJMoWau0lYQhnC/HL6a2j6U0Y0kTHthBKbsedpu3ZQmGAoUgkMn5MevGcxxyR6O6q7OI5j/lSOyZzAozPHF38wQOOSHS3f0LxBw/4Ujsms1Wjs9IyNk9xRKKsM3MzNk+B2jEZSWEdUAAUAAVUFaBhyKG4DPOQESyzmEMd2px1IliGzKFyPNBe2HOIlzmEIYQ0hzCuICvHzBzC5pAtUjYKj+CIxch6Pm/U19Z4SHOGjIQhn2Jk3N5CjYelbaGY3DwYIivIDlY0oO/yQFmd6kEQ3PqrH5rSOG/ut0sW3l2Vfe/llfdeXnl3Vfa3SxY2zpu7+qEpwX2u+J1XL72v8dPMb6Pj7vZPuHdm4r0zE+/2T/g2Oq7x08zVS+8Tvza4347JHpexY1pmyywNjC7NG3tpXtaZuZktszJ2TBuTPS64z4V3BgVAAVAAFDhQVkfzkN7E2EUbRllzyG3PIRKGnCNlJgzF5pTZYAgX1YtiZFxbqKbjaMwZchpQj22hiqZuzRkiYMjosujGFuKR0P4wwRCcYKAAKAAKgAKgQPgV2F9W55aHaHOopE67pzPNIW5ZGX9aGQ5G1XQclTaHdItHhxwtWGYd2mrCUOAxsliXRbrRIkVCZQ1dGIZY2UKWAJm1iMxsNo0ryLAtBDAU/rMOthAUAAVAAVAgVAqow5BEJjWOlDV0sTOH9OkcLqaVkeaQGSmjulFzImUIhoxeiwHEyJip0+xJZPpMVoqEmGPIVANk+8vq9pfVhuoIg40BBUABUAAUAAVCrsD+slp1HuJmDgVtDpEwpBops8KQfzEy3DtSPH/DtIUau1CSOQVDco2FNE+IlzeNSGh/KcBQyE862DxQABQABUCBcCmwv7SW5CFOWZlE2yFLJrUljVpgDtlHt5Jp1P5GyvyEIVEdGZ5EZh1GZsKQ1RbCA+rlYUiQLaR9lwBD4TrFYGtAAVAAFAAFwq4ABUPSbYc8mENmTZkxyl6iAaP3tKFRaJa9KGFItY5MOnVaIyFO6rRjthBVTo9JCGULkalCiIT2AQyF/aSD7QMFQAFQABQIlwL7SjUrgTSHEA9pAzo8ldlbzCH2tDI9c0gzh1TSqF1HylRhSKqOzB4j0yvqHVKnjQBZZxC2EMBQuM4w2BpQABQABUCB0CvAgyGZAa7GwDK6rEyvKROWlZnmUI84jVopUmZ2G8JzyogCewKGvCUM2WNkmOboRovGZFbfbSE8eUNzhrSkaS1ven9p7b7S2n0lNaE/6mADQQFQABQABUCBECmwr6QmMB6ymUO4+2JTNz261W4O2UaVeYyUaTCEY2Sxdoteei3aY2QtPTQM6TPqGSTU0Kl1IKjvcB0jY8CQQUIAQyE6vWBTQAFQABQABZJBAQ2GTB7yredQrOEQqyF1rOcQYQ7Z06jFozncRcosMMSYwsFKGML8RTpUuNciJ0Z2pFIuddpPEiJsIYChZDjvYBtBAVAAFAAFQqSAFYb8LLN3aMBowpBDGjXJIRhOSB4yGw4xh7YakTIbDLlqPK0QIyNsIWbXaV9giAqQ7Sup2VsSDdHxBZsCCoACoAAoAAqEXoG9JVEeD3HK7Klp9tyyMhqGGrqU06h9jZSNYsXItJFk2ngzli1U1zWI4QsTGbaFom19yBnC7YVUUqd9DZARttDekujeYoCh0J92sIGgACgACoACYVJgb3E0xkOcsjLPmdT8zCHTHGKkUTMjZRhOSGeI1X2RnsvR2PO5CUPBxsj0vcLzyBgJQ35lC9nyppEtBDAUpvMLtgUUAAVAAVAgCRQwYcjMHDKDZT6bQ426OYTTqBEMNes5NnryMa7KQp6LxkO6OYR9GdacsmMsGDquzaG3zuVgwxCaem91hrhF9e5iZHhGvVFRT9hCde3Fte3FtW1FNW2oNq8w2qI0hixWRKZnfiFbaA84Q0lw3sEmggKgACgACoRIgT3FWlwFB8uYPYfkzaHiWr3Mvq69mN+QWguWUTyEGw4ZPYcoGIq292MeYppDGGYQ2+g19kwYEhbV13VpYIVNJ/xJ+LOdYmTxSJ1mdllEkc4YDBVVh+j4gk0BBUABUAAUAAVCr8CeomqNh/iZQ2ZP6srGQ5WNaDRWfpXbzCGmOaTBECON2k2kTE8BisEQ7jakT7DXnSEmDLEShuwkVNNxFMMQt46s+Yj8ZFbe/A1ey2lGOT3KFrLaQnsAhkJ/1sEGggKgACgACoRKgRgMETzkyhySTqO2wRCz4RCGDQ+RMjptKAZDTglD3BiZHYZwVE+2vVDw2ULa1wkwFKozDDYGFAAFQAFQIPQKoLsnGSmz92CMR+aQ1Rmqau2lImU4VMVKGxqUSRsa1YhtoSM6KKE6MrqUjAtD3ISh2GRWyREcRMIQnS3Uak0Y4k6nt7ecxtlCAEOhP+NgA0EBUAAUAAVCpwC6e1oyh6TLylA8B93BC6PuzaFKI4faPpoDO0Ne04aOnCBgiNVhiJkwRCJYYDEyTbjCKEVCzSgeiceykjEyZm+hvcXRPcXRPUXVeUVVoTvKYINAAVAAFAAFQIEQK5BXVKXxkDWN2qM5xEqj5hfYc0ZzuI+UcdKGKBg6zuowxLWFEhkjq2ggScjRFgIYCvHpBpsGCoACoAAoEEYFYjBE8ZCTORRYGrU23Qun4vgVKUPxMQ2G/E8YCiBGll8lsoViMERMIiNjZHlFVXmF4AyF8UyDbQIFQAFQABQIrQJ5hVVCc0hpWlmIImXmBHuj2xANQ2SHIfkYGafx9JFK6ToyXhGZuL2QqKLeCJChGBnAUGhPNtgwUAAUAAVAgXAqYMKQYQ7xpnOgGvtDFQ0oj0XJHKJHc6jUlDEL7HEaNe4KhHgm1nCIjJTRMEQmDPleVI/nkTUdFvVadEid1pwhZraQJUZmq6hHtlBeYWU4DzXYKlAAFAAFQAFQIJwK5BVWmjxkzxwqM7tRmw2HrDzkexo1jpS5Txs6fKw+NrTVLLAfFUSMzKeiermu05z5GyhvGttCAEPhPNNgq0ABUAAUAAVCq4AFhpwaMKrU2OutqGvdtKIW1JSR1V24LSJpDpGtqKlImXsYciqq12JksTAZdoYa2c6QWoxMNSQiBqYAACAASURBVHW6sCqvsHJ3AThDoT3dYMNAAVAAFAAFwqjA7oJKxEMuauz9jZQhouC2olafYC+CoUAShnQSqmjqJoezMuaR8WNkEqnTtfuFqdMAQ2E8yWCbQAFQABQABcKtAIYhXFbGbMB4oKwOpfAKzCG1hkNG2hB3TllrL269WN3WhxsOCc0hYmirLW1Id4b8SBjC1W7eY2Qy7YVEqdMlsd5CRoxMs4XAGQr3GQdbBwqAAqAAKBA6BdDdUzOHUMMhP9Oo3UfKcNoQ5iFlGLKlDYlhSL3DkLuier4tVFDdjJwhcer0vtJay1hWo9Gilvmlx8h2FVSE7iiDDQIFQAFQABQABUKswK6CCtoccpNG7TC3taROm0LhWFNmtKLmDG3VI2VCZ0g0lwPDkHO7RfIzZBKGtOGsrBhZWUOXHiZzGMHhPJmVkzqtdZ3Wh5GhOjIEtgBDIT7dYNNAAVAAFAAFwqgAgiGdh4yGQz6kUQsbDjV0ljV0aQ8jUoZBQjC0FTtD5FwOZoE9L4d6VAMZIzNGkpEdhnBKNgOG2vpwbVssTBZzhjip043aHooThkQxMrep07sLKnflgzMUxjMNtgkUAAVAAVAgtArsyq8gzSFGGnVJjXiOvTCN2odIGYYQzEMkq2CAMWrKOGlD3SesMGTpMOQmRuY2YaitqKatqIY5j0w8mVUqdXpXQQXAUGhPNtgwUAAUAAVAgXAqQMGQsBu13nOovN5Nw6G6dsVIWY+vBfZatyEEQ/7HyByL6tGe84rqBTEyUeo03XU6ljqtw1B5OA812CpQABQABUABUCCcCuzKL9+Vr6UNxTKHfEujFkTK+ENb9X49RuaQOaeMGlLmLlIWFAzhhCFUUV9Odhiq7yytZycMuYiRyaROa2ybDzAUznMNtgoUAAVAAVAgpAogGCIjZVxzyLkbNTONmh0pw2lDdOYQ4qEWUQ61bzAknzDkMJLMqddiSV0Hcob4MTLuCI79WvY0K0bGSp3elV+x8xDAUEhPNtgsUAAUAAVAgXAqsPNQucZDek2Z9zRq/mgON62ocYG9L2lDMWeI124RJx+RGUmxUjIje9pThyF+Ub2o16KtjoycUU+1F0K2EMBQOM802CpQABQABUCB0CoQgyF+pGxvSVTra1OqeROaQ1FmmWPPnNvK676omjakwVBLDyIQKlJGEgvGGHEONQ+GuNnTzkX1LZxSMr1YjiwlU0oYQn0tqYQhZoxMgyGivZABQ2WhPdpgw0ABUAAUAAVAgRAqsPNQmddIWWXjocpGVk0ZO23Il25DZKTMBkNEtyGiD/UoNJ5Dc4b4pWQkZDnDUPMRS8JQ02FLwlCDXwlDDjEy3GsRxch2HgIYCuGJBpsECoACoAAoEF4Fdh4q082hWIE9FSljjubQzCFbTRkLhloKo4iHWGlDVLehxsMyczlwdT0JQ5LdhoKHITJ1WiMhJgypFNW7ipEBDIX3bIMtAwVAAVAAFAilAgYMiWrKeJEy5pwyZtpQcW1bsasJ9rwwmc8whM0lhjOkz0VDUTqpdou2GJmRPc3uMMRMGKJiZNpw1pKafSU1ZMIQ6jpN2kK78sv1rxOcoVCearBRoAAoAAqAAmFVAN09vUTKFNKG1LsNMWCorQ/Fr0huwTCD04ZwKKy+W2st1NB9nHaG5EvJLCTU2qvablEhYYjZeNo+pp6oIyNhaOchgCHGeTbpiWXLy7/Nid4iH9OXrmWsOpKe2nni++jQMPk4+PXvp86eP5I0gH0FBUABUCCmAIIhMlKmDW0tdBjNwRxiz4qUeUwbMhOo3U9sJWFIvpRMNmHImEqGmgyV6VM48CAOfrvFlsJoC9lukTmclSqqJ20huo5MazxdjmBox8EEO0OTJj/00uvvrNu4be2GT6dMnZ7wU23C7EXPHTy3pOjikqKLy0q+yam+mRO95S8MTZ6/YsHWwz/P7RmTOSHh+yu5AVt6Lpd+92/oUfXDT9GhYRkYmvHEgs+6L6L1NzWelPysMKy28vXlDcfLBq619V1u/sU7L/A26f4HMjbuXN96uuroldbB6+39V1rqBkpWvr6ctz48DwqAAqmhwI6DZWakzCywp4fYq0TKLN2G0OSJohp72hC/9WJTt+qQMrszVNd1LGYOGTnUmjNkgyFLKRnpNcnCEKvDkAFDku0WOVM4yIQhlRhZAmFo7Ljxz7+8et3Gbes35a7flBsSGCJPVOwS+QtDs9fsy4neWrj7WBLBECkLconEMDRpxqyNDZ9X3v4rNpOSBYaeXf50tLdw4Frb4PX2wevtAhh6etG8xuNlaLWei03dX9UjJDp6pXV78cdp6WmkaLAMCoACqaSAAUOyNWUyBfastCE7DHWU1hsTW+1DW31svUjDUEClZE7Z08x2i84JQ+oxsh0HS+N/gGZmjVv2/CsIg15bsyHnhdcBhuL/Lbj+RDEMTZoxa33Z4Yqbf4kODVfe/uvW3ssIicIPQwsWzy9t34cwqO1MdWX3IQEMzZw1vUEnoa4v615cvQKJOWX6gwdqt2t+0jctaz56zbXC8EJQABQIuQI7DpY6RspYNWXuug350HrRdUGZ4QwpwZAv2dOsdotkjCy/qkkLkzEShqxF9cJ5ZDhGlhAYmr/gufWbct/58LOnFy5NHzNmwcJlAEMhP/PJzRPD0OK1mytu/qX6zr09Z383//nXsj/YliwwtL34YxTqyqvYMmX6g3kVWwQwtHHHuqNXW+3QM37iuGhv4eD19uqegrHjs0jdYBkUAAVSRoEdB0sNc4hqRU1HylA9k6X7olSBPZ025Kb1YmuvJWeIn0NtJFATrYYOH0M51FwYwjE2RpjM6D1d3dbnrpSMlT0tkTBExsj0UjIyYYisI9tdUGn0WtSyp3ccLEsIDI0dN2HFi29MmvwQOjGSH4ZGT/n5Swv3fJ5ddSMnemt55XfPbO8d/+gz5Gk/felaMiObuby8/NtJTywjXyW5/HZBc/Wde9W/+69XdzB8vp89tajg8r9Eh4Z3n7qdOWEyes+09PSnX1rzcfv5wiv/B+X0VN+5V3rjT1uOXHp8+UvizxXDUOaEyZ91X1xb0JKRqaFAEsHQwuwFVUfyccaPGIbKOg8MXm9vPlnx8OyZlFwbtr0zcK2t52LTytcgeYjSBn4EBVJEAQKGYpEyc2grTqMujprmkK0VNavA3jltSLr1ovscaqqgbJQtYegYQic7DCklDFU0dctnTzPnszKypw0YohtPO9WRaV/nAcbtM85Ha1LDUPr9WU9urkd51stKry4tuoSQKKf65mOr8yKR0UjMQGFowctvl974U3RoeFv/1bT0dOrre2VbYfXv/otCpceXv1T63b/hhB5yofz7P+dsyKXehPxRDEPkmskFQ9SWC2Bo5qzpTZ+XD15vr+w+RL0qEom8tOb53kvNA9fa3v/sbftv4RlQABRIAQV2HCh1Eykj5nI4whC/9aIth7rxcIWekaz9r5g2hJHGMIeOUTnUQcEQk4RYw+rpdotqCUPSMTKAIcFpKZFAPfrx9cU50VvLyq5Nfe5NhD7p92fNXVeUU30zu+rGQ4tet7+/7wnUaenp2/qvRoeGS2/8acHLlhsw/lXRtT/OWbIKb8ycJav2nf/HD6r7nn3tvbGTpkQikYnTH36/sqfqR61SbM/ZOxOnP4xXphYAhh6cOrlusGTwenvdYMl/L1P6LFg8//BX9YPX23eVfUr9Cn4EBUCB1FAAwZC7SBlZYC/TbSi+rRedYSiQUjJyJBmv3aJjwpBDUb0xj4wZI9t+oCThh2byOkMTHlu4rOxaTvXNn72wmZQxbUzGgq1dOdFbz+w8mn4/nTjiOwxFIpGY/XPn3tsFzeSWzFmyqujaH6NDwx+3nyefZy6npad/0vlldGi47Ma/L3iF21opgTDU39//vfDf5cuXlyxZwtw71ScFzlAkEjlUv3Pwenv31w3LXnyOemcMQ3kVW6hfwY+gACiQGgpsP1Ci8xBRYE8ObXWMlLlIGwq49aLhDBFpQ3pBme4MJUX2tBEjU208jWJkAEOCM9PRGZq7rjAnemvR/jMZ4zVzhfw3I3t9TvTW0uLLY2c+QT4fiUSCgKGZ857Jv/SH6NBw3pkfcWJQJBJB6USVt/+a/cE2ajOYP76RV4WqwATrAwxFIpFfvPNC3+XmwevtNf1F8599HImZlp628vXltUeLUUkawBDzGIMnQYEUUMCAIbWaMqrA3jFSxuw25CJtyJxdr55D7QaG0Of5lT3tJWFoT3F0D5EwhBK7dll7LQIMOZ6QYhhKz8h8ZntfTvTW05+02t8KvTa78saDC16kfhsEDEUikQ3Ro9Gh4Yqbf1m8NmZTZU6YvPvU7ejQ8P4v/2nSjFnUZjB/DDkMMbc5oCfFzlBaetqusk8R9AxcaztyofHwV/X9V1pQ2yH0P8BQQF8NvC0okHAFMAxxImXiVtSCAntLDjUzbcg1DFXrBe+8oRwMZ0gvKGPDEE41ci4la+mpjD2OVFLz6m1Nhpi9p20wRLdbtIwkIzsMkQlDTjEycIYEJ5UYhsZkTli4+xgqH0Mdq8n/Bd2rA4IhVNMeHRreED2KdmrBK2vLbvx7tS12hn6bkZn1/Madn3VfyL/0B9xduvzmf4TZGRJ8Wb7/SgxD6OP+u/SsbqAEMdDAtbbur+pLO/a/+6s3u/WcoY071vm+VfCGoAAoEAYFth8o0XiIKrC3RsqQJbFHrymzFtgLYKhJrvWiNty9TJ9tqo2yaOzS0pGbYmnUlbEcag1C0JAy7NTgbkMkw2CwMXjIaEKtBENKpWR+ZU8jb42AIbPDEK+oXreF0BQOLcapFdUfKEVfZ8IPrCTNGcIwxKyTR09mV/32oYV0872AYAj7QLg39PuVPcys6kgkMnfpCwe++meyiIxcFofVEhgmi+exKgNDzO1B1WR9l5tfW0ebgsz14UlQABRIOgViMKTVlKG0IblW1GSBPZk2VNl4qLKRHFJWGNW66hjOUGugOdQhhSGq97SX7Gmyw5ANhrSi+u0HSnL3QwI19zSUdIaYYTLumwaTM4Q+7s091dV37lX+8LeVm3ZPmjFr/5f/xKy3HztpSt7pH5AD9G5xOzlvNeRhsvAkUAu+X9S8sfVM1ex5UqFJwVvBr0ABUCCcCuTu150hosBeaoI9D4YqGigYKqhuJmFIH1IWVB/qcMJQmxoM8bKn2QlDFXhSPU4YAhgSnGliGIpEIk/+qtHFlDHkDC0p+PqByXS/PsHGyPyKrB1DUbOqH3564eP91GufW7MRhcNwQA2vADCEpXDnDD234pnO87WD19sP1G7HbwULoAAokGIK2GGInGC/u0A4wZ7TbYh0hlgw1FbsS0FZez+VNiQLQ3VdWtk9iqWh15DBtliYLJBBHAq9p8l2i9bs6Upe9jRy+QCGBKeoIwxNfe7N7KrfZlfdmJH9nuB9qF+hQrPlFb+Z/OTz1K+8//hx+/no0HD+pT/8svUsWpg5z9ILm2yE+Nb+OvITZzyxYNfJW5AzhDRxAUNPL5rX9HnF4PX2jnM1zy57mtQWlkEBUCCVFEAwxEgb4k2wL4maaUMcGDLMIUsONVVQFpehHJZWQ2YCdXxgiBrEEbfs6dz9xfE/QNPS0jOzxmZmjUOPhUuf10aVbfjsZ4/MNp4cm5ZGd1KO/3Y6wtCYzAnP7hzIid7Krrox992CB6Y8gvoujsmcMPmplU9urp/1KqOgfeyMx5cWXcqJ3nruwNmJc5eM9nVPV27aXfnD36p+/AlNBLN7P5FI5ImcX5T85v9Gh4YPXvgfqEnjzHnP4OmqHmEoLT191jPLHl/+Enq8ur0EbcknnV/iJ8nAXPy/Vt4njp847smFTyxYPB89DtbtQLPJ1n/yFnrmyYVPjJ84zv7yB6dOXvVGdlHLHlRs33up6fX1DiNN7G8Cz4ACoEASKZC7v9iWNqQPKcuv2KXzUF6hZg6ROdR7EQ8ZkTJB60XHHOqAC8q8wRDO1ladSuZYSubUe9pT9nRCYGjK1OlrN3y6flMu77F2w6dTpk5PyInx9CetgoTonOit6Ust3QgzH5q1aP8Z3kseW72btRejZ6/ZiyZ4kC90PZuM/AicKhQdGi6/+R/PrdlI/hYtp6Wnb2o8WX3nHpk0HR0arr7z910nb5V//2cqgRrPF6PWxz/ilO1IJDJ19vyDX/8e/4q5EM4J9rh1EFkeTy73XW7+xTsvYD3RWHtyhcHr7a2nq3Je8afrI/4gWAAFQIGwKZC7v5iIlLnJoRbAUH6VZg5Zc6jbGDnUDcZcjsau8kazmkwwkUO5ur77+Cg8qwzHyOq6BgVhMkcY8qeUzDqsXtB72p49zUwYAhiizjFVGIpEIun3Z/1s1cZFe08tr/xOg5vqm0uLLz25uX7y/BV81yc22zX2kugtrUTf7aBWahfeKWpFCEJOZqXWycjMWnOwoejqH6vv/F3rTnTrP3ccv7HozQ1oZhnAEIU46EceDPVfaek8X5vfsCvnlSVp6WmU1PAjKAAKpJ4CVhhitF6k0obMia0lNWbrRbKgzJZDbYUhlYIy/ngyZRg6fMwlDMVsodbeWJMhpw5D1FSyILOnyxEMoUn1uJQsITCUeicG7BEoAAqAAqDAyFGAgiGjwF6PlJlpQ2brRTYMldUdKK8n+1A75VD7WVBGZj8jo8foM0RM5JCEId+bDAlgSHJYvZk9LdFuMXd/Se6+BOQMjZwTBvYUFAAFQAFQIPUUyN0XC5MxcqhlWi8q5FBrU9v1hx4pC7KgLDwwRNbVi0rJiHaLddpIstJalKa+1+g9bY+R7connCGj3aLGtgBDqXeawh6BAqAAKAAKBKmADkP2HGqH1otmQVlp7f4yQR9qfkFZkDBU2zlg8JDZhJoRJsO1+Nhc8tMZqm0vro3BkEopmYvsabPdIsBQkCcLvDcoAAqAAqBAaiqAYIjIoY6lDSm1XhTkUAdXUIYnckTb+zHMYLzxBkMemgyplpKRgzjY2dMq7RZz9xdv21eUmocq7BUoAAqAAqAAKBCMAtv2FVFpQzsPoZoyibQho7peM4fIHGqHoRz2gjKjmqxBH08mV1CmwZBtdn3CYKi0QZuyRmVPM50hS109WUrG6j1tJgwVVeUVOrdbzN0HMBTMiQLvCgqAAqAAKJC6CmgwJEgbMnOoK/OKiG5DRutFs6BMmENtLSizw1CHBhIN+sRW6er6YGHIsa6+oqm73DasngVDWp4UCpM5TCUzYMhMGCqJmjAklT2tJQyBM5S6ZyvsGSgACoACoEAgChgwZKQN2cbXs1svGjC0T8sZMtOGJAvKGK2GMAxR5pDX6nqJnCEcY6vpOIpncYhgqKlbI6Gmw44wJFlK5jZ7mh5WjxKGAIYCOVHgTUEBUAAUAAVSVwEMQ0TakIvWi5I51GRBmWx1fWXzkcqWI5UtPVUtPajpDwYVe5ispuOotbreGwzhJkNVLT1anyG1JkNkKVlrYbSFdIbIunoChmSzp3ntFrftKwIYSt2zFfYMFAAFQAFQIBAF0N2TnzZkGcoRi5QVR81uQ0baED+HmiwoI2FIdVyrRiMYThAPxQuGEAm1HPEAQ2RdfVN+VZMsDLGzp2NF9TsPlZHD6lH2NMBQICcKvCkoAAqAAqBA6irAhCGF1ovOMNREFpRZWg3VtvswrlWfXU9GuihnqK4rZg7FSuslp7Qi2orBlwsYkqurZ5eSldTsK6nZW6IhJ5oJpzcZ4mZPm72n9YQhgKHUPVthz0ABUAAUAAUCUSAGQ4IcarL1opFDbTpDLodyxHKowwVDfjUZEsyr96GULL/C0m7xYCkatIt6T2tf597CQI4UeFNQABQABUABUCBFFdi2txCnDcXG19tyqHcXaK4EPb7eyKH2XlCmz67viFWTUQnUTd2Cca04TGZvNYT7DCk4Q55hqEOtyRCrrl5cSraroGJXDIa42dMAQyl6qsJugQKgACgACgSlAAOGDpQaYTJGH2oUt9mjpw2ZfaglCsqcq+vVZ9e7hqFBxEooooZjbLiULNrWpxQm87HJkAlDDoM4LDCk2UL6IA5whoI6UeB9QQFQABQABVJXARKGVAvKTBgihnKQ1fWHKhv1ia32HGphq6GGrnLPfRcNZ8ic1UrmDDnAEC5XE+cMlTV2lTVoDz4MsZsMcbKnzalksYQhPWfIPpVMXEoGzlDqnq2wZ6AAKAAKgAKBKIBgSIuU7Y9NbN2hOUOxoRw7D5VrYRm99SIKk/ELytSq62VaDVXoDX0EYbJqfhPqYGFIpsmQ3n7aNxhCoUo9TOZQSrYVcoYCOVPgTUEBUAAUAAVSVoGtes6QkTZUos2up2GoHMGQnjZUFU8YKm86rPGQYt9FazUZ3xlC69V2DtjDZJYYWWtvrMkQKq0PsOOircmQsK5+x0FrXb1RSgYwlLInK+wYKAAKgAKgQDAKaDBk5lCbMGSkDVETysyhHGZBmXN1vT1M1lpU01ZcK9t3UeMha9/FqtZeRCw4bQgjDYYcwxxilNZrYTK8Hn4lzhliw5Bax8V2pfbTTiNajbp6iVIygKFgzhR4V1AAFAAFQIGUVcAOQ5o5JCgoM6rrtRxqVFBmwJBgXCun1ZAKDOk8pDWhNlov+gNDmITsszjECUMqszjYHRfFTYbsU8kkS8kAhlL2ZIUdAwVAAVAAFAhGASsMGRPKJAvK7NX1nNn1HBhSbULNGMphd4Z4EznoBGrkDAUGQ+QsjhgMOTYZspeS7SmqzjNGtPJgiCol27oH+gxZzpVJTyxbXv5tTvQW+Zi+dK1lpZH3w84T30eHhsnHwa9/P3X2/JGnBOwxKAAKgAKRrXvIMBmZQx2bUCbOoTYLyqSr6y1NqOti5pDeasgYXO+q1RBJNYhzpMJk5MvYYTLF9tNeOi7aYchFKVkCYSgza9zi7BfWvPer9Zty123ctnrd5qefXTrmvvsSe55NmL3ouYPnlhRdXFJ0cVnJNznVN3Oit/yFocnzVyzYevjnuT1jMickdmflP31Lz+XS7/4NPap++Ck6NCyGoUkzZr1b3F509Y/Vd/4eHRquuPWfO47f+Pkv3pX/xEStuWDx/MKmvCMXGgavtw9cazv867rdFVtmPDKNtz0rX19e3VPQe6l58Hr70SutzScrPtiy9v4HMnjrw/OgACiQAgps3VNo5lCrF5S5gKHCKJpQZq+u9wRDgr6L9Ye1tCEHZyjxHRdLaxEM2evq7aVkdPb0/mLUSnzr3sKEwNDo0aOf/Plz73z42fpNudTj9bUfjhs/MSSnCnaJ/IWh2Wv25URvLdx9LIlgiPxGkEskgKEVH+4o+fZfSRsJLVf98NNb++vItwrV8v0PZOwo+bj/Ssvg9Xbq0XGu5rkVz1Bbm5aetr3446NXWqmVB661lbbvGz9xHLU+/AgKgAIpo4AAhjg51M4FZWSrIb3PUFN+lZZD7dx3sb4TNe4pa1RpNaSPJ0sYDPGbDLUV1bQWRrV59WhkPQqTuWgy5AxDRClZQmBo+sxH3v1wy7qN25Y9/8rYcZo7Mua++xYsWv7uR1vXb8pdvurVtLS0MJwzAEPMb0EMQw8vWFzwzf+ODg3nX/5fq365JyMzKyMz6xe5RaXf/Vt0aLj427tPrnqD+bYJf3LNR6/1X2lBKLMwe0EkEpnxyLQ9VVsR7pR1Hhg7PovcyA3b3jl6pXXgWlvVkXy0/pMLnyhp3zdwrW3gWltexZa09FAcxuQ2wzIoAAr4ooAFhqQmlBkwVFStWlAmA0OxoRxKMNTWh2wdHPLihskEU1pxjEyy/bREx0UThlDOlBCGBHX1aqVkW/YU+HJkqL7JU88snjtPu9/gf2lpactXvbp+U+6a9z+eOHkKfj6BCwBDTPHFMBSJRFZ8tHNr7zcPPfoE+fK39tdV/+6/okPD71f2kM+HZzktPW1n6Sef7P+QhJix47PKOg8MXm/vudi08rXleGtnzX245VTl4PX2aG8haQKNnziurHP/4PX27q/ql6xciNeHBVAAFEglBbbsKWDnUEsUlKnCkGEO8cJkHaX11kgZ6jMkbDWkJVA7wRAaT6aFyWRgCFWpVbf18arJpDsuBgRDlkEc2w9YBnFs3VuYKBhinhWPPPY4yh96eNYc5gpxflIahkZP+flLC/d8nl11Iyd6a3nld89s7x3/qCWqMn3pWjIjm7m8vPzbSU8sc7GPbxc0V9+5V/27/3p1R6n95T97alHB5X+JDg3vPnU7c8JktEJaevrTL635uP184ZX/g3KAqu/cK73xpy1HLj2+/CX7m5DPOMIQuTJefnz5S8gc2j74G/xkUixs2PYOyh96/7O38Qav//Sto1db+75peeP9l/GTaGHVG9m9l5oGr7dvK/gl9Sv4ERQABVJDAS4M2QrK7ONaTRgyZtcfKKs7YBSUHapoQBEhdxM5LJEyT30XNQSK5QzJw1CMhNx2XFRqP202GSqp2VdSs7ckKl9Xby8lCyEMrd+U+8hjj4fhhJGBofT7s57cXI/yrJeVXl1adAkhUU71zcdW50Uio9GOBApDC15+u/TGn6JDw9v6r6alp1PSvbKtsPp3/0WhEkYTe2ZP+fd/ztmQS70J+aNHGNp54nvy3cK/jGBo8Hr7hm3v4K0tbt07eL296fPymbOm4ycjkciU6Q8WNO0euNY2eL296kg+aTKRq8EyKAAKJLUCGgxxC8piQzl25dNDOcxxrfzqeicYapWZyBFrQt3UXanedxFXk3mAIb2vUaVWUHakovkImg8i7QyJZnG4azLkOJVs655wOUOPzpm3flPuOxs+e2jqjDCcJxIwNPrx9cU50VvLyq5Nfe5NhD7p92fNXVeUU30zu+rGQ4tet++I7wnUaenp2/qvRoeGS2/8acHLpnsRiUTwr4qu/XHOklV4Y+YsWbXv/D9+UN337GvvjZ2kBSUnTn/4/cqeqh+1SrE9Z+9MnP4wXplacAdD81a8iohtc/Np6g1D/uPGdwa0OwAAIABJREFUHesGr7f3XW5+bd2LaFOnPzy18XjZ4PX2ss4D5MY/u/xp9DxKqW4+WfHw7JnkCrAMCoACqaEACUPyE8pMGCqOooKy/dqs1lqt76JuDsVyqCsb+bNa1WDIGMrRUyndd9GAodhEDrUwmTVG1lOp2H6a4ww15Vc1IbvMhKGyOuQM+VVXHx5nKC0tbcVLb67flPuLt97PyLg/DCeMIwxNeGzhsrJrOdU3f/bCZnKD08ZkLNjalRO99czOo+n3W7JuI5GI7zAUiURi9s+de28XNJNbMmfJqqJrf4wODX/cfp58nrmclp7+SeeX0aHhshv/vuAVbmsldzCEYnmVP/xt5abdzE+XebK/v/974b/Lly8vWbJE5q0k1xk7Pqu6p2DwenvLqcpZc2OAOHverNYzVYPX2/MqtuD3eWfzG0cuNA5ebz/8VX1NfxFaWLAYWjFhhWABFEgdBdzBEDmhTLK6nui7iHKG1CdyaOaQDzAkNbLeCkNHVGGIM4vDgKGKBi8wJK6rDw8MPTpn3rsfbV23cdu8p8OSduoIQ3PXFeZEby3afyZjPJ3xPSN7fU701tLiy2NnWvKIA4KhmfOeyb/0h+jQcN6ZH3FiUCQSiSHI7b9mf7BN5jr0Rl5VdGi4Uri+Cxh66sW3iq//f9Gh4b3n/mHSjFkyW8JcJ/4wtHHnelQylltoJgAtWDz/8Ff1GIbGTxyXV7EFFZ3V9BfNmf8oMpMOf1UPMMT8HuFJUCDZFUAwxGs1ZK+ut8+ujy8MSTWhxmPHDHPIkjMUZxhizeJQgSHnunprk6GQwNBD02a+/cEn6zflrvrF2+ljxoTkPBHDUHpG5jPb+3Kit57+pNW+wei12ZU3HlwQi63gdYJwhiKRyIboUa294c2/LF4bs6kyJ0zefep2dGh4/5f/JIkgQcDQzHnPHPjqn6NDw+Xf/3nx25uwDuFfeH39SygVum6gZMr0B/EGkzA0Z/6jyAc6eqU1r2ILqixDaUYAQ1gxWAAFUkwBGoaM6no0u94OQ/bZ9SYMaZEya5hMz6G2txoimlArjyeTD5PVdg5wYQjjEi7Hx6X1limtiu2nS+o69A7U6rM4vHRctDYZCgMMjZ84+Y13Nq7flBuqjouRSEQMQ2MyJyzcfQyVj6GO1eT/gu7VAcHQ4rWbK27+JTo0vCF6FF13FryytuzGv1fbYmfotxmZWc9v3PlZ94X8S3/A3aXLb/6Hv87QpBmztg/+Jjo0HPKOi/Yr9bIXn+s8Xzt4vd3ecRGHyWr6i5BFdORC4zubzf5Ju8o+hTCZXVJ4BhRIGQVMGFKYXW+0GiqOmgVlsXGtqjCkza4vqesoqesIeiIHzhlSGVmvCEPULA696aKl42IsZ8juDKnD0PYDJXpdfUkugqG9WivxMCRQYxJ6452N4ek9jc5YSRhi1smjJ7OrfvvQwteo8z8gGMI+EO4N/X5lDzOrOhKJzF36AnJr7NVkPsKQSUI//vTWgfD2nqa+oEgkgkmo83ytvff0zFnTmz4vx42nG4+XPbv8afJNDtXvZNaakevAMigACiSvAlv2FGg8tJecUKbdZBmz6wsqjOp6n2GouE7joQTAELaF/BpZrwRDqAnBAZRATcFQUbU2orWoKq9QueNiYp2hiZOnvPnuphB6QugUlYQhZphMcJIHBEORSOTNPdXVd+6hJOVJM2bt//KfmPX2YydNyTv9A4Ked4vbyXmrPobJHnr0iV2f3/TXE4pPztDK15Z3fVnH9ITw14o6MQ5cayto2k1G0CKRyINTJ9cNlthrzfBrYQEUAAWSXQEFGMrHMFQZS6BmNKGOOUMHyusPVjSg6nphmExzhlIBhpC75RaGvLSfLiadIfR1JuqgDDkJOYbJIpHIk79qdDFlDMHQkoKvH5jsc901WTuGomZVP/z0wsf7qa/4uTUbUTgMB9TwCn7BUBAk9N9dfOIAQzIkFIlEfpn3wcC1tt5LTaveyMbqoQXUdHHgWtsv8z6gfgU/ggKgQGoowIKh4pgzZPZdLEethgxnSABDtfa+i3YY4s9q7YiN4whgcP0oQcdFz86QFuczEoba9bp6s/00OZiMDJMRzpA6DB0oNcJkYYEhTEKvrvkga+z4cJ4eYmcoEolMfe7N7KrfZlfdmJH9nvwuoEKz5RW/mfzk8/Kvklzz4/bz2lywS3/4ZetZtDBznqUXdiQSyf5gW+Xtv0aHhqmxqTOeWLDr5C3vYTJMQpW3//r67grJLQ/DapiEWs9UPbvMEvmiNm9h9oLOL7WMorLO/cxxHB3nap5cSBcSUm8CP4ICoECSKqAEQ7v0SJlWUFZUhVoN2XKGGDBEthpyHk/W4H5WKxn1osaT1XUdE8GQp5H19Z2l9bIwxJnSaoEhs/20ESbbVVCxK79iV375zkPCWRx6x8WEhMkwCb3+9ocPPjQ9M2uc/ZGenviaMkcYGpM54dmdAznRW9lVN+a+W/DAlEdQ38UxmRMmP7Xyyc31s15lFLSPnfH40qJLOdFbzx04O3HuktFpdM9oL1eHlZt2V/7wt6off0K4Y/d+IpHIEzm/KPnN/40ODR+88D9Qk8aZ855ZX3YY5V97hCGThH742ztFrY8vf8n+mPnks172MaDXYhJq/yL6ytpVCxbPtz/+OwSGP31X2adoJmtJ+z7EPXhQ69ErrRt3rsdrwgIoAAqkmAIxGLI2obY5Q2V0E2oDhvYUR/eiJtSxBGq9oIw/kcMZhvB4MqVZrU6D64OCIe8j673M4qAHkyEYysuP/zG6YOGy9ZtyxY9ETeR4+pNWQUJ0TvTW9KWWboSZD81atP8M7yWPrWY2GBw9e81eNMGDfKHr2WTkN4hThbRS9pv/8dyajeRv0XJaevqmxpPVd+5R2dPVd/6+6+St8u//TPUZwk4StT7+Eadsk7YT/q19IZwTOfIqtuCcaN4COZFj/MRxpfqMemrlgWttu8o+hUEc9gMPngEFUkaBLXn5qKBsm1lNVpy7X0+gNsNkNhgqjDlDJgwZ48m06vpkhSF96KtSaX2CYKh0hx4mYw4m2wIwZD07VWEoEomk35/1s1UbF+09tbzyOw1uqm8uLb705Ob6yfNX8F2f2GzX2Euit7QSfbeDWq17EHmnqBXxBzmZlVonIzNrzcGGoqt/rL7zd6070a3/3HH8xqI3N6CZZQBDFN/gH0kY0qedpL298bXmkxWo42L/lZa6gZKVr5vD7SnZ4UdQABRIDQUoGHIzkUNlPJmCM9TQVd54GM8mM8ZxMJouVssNrpcIk7X1OY6sr2jqjs0ma+gqa+jyH4aKuVNaxYPJcF19QmAoNU4G2AtQABQABUCBkakAhiFeE2qUprLzED2rVTSRw3CGtIIy0XiyNvGs1vDCUFmjRkKSMIQGkeRXNQc6mAxgaGSewLDXoAAoAAqAAt4VcIQhogl1hZlAXWhpNWQ2oVab1eoAQ2V62hAaFc90hqpae5GVE23rQznQOIfaVQK14QzFBpO19lYxmy42Hk4gDDkOJgNnyPtZAe8ACoACoAAoMKIUcAFDookcoYchlcFkLBiKxciCcYb2lmgtvVE1md5xscp5MJltFgfA0Ig6gWFnQQFQABQABbwrwIAh9fFkZkFZADAUSxtq1ibHV7YYOUMtPci+kXOGBnE1mQoMtfTYnSEfYMiPWRxmAjUxiwNVBgIMeT8r4B1AAVAAFAAFRpQCCIbiM5EDJc/oOdSt+qxWqTBZaGCoqdvMnnbjDDWRHRcPVjRoRXfMWRzFUWMWB9cZMjouWgaTIRj6LBHVZCPqnIGdBQVAAVAAFEgxBT7TS+tlYcicyGHkDPEnchzUHRByIocNhlrFCdQoZ8hSUBZnZ6iSzBlKIAzFOi5qTRdRzhDAUIqdh7A7oAAoAAqAAglUIBlhqFKPX8UjTOYBhjTvqzDaimZxFFRrpWSyzpC3Ka3gDCXwdIKPBgVAAVAAFEhGBdzCkPNEjuCcIa8whCrNajsHcO1ZbBwHVU0Ws4V6tEyl5iOoqk06ZwhgKBlPB9hmUAAUAAVAgZGoAAeGjFmtB0uJ0nqt1ZD8rNYwwFBt50BdF8qZjs0m034IGQxZBpNp1WTgDI3EMxH2GRQABUABUCBhCmgwxJrIERtPZsJQbCIHwNDhcqc+Q0U12sh6cZjM/5H1xpRWCJMl7GSCDwYFQAFQABRITgUcYMg2nkwehg6U12sdqPUm1ChhhkigbkG0UFSjF5TVtZfUaXPfS+s7SvGg1oYuXgK1fJhM5AzhGFlNx1Ffw2RtdhhC7afJnCFXMCQxsj4vH2AoOc9E2GpQABQABUCBhCngHoaMWa17bYPrD9hmtSIYyq9qLqhuRuPJgoahmo6jVBNqNJvMDJPFBYZaUAK1FxjaVVCxK1ZNBjCUsPMEPhgUAAVAAVAghRVQhSFyIgdKbjFhyBhc7wKGinVzyEdnKAEwVFzXXlzbXlxLOkPKMITaT2t9hgqr8gordxdUAgyl8OkHuwYKgAKgACgQBgW8w9Ae7Ay5hqHa9hEPQyU1+0pq9pZwR9bvyteaDMX6DB0oNfoMFefiDtQoZwjCZGE4q2AbQAFQABQABZJKgREFQ+xZHDI5QxUSpfUunKH9WgdqvZoMYCipThvYWFAAFAAFQIFUUkAChkqRJbErXyutt4fJ7M7QftWcoXg4Q4OjjCL7WGm9Us6QLzB0qLJRe+iduVECtSsYKjUHk+0HZyiVTkbYF1AAFAAFQIHEKMCDodz9JdsPlOzQqsl8gKFDlY16DjUngdqAIb2grLO0obOsoUt7NHaVNx62j+MQVJNF2/sx5FgTqPkwFCsla++P8psuJhyGdh7CYTIGDG3dW7gVwmSJOYPgU0EBUAAUAAWSXgEShrbuLdy2ryhXm1pfbIehnYf4zlBxdJ8e59lfWquFfWzOUIrDEGoMQIXJ0CwOsprMizPEg6Ft+4q27SsCGEr6E9HXHRj/yIInPiifkf3e6LR0X98Y3ixpFJg7d25XV9f27duTZothQwkF3n///Z6envnz5xPPSS0uWLCgsbHxq6++unr16sWLF9euXSv1MlgpErHDkMZDwcNQYZQ3uD4JnSHfYKg4lkCdV1RFVZMBDPl1tmZOfWz+ptqlJd/kRG/lRG9lV91YUvj1lAUv+fX+CX+fsTMeX1p0Sdu76puPvPxpwrcnPhuQl/fu0FDn7dutH3zwguMnLl/+5HffNQ4NdTY2bnVcORlXmDt3bk9Pz9WrV8+ePbt48eJk3IWRvM3z588/ffr01atXjx07NnfuXHkpVqxY8cUXX1zV/3399ddnzpx588035V8+wtf0AkN5RVVadX1xdK/dGdLNIdx00e4MpRIMaf0iS+o6XDtD+0prkbGmzeLQx3EkIwxlZo17euHS19/+8N2Ptq7flPvuR1tff/vDufMWpI8ZE55zbEb2+uWV3yEMIv+fvjSkfz+lpd/3yMufLNp36rE3d0nKOHHO4mVl19DezV6zT/JVyb6adxhqbNw6NNQ5NNT59deVs2dPpwQ5caJgaKjzxIkC6vkQ/jhx4sT29varV69+8cUXK1asCOEW2jdp0oxZG2oGKm7+JTo0vPPE9/YVkv2ZjMys13dXHLrwP6t+/Ck6NFz1w097z/1DzoZc3n5hrJHnofHjx3d3d1+9evXcuXOrV6/mvTM8z1PAXxjah8Nk7mGoI+lyhtzCkFZKplWTpQAM3XdfxstvrFu/Kdf+eHXNB1ljx/OOv3g+/8DkmYsPfZkTvbX40JdTFryEQkjpGZlZ0+fcP3FaPLdE/rPGZE5YuPtYTvSWPNakjcl44v2ynOqbi/aezHxolvxnJfWaPsLQ737XvmPH25QaSQRDpaWlV65cuXDhwrp166i9COGPGZlZawtayr//c3RoGD1SD4aefmnNoYv/E+8gXqi+8/eP6o+npbNj2evWrbtw4cLVq1crKirSOeuQX+izzz577ty5K1eu7N69m3weliUVSEIYOhK2BGo1GEIDbLVqMnUY2nGwbMdBSwJ1SHKG7rsv4/mX3vz5ouXjJ0waPXp0JBLJzBq7aNnKdRu3rd+UuyTnRcnDMdDVpi1+K6f65vKK3yRRUMwFDAWqYWjf3EcYGhrqPH26eNKkceTOJgsMvf322xcuXLhy5UpBQdhNrIzMrDf3Rku+/VfNKfnxp219VxASpRgMjZsyLe/Mj9Gh4ZJv/3X1vpqxk6akpacvfffjgm/+d3RouPL2X7M/2EYeaeTynj17rly5cunSpQ8//JB8nrn81ltvXbhwAfKEmOLIPPmZ3qVvy56CrXsKUQK1PWfIMri+QBtcn1dYqeW02MJkdmdIi5TpFeVUNRk/TKaNJxNWk8Ubho5UthwRVpOFCIbQ1ynzxcdhnbS0tBUvvbl+U+6b727KzBobh08Uf8TsNftyoreWFF18YMrD4jXD81uAIcnvwi8Yunw5euNG4w8/tG3a9Ar50UkBQxMnTkSpQoODg7Nmhd0UnLNkVdG1P0aHhvMv/6/FazY9vvyl0u/+LSXDZE+9+Nb2wd/MXWrJZsv+YFvl7b9Gh4a39V0hjzRyedq0af39/VevXj1+/LjjF7p27dqL+j9ImiY1lF/GMKTxkF5Nlqww1NaHauR9L60/UtnMh6H6ztL6OMBQOUqgdnSGQgVDkUhkwcJl6zflrl63OTPL8ne2/AHq45oyMDR96VoeMD39SWtO9NbTn7TiTXpgysNLii4uL/920hPL0u/PevT1HUuLtczl7KobC/OOj3/0GbwmtZB+f9bDL/7yuYPnsqtu5ERvLa/8buGez6cteRsXf6HPIrOa7MsLdx8bkzkBv/OkJ5YtL/+WWk2cC3Xf2Emz1+xdUnghp/qmthnl1xds6bBvtuvdxNsmXpg+ffLevevOnCn+/vvmO3c6hoY6f/ih7cKFqt2738nMvJ/52iee+Fl7+87f/KYBr3/zZjMvgToz8/4DB967fDn644/tQ0Odd+504A8iE6hRztCJEwX9/fuHhjoHBw9NmJCFP90OQ2h9e4LR7NnTv/66kszORqDW3Jw7b97DJ08W3rnTceNG44YNL6anp1VV/er27dYff2zv6tpNeVH4o+UX3nvvvUuXLl2+fPlXv/oV71WIOZAhgTJ1Sm/8CXkzB7/+/eI1m6gXbmo8GR0aPvj176fOtlQ2TZ09/+DXv48ODW9qPIle8kZeVXRoeHPz6Znzntl18lb1nb+X3vhTzobctPT096t6K2//terHnz7t+mrspCn4IzbUDGxqPDlphsZt/sJQqHYT7y+5gAU88NU/T5nFzZL+8MMPL1269M033zgWBgIMkfK6WKZhCFXXW6vJQuQMNWs2DTtM5hWG2vo4fYaSA4a27CnYsqcgnDCURM6QOxiakfPecwfPUSCyrOzaxMeX2s/JiXOXLCn4ilpZZxENqtD6cYChyU8+v6z0in0zcqpvzl6zF2NZJBLBMKS0m/Yd5z2DM5dR/jL+/86djqNHD9gRYdeutTdvtuDVyAV7NdmKFU9fvFhNrkMuM2Fo06ZXfvih7ebNlrVrc/A2e4ehU6cKBwcP4k8/f76sqOhDxGdDQ50//tiem/sW/jgXC+np6S0tLVevXh0YGJg2jZsDhynhrQN1RVc1Y4Z8VNz8y/L3t5CfrgpDu0/d3j74G/ye+87/4ztFrShrGCHXL3KLyPfHywHBUNh2E+8vhiE7aOJ1IpHItGnTBgYGrl69evTo0alTp5K/opYBhihBVH9kw5DWashsuggwFG5naK8W4AwhDKWPGfPia++s35S74qU309LSVA9N7+vjGBPjlq/X1aPnycCZCxjKqb6ZXf19TvXN+ZvqMiZMHZ2WPm3xW6ie66mPmyMRLYMK/8uaPmdx/q8R+jzyymf3jZ0ciUTSMzInzlk8f2PNxDl0FTTeBfkE6kgkgl0injM0/tFnEAk9d+Dsg0+/MDotfXRa+sS5SxbtO607W7+d+fwGvM0IhpR2E79WZqGm5tPjx/O3bVv95JOPaGqkp7366uILF6oQInz22Rvkm3z00cuIhC5fjr733qrMzPvT09Oee+7x5uZcuzM0b97DX31VMTTUefNmS1HRh9Ona2rPnj19+/Y16E2YMDRjxoNfflk+NNTZ2bkrPT123HqHodu3W3/4oa2sbPMbbyz9/vvm27dbf/vbpq++qli06PGzZ0vQx5F7qrq8ZMmS8+fPX716taiITRvoDRFzVN+5V33n79V37uX2X3vk50szMrNe21WOirl2HL9BpvSqwlDl7b9W/vC39WWHF77xfvn3f668/dey3/77ga/++bFFK/acvRMdGv6k89fMXQsChkK4m3jfp8996tAFLat618lbpOB4BbyQn59/9erVX//61ytXrsRP2hcAhuyaKD0DMHQ01oE6fM7Q7gI8tZ4TJsNTWsMHQ/dl3L/0+VfWbdz2xjsbx42fqHRQ+rUyJolgYUjv6DPn7f2km/L4eyV62dp5sk4tLf2+J3/VmBO9tazs2uT5pusg2F+8Cz7CEN6Mxfm/zpo+h/z0+8ZOXph3Iid6a9HeUwjUsDOkaVh9U2Y3yTd0vfzqq4tv3GiiEGHGjAfPnSsdGur86quKefMsiV/MnKGqql/dudNx82bLRx+9TG4Js88QDpNFIpGCgg0omPXyywvRC73D0NBQ57lzpTNmPPjUU7MuX44iREPmE/nR5HYqLW/YsOHy5csXL1589913BS/EzFF9597m5lMZmWYo8JPOX0eHhouu/vHRhdn4HVRhKDo0vPfcP0yaMetnTy0quPwv0aHhipt/Wbx2cyQSQW/Fy4/GG8ZbAW+SzAJ+t7DtJt74lZt2V/7wt+o7994uaMZPMhfefffdixcvXrly5dNPRW3D0AFw7ty5Z599lvk+8KRYAXcwpOdQJyKBOlRhstKGztIgc4Z4MGSMrC8xR9aHA4Ye+P/ZexOvJrZ077//k5IoCg7gdESPOICIoiAqk+J0FAcEQUVFj6jM85yQOUxhCmGQQZQDCoiIInHiiEKT7vv2ure7b79v969vT/d2e4+s36ls2KlUKkmFJKTAx5XlqlR27dr7m13w4dnP4OZ+6lz8+bibF+K/R3Fkkd9Fc8F1Gj0DDvIZCld89L+ldFnqSn3SGC1Mq733IXuMT1wptbGZY0fA0MrNuw4LRsIVH7dFMaQn3nz0OmkEko6tC5iJAZyxDLGeppnpsP8Ie95QU/vExISPj9cxhr4bwxA28HR05GMDDxqARRjat28H4hVsOrIdhiYmGpKSopBpCjkVtbXlooHZBYZycnI0Gs3g4GBwcLAZnTElpHW9o7rvEASBnH6E7//iG6rPQWotDEkn/nU8KZ8gCLwNlNw2giwfToEhrk0TfTWb/fYXDP0GoeeO4CNmvi+CIIKDgwcHBzUajVgsNtVy586dyHe+oaFh9WpOpDIxNVTOnjcPQ2R5skKh8TaZo2FoJtWQcW0yh8KQnLk2mUmfIYAh2rJ2c191Pu4mNdVQ3I2UyO8uOssyRBue42DIeDeKEYa8wuLJDTLJO08/VmYhgiAcAUMbgs6EyX5Eft80iQiCwMTmFRaPPsUwxHKaxn3O4QwjDOXnX9Zq1WNjyoiIvbQ+jWEoImLv2BiZZjo//zKtsUUYIghCoUjSatWvX1ceOrSLIAjbYej9e2VoqD8VhrKzZ0w4doEhsVis0Wi6u7u3b99Omy/1LYahs9ky6nl7wRBmKQxD+EZOgSF8dzxZuzDfnKdJEMRKz/XIrUo2+dmUBxUeLUEQ3t7ejx490mg0jY2N1PMEQezfv7+7u/vZs2ejun8tLS1zqOBB6/Orfbs4YEiu2+OyLZpsloTkDe2y+jbyVXdfSr4AhubydCxf4bbDd8+5S4nxiakXryZt+GbzXHqx6zVOhyE2A6DN2BEwxAhq+L4YffDGHD7jOBjat2+HSHSzt5f/9m31+/fK9++VY2NK5FxMtQwhaMBUgcdMEIQxDF29euzTp3qtVo2ZA7dnA0ORkfvevq2ammrk88kULwsFhizGYAMMOReGXN3cb9b2ImcmMxkX8VqlwlBTUxP1PNVopNFohoaGqqqqtm4lHe/g3xwUABjS+wyBZWgOC8j8JatWe5yNveFEH2rq8NiwiBlQMBVaH674yJIS2AyAOmAHWYbMzJHqITQ/MMTjuQgENyYmGnCYFe3AWTD0c+JQlSpDq1W/fCn38/t2ocBQb2+vn58fbRVR3wIMORGGKCT0JVHZY95vGn9r2DJUV1eHT1IPPDw8rl+//rO3kEajgW0yqjJWHQMMLToYyiqyagU4unHQ4aMcybvIhkXMgILtMOT93T3Se1o4utp7H0vZHWcZsrhNhgnPoZahpKQoREL9/cKzZw/jxEKM22SVlXe1WjVLy1B8/NGPH+duGSIIAjlxIxcl7sMQijkaHBwMCZlJ0MC4xgCGnAVDKz3X31Y9tcomhL5BVGdDo9GUlZUxfqfoZFJS0qtXrywuADM9fOUf3c0qIity6JLUkEkXUZ6h2dD6heIzZM9tspk9MvPbZNVNouomzvkM6bKJ3+UYDB0KPxGfmHrqXPyyZQYuxvP/4LGHIWNewSHxxkkX2VuG1gUcD5OSWRa3RNJT25lSA8OQ//dKU22Mz5sPrcdeQYzDQA7UVAUcCkPt7XlU1xw8F0YYysyMmZpqNE4m5Om56vFjAS20/tChXW/fVlOTH+LO+fxrKFsj9o/+OaTf2HGHx3NBCRh7e0t7e0tphVpRe42mIijIIGMeDv7HnaMtPMxweGp4/8741nio7A9u3br16tWrkZGRhAR9WgTjy+cGQ7QQM4IgIq5noFB8WtLFOTvT4IGxiSZbsWLF/v37zSRlxr1Z5TPkuGnOmYQIgkB1NixGk0FovfFqt+rMDAzpeIhzMFTdJFI2iWuaJTUt5KuW9N6hJV2U1beh3S2F7UkXUUcLB4YE+miyHF2eIe7B0KrVHshtKPCg86tns4GlsgMlAAAgAElEQVQhT7/wUMm7MNmPG4PP4Qdp2cq1gZldKD7fFhhatnLtgdxeMuTeKKYd38voYMneOw20WHejNvQT5mGIt9x9f0Yn2WfeY9c1BmncXNdsRKmG9t5tdOEtQ/06FIaQxWV4WObjo/cq4/FccCog6jbZqVMHULw95gwyqZLnqtbWHAQ3VE5as8b9yROSkGhJorOyYpEvEY2TGIkEOR6Nj9e9eVNFgyHkzU3LzXj8eCBqSe18fmAI5xkyE3NETfTMkhIu5FdSw+PRkthz/ILgzZ9QZsX5h6FvvvmmqalJo9GMjIyYystsLQw5dJqYhGSTnxMUnSx3x/BTjeIEIc8QFsRBBwYwlEO1DAlQBHd6gfOiybgJQyIlaRbigGWI0zDkvnLV7oADF68mxSemOjHVEPWxYQNDyz2+OVj0NFzxMbigf9UWf4JYsmbHgeCCPpSKkLEcB3vLEEEQXmGXUQmOQyVDXmHxPFc3giBclrqu2RnMmHTxZ9ddZKpBSR1XrNUTA3VqtGPzMEQQxIYDUWgYwQV9Hj6HcNJFNFNa7myHwhBCkMlJlURyy9NzlZvb8tjYiP5+IYIbGn+sWePe1VWELEB5efFubstPngzq6yubmmocHBSjTIZXr+orQOXnX/7lL1VTU41tbbnbtn2zbds3NTUpExMNb95UvXxJpqWmQhUjDK1Z445sQsiTiUpm0dGhqAbIwIAwONjXzW15auqF9++VU1ONNLPT/MDQ6tWrW1paNBpNT0+Pj4+BsYq6PKylhODoG+Lxf6DsQTuCj7i6uX+Xyhe+/wva7jEux2GVZWizf6Bv6An0Com/gwqDZD+ewCc3+zOkzImIiHj27JlG96+vry8gIIA6QXTMnWliEpJP/XSz9rFv6Ek8O3zgvT/EFCHhDNQtLS3mY+bBMmS8DKw6AzBE9xmyYBlSNs83DBVLMospSRcLhLN5hjgEQ1u3+1Ij6qnHp85fXkCh9WTsxulkVKtLn6pRPr7ndq1vvMB2GCKIJdui0hCI6PvXpcM25cRDtUtRL6HVJrNYwQP7AOl+QJgcRohwdEPgaeoPEYfCENWUQnWdfvu2GuVlpvIHQRCM7Z8+FZ0/H/L+vZJqGUJGI2oFDNT/hw+1CQnHkUXKIgwRBIG9mmhkxuO5tLXlUseMCp/V16chfsKdzw8M6YZKeo28evUqKSmJ+g1Sj62lBBceL7ltBJfXQAfyqZ9u1fdl9X6yEYYyuj/Qeqa9Zdwy8/b27urqQjBkqkg7d6aJR0KbGvWtmYocqN6c+e8Ufb8AQ9R1Podjq2GomKxaP095hpBlSNk8s1M2r9tkdfeZQ+sBhphWGQ2G4m6knI+7GXLkuw3fbF6yxKAeBdPV83SOjWVIN5QlXmGXyaIZ8vFw+fjB4mebIxKWuPC2n8+yBwyRd1i9NcD/ZhVZ1XW2Qur+jE5qoVaaIqgKLFnRTNceIZFtMDQzjD23a0PFb8gO5eOHSod94vi0jTNqfJkhTpE9mPE3p03BzNsjRwK6uoqQs/PUVKNGUyEQ3PDyWsdoqiEI4siRgN5ePgq8HxtT/lzNw8trHYqWp8EQaYrzWlddnYyKb0xMNHR1FR05QhoS2MMQTt5IgyEEWwpFEspmNDXV+OKF/M6dKB7PBZmv5h+GcJHz7u5uU8Yh/LuZ5TYZyouToOhEZhv51E9FL357/E6BC4+HkuXYsk02NxgiCCIqKmpoaEij0dgLhhw3TSw4lX5ox6ZgyMPDA6VS7OjoMFNvDj1cAENmfsiw+WiBwhBzrVZVh0LVMdeq9bN5hmYsQzNJhgzyDIlrmsUAQ2yWFbQBBUABZygQHx+PSjeIxWIej+eMIczHPXG0+eIOnsrMzHz16tWLFy/i42cyoJoRF2DIjDhsPgIYMrFNBjDEZvlAG1AAFOCSAjweTywWj46OsvwNyqWxWzGWwMDAvr4+jUZj0ZPGik451jQuLm54eHh0dJQl16KqHaOjo8nJyRybysIYjhkYohSuF2UUiTKKxJnF4kwnbpPVtOBosgVjGSqR15bIa4tltcWymiKpskiqLJRUF0qqC8RVBaLKfPJVkSesyCsrzysrzxUocgSKHL48my/LLpXN1CZbCD5DC2OxwyhBga9AAQ8PD5VKhVISx8bGLr4Zh4SEtLe3azSa4eHhixcvLr4JkpkLIiL6+/s1Go1KpfLwYFXoGnvQ9/f3nzp1alHK4tBJ2QBD0my+LIcvzxEocgUK9Ns8T1iRL6rIF1UWiCoLxFXo9z5igGJZTbGMBIMSeW2poq5UUc8vr+eXNwgqGgQVKkGlqqyysayyUVjVSBY/rVajgC0ytB77DH3dMEQCaXqhKF3nQJ2aX5aazyEHaoeuUegcFAAFrFLAx8fn4cOHGo3m8ePHi6lYVUlJydDQ0OjoKEK9xES2+bqsUs/pjXfu3ImKkT18+NCU7xfjIGNjY5Er1ejo6NDQ0JMnT86d06cIYbwETmIFaDBEphrK46eSSRcFRpYhkaFlCGCIRdV69pah3DISKimWIdJNPatEmjljGQIYwosWDkABUMCCAj4+Pq2trXfv3rXQbkF9jHYABwYGxGLxzp07F9TYrRvsrVu3WlparCIhdIOQkJD6+nrz3uXWDeWrac0IQyQPWQlDuWU645CwIp80DoFlqLy+VFFfqqizDEPCmW2yOcNQcm5pMleTLn41zxFMFBQABUABUGABKzAHGMosIaPrs0sNLEPmYEhSXSRVflXbZOQWIDMM6RyGDHyGrIMhIXWbLCWPn5LHBxhawM8fDB0UAAVAAVCAAwqwgyGhzoF6ZpvMrjCE3IYWkc8Qv7xB5wxFg6GaGQdqizDEl886UOv2yEokhttkAEMceGhgCKAAKAAKgAKLSwE7wBBfnitQsLMM1Rg5UAMM0SxDAEOL6wGD2YACoAAoAApwXwGrYEgXXS+hW4YAhlAgnKBSJahoAMsQ9xc9jBAUAAVAAVAAFKAqwA0YIqPruR1aX9MiqWlhkYHaITCUUSRG+5TphbBNRl29cAwKgAKgACgACthBAYAhdhmo2cBQxRwsQ2T0HUq6OBNNhrbJSmXZpXqfIatg6E5WkR3WBXQBCoACoAAoAAp8NQrcySq6m118L7v4Xk5Jck4pyjNkFFovTC/ESagp22SluqSLDNtkFSjpIsq7WKSPJjPlM7TwLUO6PTK2MESmn57JQG1PGLqbXXw3uxhg6Kt5eGGioAAoAAqAAvZRAMEQyUM2wBCZhNogz5BJGEJJqCkZqOlJqLmagdqSZcgMDKFaHNRosrnBEJl+mrpNlifAofX3ckru5ZQADNnnmYBeQAFQABQABb4yBagwRPKQLgP1bBLqsrSCsvQCIfkr2KxlCGCokQmG6lDSRfYwhNJPk6H1TNtkzDCUS1rzAIa+sscWpgsKgAKgAChgTwUYYEhfkYOEIZKHHAJDdSgdD6082WKyDAEM2XOlQl+gACgACoACoICDFAAYso8DtU2WIVSyvmymMJl5yxDiU7JQK9omA8uQg54M6BYUAAVAAVDgq1HAzjBUVq6rTaYrT6bzEi6UVFMdqCk+Q4vFMkRJMkRzoLZgGcoXVeaLdA7UFmBIjKLJ0DYZwNBX82zCREEBUAAUAAXmSQHrYUisT7pYKsvm6wLKsAO1aRiilifTOVAzw1BZZaOwSi2sVouqm8iXskmsbBbXNEt0HszS2lZpXau07r607r6s7r6svk1W3yZvaJc3tCsa2hWqDoWqo7yxE70q1A8q1A8qm7rQ6xf4CH2A26HLFLpe5A3tqFOZ7h66O7VKa1vR7RnzDLGEoSKpknzpynEgB2pTMJTNlxn6DAEMzdPDALcBBUABUAAU+DoVIGEIRdfrApJIB2oLPkPzAEONAEPUPEMAQ1/nswmzBgVAAVAAFJgnBczCkIDJgRpgSKmzWVU3CavVwio1WIYYl+qh8OPxianxiakxCXfWb9zE2AZOOleB5Utd70YmtX/fnHUq3bkj+arufjA6Mf/Z/5FPfZF++mfY1ZTFN3ff0BP3Wl+KfvybQjstn/pS9u6/blT/sGHbrsU3U5jRYlIAYMhWB2qAIePnYdPmrbHX7gIMGSvDqTPrVq5tudn4PGsg73Q2pwa2WAez+8iZ7McT8qmfFNpphXZ68cGQq5t7QvkD2cRnNEHq/3zNH/ccv7BYv1mY1yJQAGAIYMjOy3j5CrfTF67EJ6aeu5QIliE7i2vX7gCG7Cqnuc58Q0+kdr5BGFTy6g8Z3R8WJQwdT8qXTXyWT/2U2vnGP/IsQRAbtu26WdsrmyTxKK3rnduateZkgs9AAecpADAEMGTn1RdwIDQ+MTUq5tquPYEAQ3YW167dAQzZVU5znSUoOhXaadnE50Rlj6eXd6KyZ1HCkAuPd62i65JA5cLjYTnc1qxN63qn0E6Lx/8RHH0Dn4cDUIBTCgAMAQzZc0Gu27Dp4tWkS9eTN2/dvnW7L8DQnMWlkcrh7QdV12uepj9+njXwOOVRzneZq1esNu58w+oNggslj1MePc8aGMrs/+Heg4yTqbSWVZcVz7MGzL9abjauWznzR/zODTt+SO56njUQf/AS7Y7xBy89zxr4Iblr54Yd+CNq+yVLlkQFnL5/Sz2Y8QSN52b4jaUuS3Fj1AO63a5NvuVxUjTH/rQecUzZhtUbcMs5HJzNlim004XP/33jjt27j5xJ63qHdnAkH/8nuW3Ea1cAtU/f0BPC939RaKfPZsuo5wmCQP0I3//FN/QE+gjRzIX8Sr+I04XD/yGf+lLy6g97jl9Y6bn+TtOQbPKz9NM/r8jaMBP4R57N7Pl4MDqRejnLbbLy8vIPHz709fVt376dNjD0ljvTZBweFlA+9eVMpthUGzgPCjhXAYAhgCG7rUDe0qWR312MT0wNOXLKxcUFYMgWZTEMFUblFUblDWX20/ClPE66YtkK6i1O7TnxOLX7edbAYMaTnuSuJ7rj51kDXXfa9mz2xy3nDYZuht+ojJfTRj6U2Z97OmvJkiVoPBiGko58jzCIOs2mxAbMZHj87A8wJVwqazR2ZMl/9n827tiNe5sDDN1pfl4w9BvsGZPSPpqo7JFPfUFnxB/+fvDiDP3gu6ADqyxD7GGIa9PEs0ZfBCNo4jZwAAo4VwGAIYAhu61Av71BcTdSzsbeWLXagyAIgCFblMUw9CS1eyiz/9G9zpig6BXLVni6e0piyp5nDQykPz61Z8ZQQRDE/m/39aY8fJ41UH2lHBtUwnxCuu91Ps8aUF2vodmHCILAtzDvQE219NBmZN4yhGis/fvmI77hS12Wblvvrbpe8zxroCe5K2DLHtQV6mEos38os78/ref7iJtojqXnC9HJK4fiaDdl/xb9DpZP/YRCt2L59Ss912/YtitJPSif+iKf+nIuR457mwMMicf/Ifn4P9+lCU7eK5ZNfBb9+Dfpp3+mdb3zDT1Z8uoPCu10LL8e9089cAQMcXCaeMoX8ivRtmDENYhbxKrAAbcUABgCGLLPilztsfZC/PdxN5K3+8wYIQCGbFEWk8rzrAH1jfrNHl64t4AtexH3ZM+GxC9ZskQaK3qeNdD+ffNmz824JUEQUQGnB9IfP8vsizkQTT0/DzA0lNkvvyShQtjpvafQftml4ItoMAiGnmcN9KX+QGW7TR6b2m+3PM8akMSU0YbN/i02SEjG//voTX3E3JY9B0pG/lOhnU5pH8W9zQGGFNrp5LYRFx4v4FSMaIyMJOe//uPOQ5EEQSAX6URlD+6feuAIGFJop7k2TTRltzVrs3o/KbTTxS9/t9lvP1UHOAYFuKMAwBDAkB1Wo4sLLyzyTHxi6pGT511cZnwnAYZsURbDUOst9UZD1xn8EbboBGzZ06Nz6/k+gr4vs37VutZb6udZA/wLxbTxGPdDa4DeztkyVBkvp23kGXeFYGgw48m1kCu0u6PtvKrLCtp59m8RDMkmP18oqKRdhWAlo/sDPj8HGBKN/W3/adJwha6VT325ImtDHc4/DHFwmkiKCwWVssnPVHGw5nAACnBHAYAhgCE7rMat230vXU++EP/9ag996CzAkC3KYlJhQwPRgeefZfb1p/VE7jpifFNEFbUJVcuXulI/xbfAUEX9FB8bEwz+yPw2mfluUSeMPaCP7AVDVMdnPHK7wBByzcYwRHWInn8Y4uA0CYKIuJ4hGf9vhXY6d+BXnl7eWH84AAW4pgDAEMCQrWtyhZt7VMy1uBspfnuDqH0BDFHVsPYYkwobGEJIMZTZ/zjlUU9yF+2FHJOpAWJoMPgW5qkFYAhZmKi0gfa5HAFD27dv7+vr+8DiX3r6jP+N8fDwYnMu8+0/HSd48ydy9xAyLuKvBA64qgDAEMCQrWsTVd44ERW7bJmB4QFgyBZlMamwhyFqHJbxsep67arlK6lDwrcAGMLWHcaIJ2PaABhCC8mMAQyTkODNnyD3NPW5g2NuKgAwBDBk08pctsz15Nk4VHnD/P9QpMwqoTGpsIchU9tkpu6LbwEwxB0YMv6yWIbWUw1XuBNnWYaCo2+Uvf0z2ITwFwEH3FcAYAhgyKZVCjBkk3ymL8akwgaGwn3C+tJ6hjL7rQpEx7coj5OaHgiBt8lSjt2lNluxbEV5nNRM0kXzjIW64qDP0BXpfeo0V3quRwmUqbThOMsQ9dbo2EEw5LhpAgkZf4lwhvsKAAwBDDlqlcI2mS3KYlJhA0OrV6xW36h7njXQnNhACz0zM4YlS5ZUXyl/njXQ9n2zmatwPJo0VoSTJS5ZsiT3dBZKqGgqA/XCgqFNPnuKhn9Lxtt3aHDmaBceD+dRXBww5OhpYhIqGflPv4jTZpYffAQKcEoBgCGAIUctSIAhW5S1CoYIgrhyKG4w48nzrIHOpNaogNPIPWipy9Jdm3zvRSbVX1NuX7/NeDw3w6+j3IayWBFjA3QJTvN4LeTKUpelmz03y2JF6EKyyIaJchwLC4YIgkhpHyVzA07860JBpaub+9Z9h1M7XuvSM5JpG22BoZWe63ceivQNPYFeSepBlITwdFoZOrPzUORKz/XGXxBBEPa1DDl0mpiESjX/L/TKPTxf6oHHpm8ZpwknQQHnKgAwBDDkqBUIMGSLstbC0JIlS9JPpCAeMvae7r7Xycg6G1dvaE5sMG5PCz07vOMQKvRBbfnwbnvSkVv9aT2LBoYOXkwUf/g7Lq+BDviv/3hJoJJ++qctMBR2NUX66Z+0nqlvqWH5tGVjdxhy3DTR7iF1XsbHxqXfaPOFt6CAUxQAGAIYctTCAxiyRVlrYQjdK3jbAfklSU/KQ7SB9TT9cdv3zfcik2hpqakDW71idcbJ1Ef3OqlFxGgwRBDEAe9A1fVaBFt9qT8ILpRsWL0B+SotGhgiCCLo7JW8p7+WTX5GCZ3vND/32hUQEn9H8vF/Fg0MOW6aAEPUJwuOF5YCAEMAQwtrxcJoQQFQABQABUABOysAMAQwZOclBd2BAqAAKAAKgAILSwGAIYChhbViYbSgACgACoACoICdFQAYAhiy85KC7kABUAAUAAVAgYWlAMAQwNDCWrEwWlAAFAAFQAFQwM4KAAwBDNl5SUF3oAAoAAqAAqDAwlIAYAhgaGGtWBgtKAAKgAKgAChgZwUAhgCG7LykoDtQABQABUABUGBhKQAwBDC0sFYsjBYUAAVAAVAAFLCzAgBDAEN2XlLQHSgACoACoAAosLAUABgCGFpYKxZGCwqAAqAAKAAK2FkBgCGAITsvKegOFAAFQAFQABRYWAoADAEMLawVC6MFBUABUAAUAAXsrADAEMCQnZcUdAcKgAKgACgACiwsBQCGAIYW1oqF0YICoAAoAAqAAnZWAGAIYMjOSwq6AwVAAVAAFAAFFpYCZmGoLK2AfKUXCtMLRRlFoowicWaxOLNEklUizS6VZpfKsvmyHL48R6DILVPklZXnlZXnCyvyRRX5osoCcVWBuKpQUl0kqS6SKoukymJZTbGstkReW6qoK1XU8cvrda8GQUWDoEIlqFSVVTaWVTYKqxqF1WpRdRP5UjaJlc3immZJTYukpkVa2yqta5XW3ZfW3ZfV3ZfVt8nq2+QN7fKGdkVDu0LVoVB1lDd2oleF+kGF+kFlUxd6/QIfoQ9wO3SZQteLvKEddSrT3UN3p1ZpbSu6vbimWaxsFil1I6tuElarhVVqNGhBpYqcQ0UDv7wBTQxNskReWyyr1c28hlRBUl0oqUbSFIgqSaWEFUi43DJFjkBBqsmXk8qWSrNKpJklksxicUaROKNIlF4oSi8Uoq8kNb8sNU+QksdPyS1Nzi29l1NyL6fkbnbx3eziO1lFC2sJwmhBAVAAFAAFQAHnKkDCkO53KPp9mpxbmpJbmpLHT80TpOY7C4bUCwmGhFUkwdkEQzoeMg1DEoAh5z4kcHdQABQABUCBxa2A9TAkoVqGkCFDbxkSkpYORssQMo5YtAyRZqEqgCEDy5ABDKUXkMYhsAyxfyy9vb0fPXqk0WiGh4dbWlrOnDnD/lpoCQqAAqAAKPA1KOAgGCow2iYDGDK9TWaNZQhgyNrHcsuWLS0tLc+ePRsdHdVoNCMjI2lpadZ2Au1BAVAAFAAFFrECFmEovUBo6DPEyjIEMFRfqqgvVdSx8hmahaFcZp8hs5ahPD4XfIaWLXM9eTYuPjGV8XXybNyyZa5Of4p279798OFDjUbT09Pj4+Pj9PHAAEABUAAUAAU4ogADDOXxqT5DDoMh5D1dzy83cKBeTNtkMzCk46GaYpneMjTjQ40dqNnBkM6HWqi3DOXrHKh1MJScQ/pQO9GBekHAEEEQUVFRw8PDL168uHTpEkeeQBgGKAAKgAKggNMVoMJQcg4ZmUSGKOXxU/NnHKjZwFAujiab9RliYRlaXDBE+lDTo8nYwFAlGU1mJxi657xoMgxDAUEhTl/TZgYQHBw8ODio0WiSk5PNNIOPQAFQABQABb4qBRAM3csuvpdTYgaGdHH1KLSeYZvMCIYqTcFQiRyH1tNhSB9XvxAdqGcDyqih9TbAEJ8aWj+zTWbRMoRg6K4zQusBhr6qnxowWVAAFAAFFpkCd3Wh9XOEIZRkiC83BUOFuqw6KM8QcqBesDCkSzXEmGcIhdY7FIZ0qYbIRE+k9xaOJjPaJgMYsvhwgmXIokTQABQABUCBr1ABgCF2GajZwpCKknTRbpYhgCF7PZkAQ/ZSEvoBBUABUGAxKWAVDJHpp4sp22R2swwZpp/m4jYZaxjSJaEmtwBxNJlZB2oTPkOG22QAQ/Z65AICAvr6+sBnyF56Qj+gACgACiwOBQCG7GwZMgFDZEUOXI6DEk1mBEO66PrsWRgiK3IUo4ocC2ObDIfWx167e+Ziwt7AQ8tXuHHnUdmyZQuKrheLxdwZFYwEFAAFQAFQwLkK2AGGBArWPkOk9/RsbTKqA/ViswyR5ckMLUOzMCRVIkcqsjwZGVpvLQyJqD5DqDxZcm4pCq3ngs8QhiF8EHvt7radfs5d5dS78/l8jUbz7Nmz+Ph46nk4BgVAAVAAFPhqFWAHQ6hKqwhtk2WVkCVEyUKtuEorPbR+JprMyIHaGIYMkgzNVGld+Ntk1sCQyDC03oJliAGGyFqtujxDToQh4+fHfeWqvUGHL15Nik9MvXg1ad2GTcZtnHLmm2++qa6uRtmonz9//uTJk3PnzjllJHBTUAAUAAVAAY4oMB8wZFiy3tAyBDA0C0N5ZeVkBmo9DMkQdRpuky0YGELre8M3m2MS7sQnph4KP8GRFc/j8dLT0/v7+xEPvXjxIiYmhiNjg2GAAqAAKAAKOEUBRhjSlaynJl20bBnKKysnX7hKq6422YxlCGCoWGZ6m4wtDIl1ofUzMKSr1SpA22TctAyh1czjLT12OiY+MZUjFTkIgsjMzHz16tXg4ODt27c9PDyc8tTBTUEBUAAUAAU4pQANhlJ0GahNwJDYcJtMRt0mAxhqFFSqqEmokc8QtTwZ6UBt7DO0qGGIIIjw42e5A0MbN27s7OzUaDTgQM2pH0MwGFAAFAAFnKuAGRhKKyhLKyjTleNAliH7wFCpok73Qg7UHN4mk9Xdl5KvVmltq8S60Hq9z9BXDkNu7ivPxl7nzjaZt7f3o0ePILTeuT904O6gACgACnBNgYUEQ7UklpBwoqMUWd19WX2brL5N3tAub2hXNLQrVB0KVUd5Yyd6VagfVKgfVDZ1odcv8BH6ALdDlyl0vcgb2lGn5P9GMCSpaRErm0XKJlE1+RJWq4VVasMM1CpdaD3A0Mw63xt0OO5GSuy1u5s2b+XC0gcY4sK3AGMABUABUIBrCixQGMIkNO8wVDPvMFSC8gwtJJ8hFxfe2vXfRH4XHXcjJe5Gyt6gwxxZ9wBDHPkiYBigACgACnBKAathqEQyG1o/R58hq7fJapolNS3ki2IZciAM6Y1DjJYhp8NQoRDtX6bmc8iB2s191fm4mzi3ED6IvXbXf1/wkiVLOLLoAYY48kXAMEABUAAU4JQCCx2G0B6ZPbfJLMIQuVM2n9tkNMvQQoChS9eToy5e41r6aYIgAIY49dMHBgMKgAKgAEcUABjSl+Oguw2ZsAxht6F58hkyCUNl+tD63NJ7OSVOTLq4ZMmS5ctXcGRNmxnG9u3bu7u7wYHajETwESgACoACX6ECBjCUW0oJrSdDychoskJheiElmmw+t8mUTSJlk9jsNpnee9pWB2pVx4KHoZySu9nFd7OKvsJ1zHLKJ06cGBoaevXq1a1bt1heAs1AAVAAFAAFFr0CMzCUU3IvpySZezAkVjYDDBk6UOu3yYwsQwiGsosX/aqd2wR37tzZ0tKi0Wh+LlwfGBg4t07gKlAAFAAFQIHFpwBpSsguJvdYFjoM6eLqzYfWP0TR9cyh9YvGMgQwZPiYbtmypaWl5dmzZ6j+xsjISHp6umETeAcKgAKgACjwVSvw1cDQw19UNjHDUHmj3m0I7brNpBpacD5DYBlieuCFYXgAACAASURBVJax0/Tw8HBHR8eZM2eYWsE5UAAUAAVAga9XAYAhMkUjc95FgKGv97mAmYMCoAAoAAp8RQosMhjCaaXLGzsNM1A7wDJEJqGehwzURtFk6QVkqqHUfPAZ+ooeVJgqKAAKgAKggOMUMA9DusJkTogmQ3l8yFAy9g7UhrU4LMNQhfoBRqe5WYYcDUPZpdKsEmmmGRjKF6Tk8cmq9Si0HrbJHPegQM+gACgACoACi1eBucFQdqk0u9SBGahthyFkFqLUJjOyDC0eGMrjAwwt3icUZgYKgAKgACjgcAW+RhiqbOpiDiij1Wq15DM0W6u1saySfAkqVYIKexZqZWsZ0sFQcg6ZdxF9nQ5fNXADUAAUAAVAAVBgESnADEP5gtR8XcbFAiFj0sWFYhnCheormyiWISth6L60rlVS24oKpIlrmnEG6nmEIUlG0Wyh1kKh3mcIbZNRYAgloV5E6xOmAgqAAqAAKAAKOFwBOgzl8VPy+GQNUG7CUF2rlHzdx4Va9RmoDX2GDL2nu+YIQ7JZ4xDAkMNXItwAFAAFQAFQABRwkgIYhpJzSDdc0h+X6zCkI6G6+ygZ0MKDoSJJdaGkukBcVSCqzCdfFXnCiryy8ryy8lyBIkegyOHLs/ky0idL70A9YxnKKBKRljocTQaWISc9NnBbUAAUAAVAgcWkAJl+WpeB2gwMZRTh2mSSTF1tMvbbZEWS6iKpskiqLJbVFMtqS+S1pYo63aueX17PL28QVDSQnjaVKuR4I6xqFFarTTpQY7MQl2BIbZXPkB6GxFUAQ4vpWYK5gAKgACgACixQBbgHQ+qvDobywTK0QJ8eGDYoAAqAAqDAolDAvjCUL6zIF1XkiyrJXSBxVaGk2nrL0NcMQ2Uz22TkThlsky2KBwwmAQqAAqAAKMB9BWyBoRy+nHwJFLkCBXJ6+UphSFjFEFrPL69HO4Il8tpiWW2xrAbtFxpvk+ktQ9bDUGrebN5FXWg9RJNx/5GDEYICoAAoAApwTQEqDKXoHKhT8wS0aDJTPkN6GCqzGoZ0DkOMPkML0DI0DzCUWUyG1hs7UAMMce2JgvGAAqAAKAAKLDgF2MNQZrE4s9jAgRpgqElYrcblyWhJF40tQzPGIRxNNutAzcYyRIEhEYom05UnEwAMLbhHDgYMCoACZhSIjo7u6OiIiIgw0wY+4qYCK1askOj+rVixgpsjNDMqUzCUVqBPuohMErbAkC6UzCCajNEyRIaSVXHSMiQ1l3RRzdIyZAxDuuj6CoAhMwvU9o88d4WEit+GKz5SX5sOx9jeM/TAqMDGHbsLn/+7QjtNfWV0f2BsDCetUiA7+5JWq/70qf7q1WMWL9yxY9Pz51KtVt3dXWKxMUcaREdHDw4OajSaurq6+fyF+pUsWkdP89q1ayMjI6Ojo2KxmMfjcWRRsRwGCxhCcfUi9jBUYORADTBE+gyZgyFdQFmuaZ+hBWQZWrps2c5de09EXbp45XZ8Ymp8YmpMwp31GzexXJF2b7Zmx4HgwoFD/BeH+C9Cyl6Fy8fDFR/tC0Nrd0cEJDfvS72/1G2N3ce/4Dpc7+2T1ftJ+P4v5Gvsr7LJzwrttHkYcluzNl7UXDzy+2sVXSzn6+nlnVD+QDL+3xY7Z9nhgmhmOwwplclarVqrVT9/Lt2xg/5UdneXOBGeIiIi+vv7NRqNSqXy8PCYz29kDosWDe9gdGL+s/8jn/oi/fTPsKsp8znmOdxrDtP0DT1xr/Wl6Me/KbTT8qkvZe/+60b1Dxu27TJ19/T09AXKQwBDneWNnaaq1uMM1GwsQ7PlyRr45Q3I8EVzoGYDQ2TeRZ1fui7vIq5aL1koMLTdx//i1STEQPh/58IQ9aHFViL7wtCO6LxwxcegrIcAQ1S1CYLAf4mahyHcLFHZQ+vB+K2rm3tMSZ34w9+x5cl858Y9LNwzdoShX/5SlZ5+kSaFE2HI29u7q6tLo9E8fPjQx8eHNrD5fItXo/l1tfvImezHE/Kpn9A6XBAwRJXR4jRd3dwTyh/IJsg/ZmgvvuaPe45foPaGj3k8nlgsHh0dffHiRXx8PD7P/QPbYShXoMhFDtRCcsMnX1RhtWWocibp4sLeJmOCITKgDEeTzQ2GskqkpK+W3oGauz5De4MOx91IibuR8t35y1u8d7i6LufaAwAwNM/fiMUfuGg8uJl5GHJ1cz+Xqyh7+2eFdlo2+TmlfRQhkflfWvM8ZYfezo4wpNWqHz8WeHquog7YiTAkFApHR0eHhoaioqKoQ5r/Y7waTa0r39ATqZ1vEAaVvPpDRvcHhXZ68cHQ8aR82cRn+dRPqZ1v/CPPEgSxYduum7W9yNab1vXObc1axm/Hw8Pj/v37Go2mp6fH39+fsQ0HT1oLQ1klpLWCzEDNlyEThl1gSJ9+euH6DM3CkIpiGZqBIR0PsdomM7YMUWBotlarrhwH3YE6l6xajwrXO2Wdbd66/dL15EvXk3399y9ZssQpY7B4U4AhixLZt4HF3yvodriZeRjaeSiS//qPCu108cjvD0Yn+oaeEL7/C2yTmfrKGH2G0DbZyIhibEw5MdGQmHiKermzYOjYsWPPnj0bHR0VCoXU8TjlGK9GUzCUoOgkcXzic6Kyx9PLO1HZsyhhyIXHu1bRdUmgcqF4/7itWZvW9U6hnRaP/yM4+oapLygqKmpoaEij0YjFYlNtuHZ+PmGoRI7LcaBaHLOh9dRaHIsAhgQVeJvMJAxRypPpHKhnfYZYwVChEPm3p+aX6aPJnApDvKVLj5+JjU9MDTp8hGtLnDoe1jC0ZP2+E0E5P4TJxsIVH0Ol7/enta3etp/a1abDMVSPbMbjUPFbz10h1KvYH+OfyIgPDkYn5g78CpmsRT/+7Ub1D55e3sa9ee0KuNP8nLrBn1D+gLElQRCubu5RWZKi4d9iS7hs4nPZ2z9fr3xI7Rkzx9lsGfU8QRBns2UK7bTw/V98Q0/QPkJv8SwYf6+gP6lpFnja28Ln/75xx27ceUL5A/QbiCAIPDDGzvElHDnYtGltbm7ckyeCDx9qp6YatVr1xETD8LAsKyvWzY3Zhrpr1xaVKuPdu2rcfny81pQDNY/ncudO1OCgeGKiQatVT001fvhQOzmpovkAIRjq7i7p6MjXatVdXUVr1rhjiYxhCLU3djDCpKVUJqPLkdWqtjbVz+/bnp7SqanGsTFlQsJxHs9FJvv+06f6yUlVU1MWzRaFrlUoFBqNpq+vb/9+g6cMD+xiSa186ov8l/97Op2BlrbsOVAy8p8K7XRW7ydsrnB1cz8U+31y2yvB2/8PGTPkUz+Vvf1zorLHa1cA7tn4wPyiJQjCP/JsZs/Hg9GJ6Fo7whCnpmmsDDqDnnr51JczmSZBh8fjVVRUaDSagYGBsLAwU11x6jwJQzqDQnJOKTXP0Ew0WaEwvRAXJiND69lbhgp1IeQoAzXyHjaGIYbCZF8fDFWS0WQLHIY2btoSe+3uxatJnus2cGp90wbDBoZ4y939b1YhP+sQoeYw/yVConD5+Pbz2QQxY/SaNxi6Vd93q74PuyZgVkjrerfScz11gkcTs9C2kWzys3Dsr+Lxf6DGjBv8m/325z39Ne6NekBjC8wcXIAh6nzxwGgDprbhzjH2XEb+y/j/qanGzs4CY0TIzIwZH6/DzagHxtFkfn7f9vaS/EFtho+p0WQYhhITT01MNIyP18XEhGOVbIeh3t7Srq5CfOunT0V8/jXEZFqtenJSlZpK9zUJDAzs6+vTaDR8Ph+PhHYQcPKicOyvCu10SoeGaqhAzU6llMp/+b80VAq7miL99E/qwsbHjE8EvqNFGMIt0YEdYYjL08SzRjCk0E4b/0DAbQiCiIqKGh4e1mg0xcXF1POcPdbDUC7AUEO7XPeS1beRr7r7c3KgVllpGVoMMLRn/6H4xNRT5+KXLXPl7FonCIIFDC3xjReEKz6GiF5vDD6H0Ie33N0njh8uHw+TjW04wODQ4AgHavwTWTz+DzKI4+2fT6eVrfRcv2HbrpT2UdIsP/Gvo4lZWO39p+NEY2TER2bPR/yH7+FLt5GHTe7Ar2j2oduqp8i2f0mgwqaXzf6BEdczTiYbRGJj5jD+2WejZQgPHk/W/DYZbo8O8MAWBAyVl9959Kg4JeW8v/9WgiB4PJfTpw8OD8sQIty9S/pk4H/Xr59EJDQyorh8OdLNbTmP5xIc7Ftbm2psGfL0XIX4Y2KioaYmxc/vW4IgNm1am5Bw/M2bKlOWIS+vdYODYq1WrVZn8ngu6Na2w9CnT/UTEw0i0c2zZw9/+FD76VP9jz/WDA1JDhzw7esrQ7fD00QHycnJo6Ojw8PDZryFXHi8lA4NaYYc+2vASQO/b/wR//Ufdx6KxJ2HxN/Je/rrWH797iNnXN1I69dmv/1J6kH51BeFdvpe60vcknaAVyPLdWVHGMJz4eA0sUoX8ivRj46Ia+n4pPHBxo0bOzs7NRrN/fv3V69ebdyAa2dMwBCZZCitoCx9LpahSuRA/ZVbhsidslIFm20yIxjSBZTposlkyBA360A96zPEvW2y0MjT8YmpESfObd3ue/xMbEzCHRRKFn35+4Nhx9zcDZw0nfgMWIShNduDQkSvw+XjW47dpI7TZalrQHJTuOLj/oxO3nL9tgJq41AYUmin8wf/7duAg3g8AadiEPfg/Sz8M7R45Pdb9x3GLQmCOJ6UL534F+2P5vXePgVDv2HpbYOZY3HDUHp6+gdL/9LTzf30p8rO8vj06YNjYzU0RPDyWjcwINRq1UNDEkQ2uDdGB+rU1AuTk6rJSVVBwWXckiAIvJPFaBkiCKKkJAFtZp08GYQutB2GtFr1wIDQy2vdnj3eIyMKrVaNjU/YKEUdJEEQaD+lu7t7+/bttI+ob2fMP1NfLpbUUs9jT7LbqqfU84zHKz3XZz+eUGinS0b+c8ueA4xtnAhDBEFwdppIK7c1a7N6P5F+ey9/t9mPeU8TqyqVStFOWWBgID7J2YO5wpDMtAM1wBDpM2RXGCpB0WQchSEXF5ejJ8/jQHqUWOh83E2cZyj6yu31G7248AxYhCGfuNJwxccD+U9cVxvsQBEE4RUWH674eFgwsnIzPceGQ2GocPg/aD908A9rbEfB1vVYfj1N500+e4qGf6vQTiepn+GPPDZ9i/bIioZ/S8Us3IB6ADCEGcnuMMTIKzEx4ePjdYyh78YwxOO5IO+fwUGxl9c66hfH2DmVSPbt24F4Bfv92A5DExMNSUmk9RTfva0tF1meqLfG41y9ejWKPGpqasInGQ82++0vfvk7hXY6+8kkdgwiCAL52bAP5kKGnDk7uhmPzY6WIWS+4uY00cQvFFTKJj/Lp75ckbUZS0E7k5ycrNFoXrx4EROzAJLc2gpDuiqthqH17GGoYUH5DOmSUItrmsXKZpGySVRNvqjlOHA0mW6bzBiG9LVakdGsQFyly0DNwjJkBEOoIgfNgTp5tlYrbUU6+u2yZa4nz8bFJ6bGXru7/2C4m/tKfMcNmzafj7sZn5j63YUrXIi0Nw9DPFe3/Wnt4YqPe5PoSIG32MKkY+sCjuMJogOHwhAbWz36a9LU7wPkp0z7FRLLr0f7BeIPf09U9lD3F2iz+0pgiDbr+XmLiYFqvMnPv6zVqsfGlBERe2nDMIYhH5/NaK+ttjaV1pixcxqRKBRJWq369evKQ4dIxLcdht6/V4aGktHU+O7Z2ZfQwGi3Rie9vb0fPXqk0WikUilt/MZvURiXZPy/D8bMGG6xoSJ/8N9oG8HGl6MzHIchgiC4OU2CICKuZ6A0p8bb7oxqx8TEvHjxYnR09M6dO4wNOHXyns6BOjmnNNnAZ8jENlkJdqCetQxZhCGpskiqNOFAbQ0M1bZKa1ulda1SnScP6c+jc+xBTj6KhnaUN7G8kcyhWN7YWaF+UKF+UNnUNft6+IvKpoe6F3kKfYxbMydd1LkNSevuk3etbZU4DoZEMw7UeWXlZDSZ8TaZGRjK11Wtz+Mn55Y6HYbCjzH50/ju0SUfSt78rTkb+Pw8FeZhaKnbmqCshyh8DGWspv5vJnu102EIx3eIP/x9JvUzSgCt+x8Fi9HCslzd3K9VPEBRNsixVDj210RlD22XjRq0tbi3yeZhBe7bt0Mkutnby3/7tvr9e+X798qxMaWpgC9MFdSBGcNQaKj/+/dKrVaNrTu4PcYRKmnRiCQyct/bt1VTU418/jXnwhCbGOyDMTfRL+MERSeaJtoylhvtnaFPV3qu/y5NkNrxunT0/+LnQvLxf2wJgcTy4gP7WoYIguDmNPefjhO8+ZNCO23e/RzLQhAEgiGNRpOcPBNySP2Ua8cGMJTHT8nj00rWG0STWYQhUUW+yNAypIchMq6+RF6rS8uMQuvnDYZICrIPDElqWuxvGTINQ9ml+iTUGUX6bTK9ZYgDMMTjLT12OiY+MZURhlav8bxw+fv4xNQ9+w85ffWzhCHGOHl0Mkz244agM7SJcASGcLAM40He0197bCJda6n/fENPJKmfoTgddJVs4jMtswhYhqiKze2Yx3MRCG6goHccaUU9MOaV+YEhgiBUqgytVv3ypdzP71snWoYqKiosaovtQJjsr0jvM3pVEwQRHH0DZaVifBw4u0328zfCwWliEhK8+ZOp3NPGXx+CoVevXt26dcv4U66dsQaGDErWz/gM6SxDeWXl5EuXftruMCSpaSFfNMsQiveqb2NnGbIShuQN7TigjGYZImGoxt7bZNbAUEaRiHRr1+VdJLfJOABDBEGEH4uKT0w9eTbOOJrMzX0V2ikLCJpjxh07PjMsYYhxm8zMMDgCQ6a2ycyMHH/kH3n2tuopCkWmxal9JTDkUAfqpKQoREL9/cKzZw/jxEKMxpvKyrtarZolDB06tOvt2+o5W4YIgkBO3MhFaf5hCMcctbS0sCnteS5HThYC04VSenp55w/+G2O8/dZ9h4tHfo8sQKfThdQ/A7i/TUYQBKemGRx9AwWlsrcJoR8sd+7cQXGCFy7Q8yngnzzcObAIQ6hkfUYRmWQoU2cZItNPlxpsk311MISNQ2x8hqgVOYp0hrIiXQom0mdIXJUvqswXsSpcjyxDpmAoxXnbZARB+O0JjE9MvRB/y30lPYTSY+36aF3F1m07/Zy+7s3DEJlO7XvlHKqMIRg6VPJ8xdrN9poj9pJm4zMUEn9H8vF/5FNfzuXIbRlAcPQNlKkIu2ZTt8muSO9TO1/puR7lorX9j2w82bSud9RbmD/GlMZGIvNdEQThUBhqb8+juubgwTDCUGZmzNRUo3EyIU/PVY8fC2ih9d7eG4eGJFqt+tGjYhwhj/rHBGZsdqKewS7Yvb2lvb2ljKH4Gk1FUJBBvTAc/I+359AWHmY4PDXzPkM/J/+sq6vTaDS9vb1+fpZ/RFBjx9B2kmzi87Hb+VhSdMCYeQh95FwY2rhxY2BgoMUytNyZ5pxJiCCIsrKyBRRNZgcYQoXJqJYh3W/5Qkk1yrg46zNk9TaZWNksrmk2YxlCZiF5Q7slnyHWliGFUaohRsuQU2CIUp7MwDKkT0LtJAdq0rl43YaLV5PibqTs3EV3+QwICkGctGrNvJahpv1wRG8twtDG4HNhsh/DZGNeYQZRyoy94ZMo0CxU8m6tv90ScGM+YPObHv+JXDD0G1roGR4km4NtQWF8DVnvggpDOB6Nmu/OhcdLVPYgF2zbYciFx8vs+cgyXhdPxL4whLt1xAGyuAwPy3x89LjM47mkpUWjfEJUOjl16gCKt8ecQT5inqtaW3NQWkUaJ6nVmVqt+u3bqsjIfXjwly9HIl8iRrih3o4giKtXj336VD8+Xmeclwh5c+PweNT/8eOBqCXVIjVnGEJ5htjHHKEUWcUvf3ervs/UmkFedNJP/6Tlwtl95Ezh8H84y2fo5MmTT58+Rbm2IyIi8JfFeMCFaWISKhn5T7+I04zjNHUSxwkulDxDGIZQ+mljnyFTliFUmCxHMFultawcVWklt8lMwxCq416qYOUzNO8wpOqwFobIgLIqtbCqERVXE1SqBBUo6aI+msxeliEKDFmo1WpqdTruvIuLS8iRU/GJqRevJm3ZugPdaMmSJb7++2Kv3Y27kbI3yCD5jeNGYr5nizC01G1NYMaDcMXHMNmYz6WSFeu3oryLS93WrN1z1P9mlffpFONbrPTyPcx/Ga74GFzQ5+FzaIkLz7iNtWesgiFkV0fe0CWv/nA8KR/tC7i6ue8+ciZe1JzTN0WNF9vsH5hY03sqpXRH8BGUj86Fx/MNPZna8RrvQVAHjNM8XiiodHVz37rvMGopn/pJPvXFdhjCAdLyqS+pHa+pQ6UOgww89g/0DT2BXiHxd5C3U/bjCXxysz8XM5ogt+XJSZVEcsvTc5Wb2/LY2Ij+fiHOGU2lkzVr3Lu6ipAFKC8v3s1t+cmTQX19ZVNTjYODYpTJ8OrVY1gZhDJarbqvryw42NfTcxWff218vG58vA7lK6J2TnOgRp2sWeOObELIjYnaPjo6FNUAGRgQBgf7urktT0298P69cmqqEQ0eE9ucYejo0aODg4MajUahUOBJmTk4mpglnfiXbPIz2tXFztTUS3D66cyejygmYOehyO8b+nHlGVsW7UrP9TsPReIll6QeREkIT6eVoZM7D0XSssOjsWVlZWlm/9XV1VEHbHzs9GliEirV/L/QK/fwfKkH1P1H2hRQBurR0dGsLH1uWFobTr2lwVBqnsDQgRrV4hBlFtO3yRwOQ8omljCEzUIKVQeODzOMJmNpGZobDFXbBEO66HoL5ckyyWgylGqI/D7SC83CUI5B+uB5W21u7itPnotH2YZiEu6cj7sZe+1ufGJq3I2UAyGRLvbgg7nNZW9SvRmH6HDFx02HDXJguG3wPpD/xNQl288zPthLdkTnogoe1AvtUpuMjWWIIAgXHi9B0UmNDqP6jZa9/TOVMLBNhdpmxoF68nOCopNW8eDgxUS0fUZtz3/9x0sClfTTP2m/V9Af5dSWtGPGGW3224/yQNIaY1dZ9O1bLGfG2PncVo4dr6KaUqh+02/fVqO8zFT+IFNlUkwvuP3Tp6Lz50Pev1fSLEM8notSmYy5CrWfmGjIz79sjD7GZ9A08Z4azZLE47m0teXiMaCDqanG+vo0xE+2wxCPx0M7ZT8X5WCTnQ/bQc2UC8V7uLTlJJv4nPnDuI2LFpMWrXP81pT33sWLF1GFCo1G8+jRI29vhvKCeNU5fZpoPxFPivHAOMIUjx/Xm2PzneKrnHhgrjBZAS5MZgRDsyXr9ZYhIfkLnfR+sdEyVK0WVqvJJD52h6GqZpKJUKg9LbS+vLGTObqejKs3CK1HDtR4mwynGmJpGSqW1ZBuQxSfITYwZG3hemetJ97SpbsDDkTFXIu7kYJSL0acOLd2/UZnjQfd11oYIkslLHffEnnjQG5vqPQ9CTfy8cOCl/43q9bujjBt9Zmp7TpzieIjGaJvj0KtVv12P3AuIe3BW+HYX9EGlmzic/HL38WLmmkB85v9A5PbRgRv/oTCjBXaadLAM/bXtAdvD5xLYPy+gs5eyXv6awRbkvH/vtP83GtXAPJVsgsMkTtBXt4J5Q/K3v6ZWohtccAQQRBHjgR0dRV9/FiPqqhqNBUCwQ0vr3Wm6OTIkYDeXj4KvB8bU/5czcPLax0KpKfBEBl/5La8pCRhbIyMsZ+cVD19KoqOJqtjGndufAZ93bg6Bw2G0A6dQpGEOp+aanzxQn7nThSP54LMV7bDEKpjhYqcSyQSNm7Usfx69LuZWpmVtm5nltO7/0LPgujHv91rfekbegKhjC2Lds4wpMv6XTI6OsoGhgiCcO40bYGhY8eOPXv2bHR0tKTEOX+c0xYDm7czMGSQZEgwU4tDD0NiumVoFoZy8TbZLAyhWhwF4ipGnyHL22SIhOYEQ9gsZJRn6GFV88NfOBSG0E4ZbZtMV5GjjrpNZjcY0lfkEOh9hmYL17P54qENKAAKgAIcUYDH40kkEo1GMzw8HBcXx5FROWIYOPUOy+g5R4zB0X16eHio1WqNRtPd3e3jY+B37+hb29K/VTDEvmQ9FYZQxsViGU4yVMfoMySsaiRfXw8MFUqqrUhCPbNNpk81hIg1Nb8MYMiWBwCuBQVAAS4o4OPj8/DhwwX3G9Ra6ZKSkl69erWAPGmsnSCPxxOLxSiifmFxLRMMmUg/XYzTT0upSYYYa3GYhyF+OYMDtQ6GZvfI5scyVKF+gK1JNm6TGfpQz9QmM28Zsg6GjJJQM8IQSkJt7fKF9qAAKAAKOF2BiIiI/v5+jUbz4MGDBWRRYKkbj8dLTExEruJdXV3mHYZY9snBZunp6SO6f3Yv5OfoyVoBQxbTT5M+Q4bppyXVs3H1NVTLEA2GkL/NYoIhFSrUSoWhEjlZm4y6TWYjDOnzLubRK3I4etFA/6AAKAAKOEKBuLg45GJcVVXliP6d0ueWLVtaWlqw6/TDhw8PHDjglJE4+qbo6xsdHRWLxWx8vxw9Hqv6v5dTwliYLJ10GMIO1DqfIYfAEBmKbncYQu7RlNpkRj5DbMuTsXagNrQMUWGoHvkMWYAhVkmoxSwrcli1AqAxKAAKgALcUSA2NrajoyMkxPkJ6+2lCSpGOzIy0t3dfffu3RUrVtirZ6714+HhIZPJysrKFhwJEQShhyFUmIwMrSe3yUzBkHXppymWIaPCZPX88gYyKU8lwJAuCXWesAJl8qbVajUuT2YqCTWu1cq1JwTGAwqAAqAAKAAKcFkBOgzlG8AQJeOieC61OJwKQ7P16rsqmwwsQ8zR9WZ9hu7jqvWmQutpliFBBZl0UbdNxmQZkioLcXQ9SUKGFTkMC9ezhyFckYPLCw7GBgqAAqAAKAAKcE0BBEPWpp+mOlAjc4Y+yZAuzxD6XY/KcSBXGTtZhsi8P7K6+6iOKrsqrbbBkGx2p0xS24oqg4hrMh+pcQAAIABJREFUmo3zDLGDIdJtCJUn08OQPcqT6QPKdBU5uLbIYDygACgACoACoACXFaDCkFH6aSHFMmRQpVWfflqgMAdDurKkOhgyLkxWL6iYwzbZHGCITLVIzTNkjWWovg3DEDYO2QWGqHkX6ZahMkWOQIEkJivilkrJpIvWJKHm8oKDsYECoAAoAAqAAlxTwBiGjDIuGqWfLpXpYWi2SqveMmS6MFmJvFaXdBHF1VsHQ9LaVmldK9UsJKtvY2cZmhMMyRvakfXJGIbInTJls0jZRObJrm5iU7gemcWKZXrLEBWG7J6EmmuLDMYDCoACoAAoAApwWQEShiykn56BobllXJwNrTe2DDVYYRmqbTWGIatK1s9YhswkocY+Q1bUamUNQ9Qk1GibzA4wpE9CbZB3MTmnlMsLDsYGCoACoAAoAApwTQGjuPrZWhy0uHrjjIt8uf1rcVQZJl2saUZeOhLTMERWaW1oRySDEyjSqrRWNc9uk1mGIetrtbKxDFFhiJpqiMxALa7SWYYq84UVKKAst0xBCyhDHKrbKTMRXW+YaohriwzGAwqAAqAAKAAKcFmBGRgyjKsnQ+tpMGRNkiHz6acZa3GUVepqcWAYsqpKq3NhaHanrHEOtVpZ5l2kug2hVEPmo+u5vOBgbKAAKAAKgAKgANcUMIAhw7j69EKRzoFanFk84z2dVSIlPXpRlVYBab9grMVhHEpGTT9tHoaQH459S9azsgzZXrgeBZTRarWWKsjQelOWIQMYYpV3UWIehlB0PdcWGYwHFAAFQAFQABTgsgLJOaW2x9XnkYU42NbiMA1DhntkymYxy20yVYdC1YH3yBhL1lv2GbIXDJVVNup4iKE8mcUk1OROWVl5Xll5rm0BZVxecDA2UAAUAAVAAVCAawpgGDKKq0dmIVahZBZhiJJkqM6gMFnlTAZqRxcmm38YolbkmLEMGcAQNe+iNamGMosN3IZmy7UK9KmGcsGBmmtPGYwHFAAFQAFQgNMKWAol01Ulm90mQ7U42MTVF+pyT8+GktWYgSG7FyazzjJkuXA9JdWQVXkXKbVaqUmomaPr9amGdMahGR9qvjyHL8/mz6QaIrMNFUtMwJBBQBmnVxwMDhQABUABUAAU4JgChjBEViVj8J5mCiXLoTsM6bbJZpMMmYahmSRDVhcmI5MMtZK5p9mln6ZVaTVpGbIKhhyXd9FSqiGZVQFlHFtjMBxQABQABUABUIDTChjDkKkSrTrvaemM97T1cfVzz7hY20qG1luZcdEyDFksXG+PvIvG5cmYLUPWRNdb8KFOhm0yTj9xMDhQABQwp0B0dHRHR0dERIS5Rov9s2PHjrW3tx87dmyxT5RD8yNhCMXVG4aSUQpxzJRoZRlKRo2rn90mM864yCr9tMUkQ3LLSYZmCpMxWIbMwJD98i5ahiGDgDLTqYbYR9enAAwZPl+eu0JCxW/DFR+pr02HYwxbwTu7KbBxx+7C5/+u0E5TXxndH+x2g6+4o+zsS1qt+tOn+qtXLf+a3LFj0/PnUq1W3d1dslA0i46OHhwc1Gg0dXV1K1asWCjDtu84165de//+fY1G09/f/5VDoX2FNd+bLaFkjHH1doEhsZKsheokGJrfvIsGMMQuul7nNkT6t6cXitILhMY+1Oa/crt/umyZ68mzcfGJqWZeMQl31m/cZPdbs+lwzY4DwYUDh/gvDvFfhJS9CpePhys+2heG1u6OCEhu3pd6f6nbGjZDWtxt1nv7ZPV+Er7/C/ka+6ts8rNCO20ehtzWrI0XNReP/P5aRZdFcVzd3KOyJEXDv0U9yyY+5w78Kjwh1eKFi6CB7TCkVCZrtWqtVv38uXTHDvoj2d1d4kR4ioiI6O/v12g0KpXKw8PDzPd1NCq0+pHoweuG9pHa72LNceHRqFD5/ZK2l7Vdb1Sdo/W1PZKr92KWr3A10znLjwIO7i6tyW4dru56o3rwuqH5WWWW5J7X1m9MXR4YurdMlYfbNw6UJ+VfW79pHWN7Hx+fhw8fAg8xiuOgkwiGUCgZm6pk1CRDKAzcYigZ+yRDwmo1mWfIqoyLurh6ami9YfppZsuQ2Vqt1sOQ3fIuUmHIQnS9eAaG9EU59AFlDlorprrlOAxRh42tRPaFoR3ReeGKj0FZDwGGqGoTBIGtROZhCDdLVPbQeqC93XsiuujFb6k2J3Qsn/rpetUjFx6P1n6RvbUjDP3yl6r09Is0fZwIQ97e3l1dXRqN5uHDhz4+PrSB4beBoXsVbaUPXjd0vVF1vVGZgSEXnkua4HbnaD1qif9/8LpBqMpb7bEK92ntwfIVrulltztG63Cf+KBxoDw4Yr9xh1fvxbSPkEBGe1V1Cb19vjVuTxAERkO1Wm0eDRkvh5PWKsAAQ/rc02bj6mfr1dsNhhAJ2RmGZqq00rbJHARD6rnnXTQfXW9lQJm1i8D29stXuLm5r2J87Q08FJ+YeiH+1qo15v7Us30MbHoAGGKjkh3bYMqxCwytWv9N9pNJhXa67O2fz+eVr/Rc78LjHb50u+TVHxTaaemnf4ZdTbHj4DnYlR1hSKtVP34s8PQ0YAInwpBQKBwdHR0aGoqKimJUPuDgbqEqD2FQwxO5tKXIPAwlpMR2jtY/eN0gay0OCgsgCMI/aFeZrocHrxuyJfdceC6MN7J4Mvr6mY7ROgRVqGevrd/kyJIReInUBStXu1M7ORUT2faypuuNquYH8c82LReei7fPt5T2+abI7Nq1ay9fvhwdHc3JyaF2CMeOUMAsDM3E1RuXaNWHkpWV6+vViyrRHhkZSqYLrS+W1ehepM8QysPMmHHR9iRDpi1DRjBkpjyZPfMuVqgEFZbyLppKNcQcXW9FQJkjFsrc+ly+wu30hSvxialBh4/MrQf7XgUwZF89LfZmXxgiCGLP8QtpXe98DhvsjIRdTZF++qdCO53SPmpxSAu6gb1gaGREMTamnJhoSEw8RRXEWTB07NixZ8+ejY6OCoVC6niox2mC211vVB2jddmSe+s3rcuW3DMDQ94+39b1SrveqBRtpVTUWO2xSqTO73qjahmqOnQ0iNo/+2MXnkuGMCkp/xoVp1audhepC7reqO6/qDl6JhT3tnK1u/x+SdcbVf1jmc+e7fi8C88lW3KP3Ol7VXf2ykl8nnrA4/Fqamo0Gs3AwEBYWBj1Izi2uwIz3tN5gtR8E3H1xlXJqKFkVBgyEVdvZptsHpIMVTaRVVr1lqG5wFB9m7TuPhnPpgtsQ65M4hrSrUmkbEIFRJjKtVqGIcu16wWK2VRDVBiyEFBm91Uy5w53+O6Ju5ESfeW257oNc+7EjheyhqEl6/edCMr5IUw2Fq74GCp9vz+tbfU2A+v3psMxVI9sxuNQ8VvPXSFzGz/GCLRzdDA6MXfgV7IJ0v9G9OPfblT/4Onlbdyz166AO83PRT/+TaGdlk99KXv3XwnlDxhbEgShd77RdavQTssmPpe9/fP1yofUnn1DTwjf/0WhnT6bLaOeJwjibLZMoZ0Wvv+Lb+gJ2kfoLZ4Fo2Uoo/uD8YYX7Uzh83/fuGM3Y+f4JL5LwdBv1nub3GHB7Z1ysGnT2tzcuCdPBB8+1E5NNWq16omJhuFhWVZWrJvbcsYh7dq1RaXKePeuGrcfH6815UDN47ncuRM1OCiemGjQatVTU40fPtROTqpoPkDIZ6i7u6SjI1+rVXd1Fa1ZozdjGMMQam/sYIS9s5XKZDR4BGq1tal+ft/29JROTTWOjSkTEo7zeC4y2fefPtVPTqqamrJotih0rUKh0Gg0fX19+/cbPGVUWYLCAmStxUejZjjDPAzF37nQqaln5IzIs2HITpNScovav+3HCSmxyH/oyl39/iO63YPXDbeyr9Ju4R+0q3GgvOuNSlCfS/sIv0WYqNFoxGIxPgkHjlDAUigZU1UyKgwJK5BlqEBnFmLynrZrxsX6NpnuJW9oZwwlM5Vx0VYYkpEwdN9KGKImobacd9FidD37gDJHLJQ59Onquvw7nVnocATz3z1z6NPGS9jAEG+5u//NKuRnHSLUHOa/REgULh/ffj6bIJagMcwbDN2q77tV3yef+olGCWld71Z6rqcKcjQxS/zh7yTTTH4Wjv1VPP4PdAlf88c9xy9QWxIEsdlvf97TX9P6RG9p4LKAYIgNOdF0mLe32HMZ+S/j/6emGjs7C4wRITMzZny8DjejHhhHk/n5fdvbS/IHtRk+pkaTYRhKTDw1MdEwPl4XExOORbAdhnp7S7u6CvGtnz4V8fnXEJNpterJSVVqKn0pBgYG9vX1aTQaPp+PR2LxwDwMCepz0bbUZm8DJ/H1m9aV1GShvTZZazHVtGPxjhYbIBjqeqNKSInFjVNKbnW9UTU/q9x/eA8+SRAE1fGotkfy7Y7N1E/xMY/Hq6urQ6QYEEBu9sE/BynAEoZQ7mmq97RhKFmFaRhiiKu3OuMimWdIn25RVt82TzBkJtUQC8sQWxgyCCibja4nK5QJFDk6yxBpHCqdyUOdWSKZzUNtMqDMQWvF2m6RWeji1SSOmIUIgmABQ0t84wXhio8hotcbg88h9OEtd/eJ44fLx8NkYxsOMDg0OMKBGls7xOP/IG08b/98Oq1spef6Ddt2pbSPki4yE/86mpiFv5T9p+NEY6RBKLPno9eumR+ahy/dLnv7Z4V2OnfgVzT70G3VU+Rnc0mgwqaXzf6BEdczTiYbRGI7Dobw4PFkLTpQ40uoB5t89hQNk17VmT0fOetDXV5+59Gj4pSU8/7+WwmC4PFcTp8+ODwsQ4hw9+5Z6oyuXz+JSGhkRHH5cqSb23IezyU42Le2NtXYMuTpuQrxx8REQ01Nip8f6ZC7adPahITjb95UmbIMeXmtGxwUa7VqtTqTN+s9YzsMffpUPzHRIBLdPHv28IcPtZ8+1f/4Y83QkOTAAd++vjJ0O+pMCYJITk4eHR0dHh425S1Ea4/emoGhTd9uVD4Sdb1RidQF1GsDQ/ei88iL2QyCUK9if3wjPQ7t3J2JO46vQntnykeiTd9uxCe37twibSnCbuAtQ1WBIXvxp7SDW7duvXr1amRkJCEhgfYRvLWjAil5fFtDycgqrZUIhqj16s0kGbIKhqRGGRcRCdnNMmQmCbUZGJLUtIhrzG+TIbchfaohq2vXMwWUsSnKYcf1MeeusFkoNPK0i8scHRXnfHdTF1qEoTXbg0JEr8Pl41uO3aR24rLUNSC5KVzxcX9GJ2+5flsBtXEoDCm00/mD//ZtwEE8noBTMYh78H6WC4+X0qFRaKeLR36/dd9h3JIgiONJ+dKJf8l/+b+n0/XeGOu9fQqGfmMx4h31w30YOpqYRc5x6svFklrq3K06Tk9P/2DpX3p6ulV9Wmx8+vTBsbEaGiJ4ea0bGBBqteqhIQkiG9wPo89QauqFyUnV5KSqoOAybkkQBN7JYrQMEQRRUpKANrNOnpzxnrEdhrRa9cCA0Mtr3Z493iMjCq1WjY1P2ChFHSRBEBUVFRqNpru7e/t2vUsNrY3xWzMwtMPPu/6JrOuNKltyD18Ye/Ns67CSNNIMVZV38NFBwEELO7D4cosH2DeorleKA8RWrnZXtJd2vVFJW4pwD0fPhKLdsfaRWklzoRnPJ3RJSEgIyr1UVlaGO4EDuyswC0MmHIaohThKZcZVyeYUSsYi42LNbMn6WtJRh5Z+ej5gyIq8izq3ISafIb0PdamC3CazAENMAWWkcci4QhlpHDIo14qyDaXmz1Qos/sqmUOHyCwUe+3uxk1b5nC5gy6xCEM+caXhio8H8p+4rjbYgSIIwissPlzx8bBgZOXmXbThORSGCof/Y7OfgSOFsR0l4ORF4dhfFdrpWH49bWzYapKkfoY/8tj0LdojKxr+LRWzcAPqAcdhaLPffgR2fM0fdwTP3U/fKTDEyCsxMeHj43WMoe/GMMTjuSDvn8FBsZeXQdIaxs6pRLJv3w7EK9jvx3YYmphoSEoiraf47m1tucjyRL01XmCrV69GCQabmprwSTYHZmAo4ODu5qEqDEOrPVZlS+6hUK/yDv7O3duQCad5qMqOMHQjIx4Fr6WW6l2RNntvqvlBjGHIhedyK/sKirGvfyI7eCTwTNzx9pFaMwkCCILw9vZ+9OiRRqOxViI2MkIbrAAVhlgW4mAOJaN6T1sTSlZW2WgQTWZVkqGGdoUuz1B5Yyd6oSRDxrU4zPkMMViG5p5qyMroejYBZdb7UONv11kHOPNQxIlz3DELWdwm47m67U9rD1d83JtERwp8bZh0bF2A3gaOFHYoDNE8eBi/01MppfJf/q+p2HLkp5z9ZNJtzVp8eSy/Xj71RaGdFn/4e6KyZ+ehSPwR7YDLMLTSc31a1zvkJvVdqhUeJ7Q5OustJgaq8SY//7JWqx4bU0ZE0LdOjGHIx2cz2murraWnnWTsnEYkCkWSVqt+/bry0CES8W2HoffvlaGh/lQYys6+hOSl3RqdxL/ppVKpVd8CSxjauXsbsgN1jtZnS+6hyDLk3GNHGIqKP4GcsisflFHzKFJhaP2mdaW12Q9eNzx43VCmykPpGb+LPWYRhgiCaGpqQhmYtmzh0N+WVn1f3G9MwpDJQhxM3tMCRa41JVrNhJIJKlWz0WTqmXSL1iYZ4iwMlVU2CthF11sVUEb1oTbOQ01ahvLJ1ItOX3bbdvrF3UiOvXZ302bSPYI7/8xbhpa6rQnKeojCx1DGaur/ZrJXOx2GUFSXfOqL+MPfZ1I/owTQuv9RDBrNudjVzf1axQOUxBn5TQvH/pqo7KHtshEEwVkYcnVzv1nbK5/6slAyLu7bt0Mkutnby3/7tvr9e+X798qxMaWpgC9MFdTHxxiGQkP9379XarVqbN3B7dnAUGTkvrdvq6amGvn8a86FIWujpczAEN4mK+/gIxNR67Ay9qbeKytTdMeO22Qhx4PVTyu63qiMMy7ibbLaHgnauesYraPG5F+5e5FNHm0EQ48ePfL2Zoghxd84HNiiAHIYQnH1yDKEqpJlFotJP11dXL0N3tOmQ8kqVAiGDMxC1sKQifTTbC1DJsuT2WwZImGoUr9Nxi+vRztlJXLSn7xYxqpcKwsf6tk81IZFOWxZELZfi81Cx8/E8pYutb1DO/bAEoYY4+TRyTDZjxuCztCGxBEYYgwNwyfznv7aYxM9161v6Ikk9TO0xYZayiY+XxKoqG7I3IQhCgl9SVT2UAdM+3a48JbHcxEIbqCgdxxpRT2gWoaQBWV+YIggCJUqQ6tVv3wp9/P71omWoYqKCqu+KTMwhO0xyFFa+UgUGGpgYyuqymCMNbNqAKgxJiH10wrG3NMoOSQaSeNA+fHzBgVob+cmsMEyBEOdnZ0bN+q9sOcwWrjEjAImvKdn0i1SYUjvMETNPU3xnmaKq6eGktXxy0lnYp33dAPFLNQorJqrZcgEDFU2dc2+ZpIMMW+TGcOQPfMukjA0p4AyU0U5WOehNvN9z8NHyCwUdyN5i/eOebidVbdgCUOM22RmbsQRGDK1TWZm5Pgj/8izt1VPUepCWpwaB2Fopef626qn9rUJOdRnKCkpCpFQf7/w7NnDOLEQo/GmsvKuVqtmCUOHDu16+7Z6zpYhgiCQEzdyUZp/GNq4cWNnZ6dGo2lpaeFZU03FDAwRBIFiuB68biipyaLuWxEEsW7j2squMuNYM/wssD84eia0abCS0SaEO0FWqAevGxRtpTt3b8Pn0QFKAUCLNaO12bJlC6pT1tjYSPsI3tpRAR0MWek9TYUh0dxCyRYODBkHlElqW1nnXZxjQFm+Lgk1aRkqI3clKT7UDKkXyXKthUK9D3W+M7fJeEuXHj8TG5+YevJs3LJldqiGaMe1jv1+zBRq9f9eOYcqYwiGDpU8X7GWOVnIHGaBvaTZ+AyFxN+RfPwf+dSXcznyOdwLXxIcfQNlKqKGuGMYuiK9j1sSBIH9deacdBH3hieb1vUOnzR14AgSIgjCoTDU3p5Hdc3BU2OEoczMmKmpRuNkQp6eqx4/FtBC6729Nw4NSbRa9aNHxThCHvWPCczY7EQ9g12we3tLe3tLGUPxNZqKoCCDbJY4+B9vz6EtPMxweGrmfYZ+Tv6J8uj09vb6+flhZSwemIehW9lXH7xuaHtZE3mWnrjZTBZEdNMVK1bs37/f4oYUGxIiE5NeOdn+qq5TUx9/h55gCSddLKhIMzPfwMDAgYEBjUYD0WRmVLL9I5rDUHohmbwmo0i/R5ZVIiVz3PBnQsn0DkPU3NNmC3HM1uJAZiEWoWTK2VCymhbJTChZq4ySZ4h1kiF9lVadZajlEcpFXdk0U5uMjWXIGIZoqRfNJqHW75RZHVBGLcpB8aE24TbEFRja4r0j7kZy3I2UHb4GGcZsX6l26cG8ZYgsLBp8Lkz2Y5hszCvMIErZ/N1RoFmo5N1a/7lHM9FugfmADQx5ennnD/6bQjtdMPQbWugZrVvzb7cFhfE1f1Rop6kwhOPRUjo0eDfKhcdLVPYgF2zbYciFx8vs+UimBnj5O/PjxyQkm/ycoOjE4zE/L6d/iiwuw8MyHx89LvN4Lmlp0SifEJVOTp06gOLtMWeQHO+5qrU1B6VVpHGSWp2p1arfvq2KjNyHZ3r5ciTyJWKEG+rtCIK4evXYp0/14+N1xnmJkDc3Do9H/R8/HohaUi1Sc4YhlGfoxYsXMTExePwWD8zDUFBYgHqQ9OMRqQ0qf+FyHI0D5f5B9LBQgiC++eYbtCc1MjKSlmaSUTAJ1T+RmUkRRGY3nQ0oUz4S4ZB7giBwOQ5GYqNOPyEhYUT3D/IMUWWx+zENhpDDEBWGDByGmHJPk0mGrAglYwVDyPJCkpBNcfUUGGp59IsqAxhirtVqvE1mEYZMFeXQ+Qwxw5DObYgs21YkVZIvSfVM3kVxlS4PNZnVO886GBIhy1BaAelDbfdVwrJDbBb67sIVV1fmCgMsu3JQM4swtNRtTWDGg3DFxzDZmM+lkhXrt6K8i0vd1qzdc9T/ZpX3aYZSoCu9fA/zX4YrPgYX9Hn4HFriYofa6VbBEEEQ53LkyBu65NUfjiflI/cgVzf33UfOxIuac/qmqPFim/0DE2t6T6WU7gg+4upGpk1y4fF8Q0+mdryWT32hbZMRBIHTPF4oqHR1c9+67zBqKZ/6ST71xXYYIgjiYkmtbtvrS2rHa+pQqSsBk5B86qebtY99Q0/6hp6gvbz3h3CQkJAb0OSkSiK55em5ys1teWxsRH+/EOeMptLJmjXuXV1FyAKUlxfv5rb85Mmgvr6yqanGwUExymR49aq+OhtCGa1W3ddXFhzs6+m5is+/Nj5eNz5eh/IVUTtnDOlas8Yd2YSQGxO1fXR0KKoBMjAgDA72dXNbnpp64f175dRUIxo8JrY5w9DRo0dRHh2FQkH9umnHqz1W+QftCji4G70KK9NRhp74pAvojH/QLmoZskzRHRy6hbgHF2rtHK2/kRFP6x+9jYiIePbsmUb3r6+vjzHpMyYhVb/iVEwkHhL14OfNONw/Khnb9UZV0SkIOR5MLdRqsWQszkDd09Pj42NgnMP9w4FdFEjNF6QVkNtkOu9pZBZiKFY/p9zTNRZDyf7/9r7tx87ruo//iUs9pClqODL64BYQGidBg8ZQhToqYKNviZsgsi3Zkq07Jd7v5HCGcyeHcx8O7+RQlERJthQHqp1GTIwYiJvAQB/71KJAHtqiT/W+rb322mvfvvOdM3OoBXw43POdb87MLJ69zu/7/X5rLe2evt6hlKyy4yIMJlvtAIZaWw3Nrd3E3YZKYGggD3W+9WIv74wOLwK00Fd/L7ArdnipHr/l3755NWOIjiWz3/wXTz1z9sepb/nXf+qbPqNf8p/89p+dNhM88Df2MpushhkyaOalpXdwdRhYp82Yd4wwQPnC11gDNce4/PvnXjHyGb7+4l//j+9OX1v8r/+XgCFT2oavJGv2L4J2QeRiXASX+bXhu/D16D9ol5eYSsG+6Z//fM30Zcb4Q7XKRNQLXP+Tn8z96Z8++7d/u06YoSee2L++fhBwlbn+7/9+++zZ78XQJz5jQgOaGmGSnnhi/717p+F3MItf/er61atHDH4aHAzB5/2vh3I8/fTTqf8qU4VunMjsI+nW88Uv/XOYco+vf/DX28fnDqQGcTz11FPvvvuuAUMpssqQUvg14zWeyLH/if0GmZHLzNx7DODivx2QYtOskvh15EwxAsn5rKl2i9gw1OKe7nde/UBgqHJW64BgiKuuz00oC4Zy1Hio060Xi//rw7gAaKFvffsH/1STDcP4KR1esxUMqVEJv/HP/tV/fPmZ0x/9h8W/VeDm8t/94fRf/v6rq0/+m2+kWR8729V+y9IvVYl+H4NaWeiQisMzf/LSkQc/n/3FPxoB69Lf/78Lf/nfX5i7RQrm/+XvP33w3n+Z/pv/ufDL/2NghCJ4fvGPRx78/Jk/4Vv+/7v/9P0zP/lvBmwt/N3/PnDrP3/l9/7AeJV6AUNKCfrKUy9deTDz8/+FB7FhcDO+YOgLX/jCN7/5B+++O/HLX141U1QfPVqenn75K1/5cgqdfPObf/DRRxdN4f0vfrH+62keX/nKl00hPQFDv64I+83f/I3JyZd+8QtVY/8P/3DtJz+Z+7M/U16Z+MXjM+a9BNM5CBgyCt3S0pvmxX/1q+s/+9nlAwe+9cQT+w19NTgY+sIXvvCtb33r008/ffTo0cLCQspG3QqGjBT13Mt/vPnhgum4eP+zrZUHMzDqNbWJ4JfpCwyZH/Trn/vrLkT3P9t692+uvfPZ1c0PF557+Y9TmMx8yxNPPGHac+dH2Kb+EDnfFAFcVI8MQ/OmjkwbhhbBMITbLWZ6T5cGcWxPL0OHoQFKyaImQ5kprQEzFIOhYfRdrKmut0qZlskIGGryUB+bCDzUTe8AuVgiIBGQCOxuBJ544omFhYVHjx799Kc/ff7553f3l4HWxHCVAAAgAElEQVQ+kH/xF3/x7LPP7uIv88ILL/zsZz/7q7/6q+PHj+/ir/E5+dEYDMWGod7d0yOoq2ebDO0iGKLV9Q1DObrahj4n7135MyUCEoHHJgK/8zu/YwrIHz58uLvmmKeffvrXgp2p9v/iF7+4WxH+xje+8cknnzx69OjatWtf+tKXduvX+Pz8XGQYmu3QbrHVPd00ojVjoF5ytNDStfs1szh2EwxNL2+bDkvJgrJqDzUeX8/Yhlzrxc/P21f+UomAROCxiQB8/D948GC38NCzzz67s7NjOKrnnntut2IL0PC9997brVDs1t++Wz8XgaHAPX1ictFqZHg+azSIwwyrN+0Wz+uRZE4jY93TVaVk8xu3itVkQwRDe6OgbAUKymgfatx6MbINmf/O3Xozyc+VCEgEJAKDROD555//6U9/+ujRo9XV1UFep8P3Tk5Ofvrpp5999tmjR48+/fTTV155pcOL9PItTz755PXr1x89evTJJ5984xtBx+peXl9ehI2ABUPnZwPDUA/u6WAQB+ue1iNab8yu3phbu6mOdXXMw7z6jduqrl6V1t9d3Lp76eq9S1fv1cyrb5PJemk1VFldr4dy2Nn17FAOYhsy1fWVrRexbYj9n5aTEgGJgERg70fgO9/5zv3790dv1pmfn//ss8/+/M//fH5+/qtf/eruBuqP/uiPdnZ2BAmN8n/BFdVjMMTNZ8UdhmauNLqnw0EcA08lqyslQ02Gbr3nZLKg1ZCd2WEm3YPYhpmhHgrKShPKGA/1/OrZuZWzc927DY3yDSQ/SyIgEZAISAQkAuMeAQeGAo0MjyTLdBhShqGW3tN9uqedZwhjGINq3FQyBIZuv98JDPU2rrViKEdftqHzs0fOzYz7m1J+f4mAREAiIBGQCIwyAgoMVWtkp2eWzhhaSHUYWsaGoYkRG4b6AENBE+oBq+tjpWxm5bqrru/Wh1qRQ1gpO5UcUjZ/bMKNr9dDykb5BpKfJRGQCEgEJAISgXGPgG48jTUy3GHIjyTLdBjihtVXG4bWnGFo7eb8+i11dHVPx02GcPtpygwN1mro7uKWcjPVTGwlfahZ2xCjlCmZzCllM1e8bag8pEzN5Rj3N6X8/hIBiYBEQCIgERhlBJqncDTPZx3QMKQM1GpKKzJQV5aSUTC0ptUyM6s1D4awbQg82+Y3uKTt3PVgyJFD2xevBAX2k5c3wUMNQ8rO1w0pKxTYnxcwNModJD9LIiARkAhIBMY+Ap01MtphSI8cvXBJjR81I8nIsPq+DEN593SqlGzt9vv7UmAoX1DWk4eatw2VJraGBfYzS5VK2di/K+UPkAhIBCQCEgGJwAgjQMHQ5ILrMJTWyAojyViNrNcOQ02GIV1K1hUM1XmoFzZuq5YA67dUewDdJ8BMbK2zDdGJraTAns7lqFDKRvj+kR8lEZAISAQkAhKBsY+Aay80d2xi/vgFW1R/cmrx5JQHQ6eh12JWI3PtFpX+42ihrVyHITAMrWvDEOow1Np7OjIMoVIyCoaaquszYGgg2xCd2MrYhrIF9nmlbOzflfIHSAQkAhIBiYBEYIQRcGBo/vgFBYYcLaTA0KmLl9UxveTB0KzqfaM64OiKet94WpeSlTWypg5Dqt1irWEoB4a0UwgxQwEYai8ou3qvq22oYkgZU2DfrJQdm5gb4ftHfpREQCIgEZAISATGPgJoOGtdHVlJIzOGoakl1WnZ0UJXBzcMQfvpbu5pC4awbWjl5nv6UK0XTYciXF3f3UMdKGWqut55qDMF9j0rZWP/rpQ/QCIgEZAISAQkAiOMQMNw1vbG0w4MbU8vb087WkhP4bg+izQyNYWjrqi+3j2NS8nWbr/PgCFcUAZ4CPdwXLp2Xx3bOzUe6pRtaHaVAUO1BfZdlbIRvn/kR0kEJAISAYmARGDsI6DB0JA0sk5F9Ru3C4ahTu7pAcBQH7YhRQ4te2ZIgyFlG5pa2qoosG9Wysb+XSl/gERAIiARkAhIBEYYAQ+GUnVk07rrtG88bUdweMNQVFTPa2TL14xkNLt6fXb1BmaGErRQH4Yh557uGQwVbENaKTMFZYYZCpWyqwQMlQvszZyy6u6LI3z/yI+SCEgEJAISAYnA2Efg2MScsU4z88jC4azeOo3c02QKB1dHZgxD16ZXODBkJtVnNLKKdos593QIhh5az1DgoQ7GteZtQ7bvYsZDzRTYN9iGmJoy3Ip6dpm0ok7VlI39u1L+AImAREAiIBGQCIwwArqivrGOLBrO2lhUr5gh044H3EL5KRyN7mlUV+9KydZuP9y3dpsFQ8mCsgYP9eadhY3b7bahqgL7czCXQ4Mhg4fS3RcXjk3Mj/D9Iz9KIiARkAhIBCQCYx8BC4a8RrZox9SbonozmdVrZMFw1vMLa4YZ6q2oPmsY6uaeXtXuaQ+GuhSU9WUbWrk2vcwX2NcoZXho6+lp24365MVLqiXU1OKJycXjkwuqVdQFAUNjvy3lD5AISAQkAhKBUUYgqZHh9kJRHRk7nLW3ovpOHYbwII64lIwHQ7UFZRwYStqGkFKWtg2pOWVTS95DDTbqCe3AmtBDyphW1HVK2SjfQPKzJAISAYmAREAiMO4RaO612IdGZt3TpqI+YRiqnM9aaRgCMOSUslvvmYmt0GoIquuxbchW18dgKGEbSillbLchwEN1Q1tpTZkih3RbTEMOmXaZhhwa9zel/P4SAYmAREAiIBEYZQRgBMeJyeQIjjO28XS5jsxN4VD1UvoodBgK6sgSGll3w5B3Tz+MwFDgoR7UNrS4eWehwjbkasroBHtTYM8qZTXkEFbKlFh2YWGUbyD5WRIBiYBEQCIgERj3CJARHNYwFGpkg9WRqXaLDUX1CY2s2jCE3NN9gqGYHNq6u2iPOxQMGaUMTWzlCuyTShlTUza/2mSjHvc3pfz+EgGJgERAIiARGGUETEU9oYXUPLI663SHOrKgw1BiOCuvkaXbLaYMQ+Ce1szQHUUQmXbUq44Z6m4balPK+AL7vFJmnEPn5lfVgWvsSw2HRvkGkp8lEZAISAQkAhKBcY8A014opIWURmYms6bbCxnrdJVGFhXVm5p09bipGBYynDWvkdUbhtbuPNy3ZsFQm22ossCekkPrt+aCIWU30nM5OtqoVY29qylTDYdUWZmqKTsxuTjub0r5/SUCEgGJgERAIjDKCPgx9ReDMfVnNPvg3EJ6TH2bddoNZ3UjyaoaT1eAITw9DOarrty0rRN9HZnXyN5XfBADhhw5VD+xNTGk7K5CcG22IT+ag60pSytlK2fnlos19qN8A8nPkghIBCQCEgGJwLhHQAtk7dbphTUnkG2EtBBMques01VTOJQV51LYeLraMKTm0JsqMaWDuQ5DCAw5pcw8jQrKrIcaasow5krWlOlfVDuHAjBEasryBfaglLFzyvI19ilyaNzflPL7SwQkAhIBiYBEYJQRsGAopIWsYcgWkXlaqLm9kKOF7KR6AENkTH2skYVgSE2ONyPkr93HKCVihhJg6A4wQw4M4daLrG0IF9jHShk7l6OSHJrWrRenlzM1ZZuWGVpcD8AQOIdmI3II1difnBKZbJQ7SH6WREAiIBGQCIx9BE5OFWkhvuu0Y4Y20/PIVB2ZGUlW1MgqDUNZJMTWkVmNzMlkw7MNDaCUATnENhxK2qjTDRjH/l0pf4BEQCIgEZAISARGGAEDhkz3PlVEBnVkLbSQs05v5doLAS20dhNGkln3tLdOM5PqqzUyFgzpAjLDDK3rf3RBmfNQt9qGuAJ7thW1V8oqCuwBDJUbDtXV2I/w/SM/SiIgEZAISAQkAmMfATXYCmtkUUX9WVREBsPIHC1kDUNTS1v6yPZaJGBo41ayjizWyJxMlmWGkEbm3dMWDK3febjPgiGnlGHbEKuU4R8GKh31UIcF9pVKmeu+mJlTppSyvI36rBPLTs8oDOtHt05dGvt3pfwBEgGJgERAIiARGGEEPBiqoIUADHGTWcE67erIVmo1MlVRX1FHtsQZhlJ1ZN49rfkgBgwNaBu6vL1jnUPQerEPpaxso55fPVuaYz/C94/8KImAREAiIBGQCIx9BMq0ULKifgBaiJ9H1rtG5g1DFgwxSlkwpKxqLgclhxI1ZfNoYuvc2s2mmjKY21omh7gGjGP/rpQ/QCIgEZAISAQkAiOMQP38DaCFnEZWZZ2mdWQ5w5CuqO9TI7NgaP3OwzQY4mxDbQX2gyllUFaWazhEyspwN2ptoyY19iN8/8iPkghIBCQCEgGJwNhHAFunWxot9tZeqLKOrKiRZToMRWCo2jaUL7AfqlKWm9sKNfZzy8o5FJFDY/+ulD9AIiARkAhIBCQCI4yAAkPYLTRzhR3LGtFCe1ojiw1Dmhm6+wHxUPdoG2JryvpUylrIoRG+f+RHSQQkAhIBiYBEYOwjQMFQp4r6qaWWOjLeMMRoZIMV1QeGofW7H+xb12Co0ja0K0oZ1NhnGg6dX1gjo1vj6Rz79+8f+zem/AESAYmAREAiIBEYSQT2799PaCF2LGuKFnLthQZDQn3UkXmNjCuqVzJZDgw52xBbYI+VsrjAPlLKBppTBmAINRxCNfbV5NBvPfnlkbx/5IdIBCQCEgGJgERg7CPwW09+2YChPtxCrqLedZ1usk7n55Fhw1A0goP2WvQamZ7PagxDDgz1p5R1qymrLysbhBz62jN/OPbvTfkDJAISAYmAREAiMJIIfO2ZP/Qtp2eudKKF8l2nr6uK8rUbc7oPc7rx9NA1sgAMIaXsfc421GloK64p66/hEK2xJ+RQoufQi68fGsn7R36IREAiIBGQCEgExj4CL75+yM5kNUhodvnsnB/Len5hrSSQRY0Wu9BCQXuhS1fvXd7ewW4hTAtduf5OxAyxjaeDonplFrIyWco25JSylZvq5aCTI/ww6EadV8o62qiZ0a2qpXcTOUTKyoQcGvvdKX+AREAiIBGQCAw/AoQWaioic24hAEPb08t2LKuZzNqkkV3SbQtNP2eDhFJgCMAJwBWDXlZN68Tb76c0MgWGNjQmMjbqNTKx1YGhom0IT7CnShkmhzbvLJhj47afU7Z+01BkAzVgrCOHTk8vPfXbvzv8d5H8BImAREAiIBGQCIxrBJ767d+lAhnQQvOr5+ZXh0sLbdwutxeqmkdWYRjSEGiDAUOu21BGKQPwBcyQB0Px0FYPhtpt1J4cUnb0hgaMpOdQOMr+a898fVzfofJ7SwQkAhIBiYBEYJgR+NozXydFZIPRQsY6fW26i0Z2F1un+9XI1nTjaaORUTDUahuqrykrKGXDIYfOcdPKzPTWF187+LVnvv6lJ78s9fbD3FPy2hIBiYBEQCIwBhHYv3//l5788tee+fqLrx0kSEj5pjUtdK5iQH0kkFUUkTWO4EhpZGAY4jUyX1RPOwyt3/3AgiGrlGmUNHSlbIQ2ag2GVpThy42yJwM6Tl68pEbyTi2emFTH8cmF4xcWjl+YPzYxf2xi7tjE3NHzc0fPzx49N3vk3MyRczOHz84cPjt9+Mz0oTMX1XF66uDpqYOnpt4+NamOkxfeguPExIETEweOnz9w/Pybx8+9eezcG8fOvXH0rDleP3rm9SPmOP3aYXu8evjUq4dOvXro5CsH4Tjx8tvmOP7yW+r44VvHzPGDA8f0cfQHb6rjpTeP2OONIy++cVgdr6vj+68fCo7XDn7/tYPfM8erB7+njre/9+rbL8DxylsvhMfzLx8gx3dfPuCPH7753ej4zg/f8McP3vhO9vj2S6/3cbz27ZfajudefK39ePW5F+WQCIxdBJrf6q27SV/fw0bO5wr1LMotceZRZ1B2Ionr+ZcPkOSmvnSpz2RCnRJthvy+zpZB/nz9kMmrJse+9IbLum8eMXn4BweOmswMidrk7ZffPm4y+SsHT0B6f/XQSZXwD5+Cj4DXj5y2nwtHz8CHxRvH1MfHm8fPmU+TAycm3joxAR80b5+8YD59Dp5SH0aHTk+Zz6bDZ6bVR9VZ9bF15NzM0XOz6oPsvPpQ08f88Qvz6sNucsF89p2cWvTT6V3L6VQ5/dA1Mj+jPm2d7ksj0x2GNigYqiqwpzbqvFKGGw4VyCFTWTfg6NbIOQR4KO7BaEaujBoPOUik8JCFRDEewpDoxCsH85DoqNqBIR5SuzSDijAkes1AIouKWoHR8yj18Lnph2/i/FVOdhFy6gMq1aTpNiz17ZeaP2DasZf8CIlAlwjsFpQpbtUO2x9nj1SGAQAUo586APQ2xkDfMxjotYMYBlEMpBMs3IIqJKRgkEJCWRhkkZCGQQkkpD8XLBLSt9C7hYSiIrKVcaGFlm88cMxQro6MaGQhM9QJDKWUsrKNWnuoB7FR5yvLSEPqgByaWTJimcVDSXKof34oQRGdfv0I4oc4ishBouPqJoOliAgkelPhoRwkev2QufUJiSKPigYCRi8fSGYuAo/QrZ5KfBEYGvxMMUfLBRIBiUAxAoPvROYVyPZHX2YSCKCf70a8tcFDFQyQYsQtBnq1hQpCbNBLhhByMIgiIcUGKUJIs0ERIYQ4IU0IaU4oJoR64YQULaRUjjwtZD4NUwLZ2bkADE0srE0srrvp9GoM2YVLPc2ob7FO46J6sDI7JKSs01zjaV4jM2DoQ8MRJedydKgpQzbqVnLItGCaXb0xu3p9ZkUd095GvX3xSg9O6gHFshq9zEtmRC9rlMySqlkKEhHVzEGiHCpyd0IWFXmuyAMjIJOZLKNlNfaeDOesXGrLC20oP+LbRLseAniKU3bxc0IukAjs8QjE7+qhnMnvVvRsU0LAmYRNNam8BInLqWAUAHkeKE0FvfjGYXNjCVSQhUGWEFKOhSwhZG0POULoiBIKYmmsizqmBDLl6NjjAllNo0Vsnc5X1INbCNFCFXVkSCPbuPvhvo27rWCoq1Lmy8ruLJIC+41b8+u35qpt1K2VZWfTTuqBxLKsf4jFQ4GFqFkyM5sqr5ods4RtAhUVHUUBXdQfMAoENSyuZTmktoyZ55xQIg5A1Ujg1FA+eOQ3lwj0G4HUHkmfb92huetJWnBfsuiH17+M35HagLIAKMRA349dQTEVpFOrEcUqYdArB09ahxAihF47rAQBZRLC0tjRs2ASYpGQMgkVfEKDWoUigUx3WWwpp28ey5qZzHr1Xk17IQBDiBbqCIYUHjIFZhUT7CkYwkqZr7Hf3skpZUUb9dqNoZNDRCzrZqYeAA81SWaEInKq2QmjmmWEs8BOVEMUGc91TBdxwCiQ0l59O3V/lkpn5Dy+/2PWEYGUS6xdLw5wUvozQC6TCDwGERjGDmJe08EaZlMndC6SGWqgzwu6FiTDAKVIIOMNyruCQioo45JO6WLWIQR26ZQ0BkjI2qWPn29wTPdhmuaRUL9FZKs18zfarNMcGGrSyD4EZigAQ6jA/qHtNtSXUpYhh9bryaH+xLKZpVPTS1YrvXi5o5m6fzx0BixErx0+rarMnIsoAYmskSgJibSdiEVFmChiqs8GAUZpbGQwU5zvms6wibVwsitCYvK7vJRE4HMSgSyUYXdc00aOL07dU9nzjvgxEhhCPwwDlAdAngd6XVfgFuQwa5FOsEFZGMQSQqw0hk1CIRIaEid08uIl7BbqsYLs4hXfddo4XmZXryuOg0wi648WqtfIIvd0CIZaCuwpOZSqKcuRQ8Vu1F3JoQuXNpS3a2FtQk9OaXBSh+RQQ7F9Bg/hknvkH7J6GViIOMmMQiJVeK8Kzeoh0Q/fMhX4Be3MO4pcTX4bMApII+80quSNUrkvzpL9nmHzeOHk5+TzT/7MxyYCI4cyxU2a2u/J8wj98NDHOaDB9Wir4iMJLCCBHADydfKsIsb5o3/41jFUM98KgyJpDFWNeWksRkKmgcupSaaKvpETOjG5yNbSF2kh86lKrNNmQNbUkhqWVSOQUTC0cWvBVFNpSLC4eWdxq0wLYes00EIIDFFaKDWFwximtVnIeoaQbWjgmjKvlCVs1Itbqqek+oOJc8jYhkrOoenl7YtX+iSHgsqyEA9B56Ga5kOZ/kPUP+RaEIGFKCGZpSgiXHsfGYm0txqzRCwkYokiFhUVgZHvXRR0MPJ9jCCFgZ+RLsLmRsm0WHFZMRf3ckEBM7V/AskLSgR6jEAvb/LiiwyyT+n3IsSDkwOkDreAViCuX5rOOR79FAEQwkDWFh1ioLwiFsMgVy8GzeECexDoYt4hFBFCrDSG1bECJ1RCQscmqroKFZFQ+0xWO4wsRQtlZtQPbp1uqiNzYOieIoiMjTpnG+qqlJXJoUyNfSM5VJxmD22HcpX2CTwEnRgzzRiTeCjkh97KUES4MaNrREQpIquaNUMiFhXhEgno3BiU5aMujklg5Ar1qf+agUcBdeRynKl0Re0f2eRYAYZokm3/luJngFwgEXgMIjD4Tql6BXYju5Nk+4dfItyT4X4S6CeWwAIGKAJARQw0MAyKCCHwSrPSmOusCHbpt7twQnNDRULN5fSxRga0UKmivth1GtFCKet0qqhe4597H+7bQGCoL6VsiOTQMMrstZO6hh8q46FKvezkBYuHWiiiekgU2KtzRFFaPkMtreH+yRqMkJSWw0Z5eMSDJJz+LDwK8yNzEt9H1q7bEVJV3peXlQg8NhFweKV2T1H/MrNV0V7GOz1cm8wQPhaJH6p/sfQPB4BYDIRdQWkM5FsHkWKxiA3SMCgihFQ3xQgGYULoLVQ4xiMh1WM6UztWhYQqGwu100KFSWRpWijQyIoV9aCRoTqyLhrZhgVDFg+p8RxBt6HE0NaGIfasUpawUfMNGKvIoatGsDTipW4AtWGdQ+me1Bly6FSFmTrBD3HzOsKRHVgyy1FEzkX0xtGzrle1Us06QSJddJZDRdBB1c73oCJahI08MAqxUT08ChJcmPtA+48aQoZ5004UYU/mczH/bH3elyslAo9HBBBA4TdF4gJ202VPpvc4SQXBl2SgEPrS1n/puUNqbQhs/Qj3bwztDaMzfNtoxhnNYiCniA0Kg0AXYxxCmBDCJfSJaRvpfkIVSMiN3ehFIBvILTQ8Wig1jyzsMKQooRAMBTVlakiZBUOpmjJro4bOj9hGXUcOaatUq3OoRA71IpZ1w0NsP0Y6wgxLZtUUUT0kCu3VJ03/Uz/jzPRFDSedIfnMjTwztkHTUSNuWRRho8Bs1ASPUHaz/e9dVX+QE6OTFDClU21wZQ4/ZVJ50+eEXCwR2IMRyLy9009VbqvwsvzO9c/Gez99pgr65Lkf3x/Iox8ySsxjoLdM/2hljk5jIF0wryvFqtigtC5WRQgl5o5xo8dGhITyM1mnV661uYUi63RAC3HDyIAWQhpZgRZi68h4METJodsP19Txvq2xv/Xeqj5Mo2sgplg8tHTtvj22d+CvMg2ULm3dZUeVxeTQXGFaWZuT+vzCWltxWbt/iMFD8UhXjYc8RTQKSMShIg2JiNU6HATrdLQQG7H3W8RvROFRhJBMdrMAKJ0E2y6IMJPPvKWnAswUJnd5SiLwGEegfo8wV/a1c/XrUMRjWB9E+fhm0OF0sDgj2cmpHP1DVDCT8Wx1WAkDOUWsCwwCQgj3EGJgkCOEYmns0JmLZAJrKxIihfQ1nFCTQFYup48H1Me00NbdpkaLCAllR3DcVvzOujn0ZFZdSmYNQ4oZ2rz3kYFFxkNNwRBRylps1LXkkB5Ru7B5x9TXzetu1JmG1OkBHQOIZbPLpr/C6bgTYw4P0eFl8Xx7aqnGkllEEaVUM1JrZlkizl4d9iWK6/Bt6RlrKjLpAPrK44W5f9KPTlBDpFFSUzMEkklb7hGz2XQNjDe3aENFPeboEopiPiHkWyQCezACPW6KlpfiIQ7s8RDr4Jzg1a566JOgf3A2g7UHQK0YKOwb5CrFOIt0yAZldDHWIUQH0ceFY9E4+qRjeupSBgmdmV0+O7t8dk43m25ssZgRyGZWrse9hXi3UJ4WcsQKUZ+AhQFehhSRuYr60DrNaWSb9z4iYKijUrZy8134tfCvO2Ry6BpbZp8f4Jonh9TYsmo8xNTbn58N8RC1EIFkdvDU1NuubwShiIYAiWpQkfMVOWsRyxglBbWQOirAI05lw4kPJ8TCGlJqp8WuAayWzxL5JSUCI4tAAbgUd1ka2ZCNjPd7sIbkkF541ocSP7Y3dCx+MQDIDlK1QhirhVEeKFLEOsMghhByHweqjRA4hKg0Ftul1RDWcALr/PELC8cnF05MLuJ+QkkkNHOlAxLKCWTL15IC2chpIQeGtMClnT+KGdLeaN9hSBuGeDA0bHLIKmWhjTruOcSSQ4nprXViWZ2ZejA8NHcU4aGcZBZRRAQSHUiU31uWiNirLUsU9CV67fDpiCjKoSJEFyFgVMJG9fCoFiGRJOgopSBjZk+StNvxy2LelwskAmMagWrIktk79fvRX0m2dsWXAe5phz6cB8gOkw/NQIEnugYDORh0hhkulmWDGBgU6WKYEMpLY1VIKMMJFZFQNJ0+1WIxIZDVtZyOaKFLV+8Za82SnutlWBXMs3BuobCiPmudXrcymdfILBjilTLafbFgo+5GDrENGGucQ6xYVj/AtT9+aAHzQ3GJGcZDXjIDF1EGEp2Y4MvvddPqIiTCRWctqMhai0JghLCRsxmleCNzB4ZktdCRbdu5+po1muzePBrL/0M5k4VTPn1Hl2U+HuQpicCeikDmbVx4qgKmDL4r473vz0Ci8Atopq8WwPTEC0788vQPYoAoAGrBQL5ankybt8YgXTNPRDELg7h6MbAHMTAolMYKJqE6TihvFTo3v3peD29Q/aYX1ycW1y9cUtXZ6a5CV2MkxAhkJVqo90aLTbQQC4YCpYzMKSM26poae9Y5NAA5dCMih3oRy1aUXDq7fAabh2r0sskFxUlemGdbEIWSme4JcWb60JmL9jg91aCakY5EVZCIluJnUFFUg+bdRWE9GgJGiDTK+I0S8AhSmyUNQRkAACAASURBVDMh+aynz4SeJJ8lufOD52V5BYmARGCQCOR3KH2WbHb/JaSFYBEjHjgTQB9v/UnRPxkA5DzRnBbmeCCHgbhR8/UwiLEHRboYIoRCaYyahFDhWIyEOE6IRUJn51bO1VmF2gSyuMtiPIksTws5t1Bp/kaWFgqt0ywtlARDjUoZHVXGz7Fnew7Z0Rx0OkcncqgglpU7D/WAh0JLdUIya6OIdK1ZzBLRUR5IOAsd1prIDRsUBajI97O2IloCGKVIoxAehQgJclZxEZFJQTb8gU+XCfCUuYDDTzQ7V1wzyEeFfK9EYLci0OGtzn9LZouVnyLbOfiymBzgggD6eNNPAH3y+tcrB9VtnpnwqB/NwEc9DFuPxDa5ER79ePkjSUUMwyBfKaaHixE2yMKgGl0sSQgFJiFsl67xCXFIqMY0naGF1HSs6eVg8sZeooWy1um7qr3Qxr0PN+99pMHQjvrHKmVuLocFQ5xSNlJySFeWzeFpZWEPxo5iWcY81I6H8DzXFEV05NyMOQ6fndHHtKqQDFmig6en1BEaq4mRKAmJooGvbzBjPTwqSopoHDAqYqNIU8vBI0hnkOA6L0r4KUi41Re3g63yJ4G8pkRgb0ag2x7JfVfn7QzfCCkiWNRCH4b7CdEPZYBwiyCDgRwASvNAJrumBqz2BIOgoWJWGgvs0nnHdCsSGlwgi2eyzsP8DV1FXjmWdSC3kKaFovZCH9gpZA4Jbe58tG8TgyE0mgPmlFmlrFBjP2RyCOOh1Ruz6rhuGjpNryjv+vRyLJZVVdoz5qESHor7MSI8lJDMWIoIz+7QLqKUatYEiWI7kQFGqo21OcwtjuaKYlTkPdcBMCqSRlRW4xBSBJIgwSErEs6AkB93fVGNpXKfE/IiEoFdicCubx/4BfDuDtaQCuhC9TzEh1Ht0aPJPMwjQ/84CSwGQEgIcxjIJUy4sbQLwECxMageBtXpYggGYUKIl8YwEjp18bI9ppdOTy+pEumZJdM+BtWOMZxQRVchfjR9WEFGfdO0nD7sLdTNLYTaC6UaLTK0kNPINBhCtFAODNWTQzUNGL1zSJvDjVGccQ6Fo+xbxTK20t6438ttqedX/RjXFjx0ckpVMFo8FFiIsGRGq8y8sbobJOL6NFrhzNmJUqgoJaKxwCiBjTDPzKQhw0WjxxMoeak1zm7hGhq/phcJ5BTk1k7XQMqWhUTgcxKBwXdN8hUorGF3NJ8KSLrQXxbyDII+aG58Fv0wACg2AzmK/Q2MgfIw6OSFt9yBB85bl3QKBkW6GEJCc7hqLC2NLZ7EJiE0bYMioailUNE0nbYKNQhklBba0iModAdmAAPdishIeyHTJlr3i9aDNLK9Fo0y5sAQQw65OWVaKasjh96Fxkcdeg7RsrJ8D8aCWJYxD20aY7wxyU9oz7wnh9J4KK63R/zQJcBDiCKa5yUzhiKyvYhSqllOOMvbiWJUFPqKPCrylfnWc02GoIGC/qqW1e3jISe320UrQjLZjeIkyIMhSOKTJrqGTbU9newErZIfEvJqEoHRR6AKmnTeL8Xt6S+ADc4tCogncvyEuMckIpSjIHHBAklgjgFyACioC0NCmLcEsRhIs0Fv6eJfwEC8N0jDoEy9GKeLsYRQQhpLICFLCAVV9AEnlEFC6QqyglWICmShb3rBaGQKDN1tooWgoh7Ahl7YwRhqPMbt910RWRstlAFDqqYsYaPuOJ2jB3KoUSzLVNonzdQd8FDYohrhIZDMGIoICs0cRTQUSOS5ohgYwR2PW0Q6Ws5jBMklgEdUWfPiGty3IbqoKvGh65OwicuqzRcjXOUTt5yUCDz2Eehl+2RfpHWn2+shaaBFeAOGcA+rfJk0hQCQyWneCs0AIN0lKAZAQZ388fPKKK1bwfUBg3y9mGWDXMkYIoTK0phvq4g4oQ5IqNUqFApk2sSydmNu7aY61tUxj5FQIJAFA+o79xbqhRZCYEiTQ2guBwJDoyKH6LQyTA6FTmo8sGxQ81Bspq7EQ9NLoMuedHiomiKyqlkEidLl99pbHbBE3IAz77BGpfhQ4PDm8XPqOGYPQ/yqR4eHYOGBUTVpBPAoUNYgW1EaySS1gEyClIcAUMc02usrNOOq7AeDvJpEYLcisBd2UwbocDRPRPaYuy+cbeI1Qj8M/ZMBQDEGguTpF6YdrqGCXNOgmArCophlg1w7abZsPoRBOUIorBpjpLFTzifULxJix26ESCi0CqHGQlgg60wLgeKE3EJhRX09LRTWkSnntDVQ65WvKSvbqHeHHMI9qTEeMk5qVFkWm6m3ppbUYfxDFy5RsSytl9H+Q6CXnZ5eOsXgIVYyoxSR780YqmaOJYogUdiksQCJiHaWQUV1wCihpgWCWkpWI3mK0kgFqJQDTICc2EWvYGgPfYTI3yUR2AsRYDddxcmQ18E3SJAKwgVJIPGXIe45rb+so38cAxQDIIYEcjxQXCpfBYOgt5yftKrYoBpdzDuEUBsh75VmpTHtmOaQ0AruJxSoY4n+immrkC5acnPpc7X0e4YWylinq8AQtlGPwDmEySE8oCNwUmOxLG0eajVTV+Eh3JJRo2+KhyKK6PikGhNjGjNyLqIURcSpZrjijBThxyyRcfC52xc73KMVGHGkUYCNAt4IcpBJSfYxzl/5M0nABFkS59AhrnnWqiLjyzdKBPZ4BNKgpMcNBRs2scjngfjZCPdAwnELV//Fcz8I/XQEQIgHMvYg4o/GbNAh3VPXt9g1MMi5pCkMyuli1iEEhJBHQhfR7FWQxoaMhPJdhbBVKCmQ4S6LAw2oz9JCfKNFX1EP7YUMEgqZoTalbKjkEOrBWCWW+Up7xA8ph5c+rsbmIba4DPCQt1Trvpxn5yw/lGxRPShFNBAkKhNFHYARSxolsBGFR0EBv8tTqp4/AEnwZZz1Op8pA6lEXm77xh4/MOSlJAJDikAvb/XSi3TeqvE3QkKIFjiH6DUCPUbQB32fLnQJGFsIZjwDXvwyNqCYAYoAUBUVhBQxK4o1wqBWQgikMVw4hqroe+GEsmM3cLPpRoFsBG6hgBbCGpmRxahMxtSUdXMODdBzyE9v7REPKTBUhYeQf6gGD+Uks4giyhirnWqWhUS6Aj+oOIuIIhYVBT2KXMGnNf058ZvJCDo1WI9RymlkEk3kNyL5KLAfQRazvY6iNJfGTDhFxplUzkgEJAJ7JwJ4t6bX7Pbn4U6S7MH5B0Eflvvh9a/YDZ0BQKh5NOaBYldQiIE4USzBBmVhkHUIMV5plhDCJfThtA3cTyh2THPqWI9IiPdNX0YzWWuGbxDfdG0RGUZC95RVCA7ddBG+hlbUyDaUVsoGJofYAR0eD+kmBJt3Fhw5BGJZwjzk+SG2E2N3PFS0VMMUsxqKiKpmttZsWJDo1OTbTkSrAkaclGbQEouNjB3be7EhH+EklV3zaKkKNrHJlOef0hm5y/V751NHfhOJQByBft/t6VdjN2D6JGxqbkFuonJfQpJxCygKsQtz/6YfU3d64ByAO0NcGB+oYCEAUun01OTBU2pagBkbkFXEOsCgtC4WOYQYQqiihD6FhNKF9AESCk3TYfkYcEJFq1C1QAbl9MQ3TcBQprdQkhbKgaHdIIeWtnfiHoxF89Cw8RBIZufmV+2hxDJzqJGuWDLrQhEVINHsUe2txuVmzl6t7UR1RBHliqqBUVCVVgmPQgIpCZLSWlsu/UVwqgChuGzb8C054iqd6+W7JALjEoEBN0j225s2cvJiB3TwjVYG9CRlL0T8BMXwUWegWgDUCQPli8UcG5SCQQ2EUJM01oETCpFQonyMRUKcVYgVyHaFFlKeoa2dHwFNpBYDk0NklP3KzXehIg5PGFmCabQODF3e3oE2lA4MWbGMNVMn8ND1oNhejekIisvy/BDuPwR4iJfMwi7VFg+lKKKUajY4JCqiIleT3wyMXFWauXOCGym1AH09vQhoJORAoumMS3k4/SVzZQSP5EqJgERgT0cgu9njzODPIKYnJ3XhdAQeAFdEEjcEAirI+qAzDJADQBVyGKWCsjAIuge1waAcIVSUxmjhmB/CitUxppB+WU2+MrXbs6vqc1bNxYKWQvmuQg4J4RaLgIRqBDJCC6n+inDcfn9wWmhr50c8GLJzW6vEMvV7mLaP8Mu1DegoiGU5PGR6Otn+Tms3Z11xWT94iLUQecmMcVUXINHUJdUufWqRtiMqQCLtJepAFDlTkR155gbBGoLXkL3B48kLkBQgTdAFyiwBPDKpByej9JripDDT+Qzo+iGlzgSYKZtnm68UpCUReLwj0O9+Qa+W2q3MebLxwy9r7rjUNQj0mLWXvTjrD6V/mgBQaIvOu4JiDBR2UMzBIF8v1qSLWRjEd5dOSGM8EjIuW/3oJtJ3RUKprkI1SKhSIOvoFgo1MguGOpBDtsz+9kM9/sPhIUBqt9TgNNwwu0gOgViW4YeUeSjyD+0WHmIGmbnC+wrVLGhHRLzVrgKf8xJxkIiVz6jVuhUYhYIabzaK7NgMh9QCklLprwCewhwaXFyCU0yClm+RCEgEMhHIbLfsU6ndXXs+D3rSuMcXf5mbPZPZokfrAYoZoBQAstVhDA/UBoPC7kEEBtUYpZEupmAQ20moRySUainEFtIjJJQ1TW/vgFKE5SOADRhLBFYhPX+jF1qoAgxVkUPKSV1JDi3feID/WgjBEhrg6vGQHuGmx5cgM7XDQ/Mbt9SxfiuFh/LNGNN6WdiSUfNDjGQ2CEVkVTMOEqVZosBhXYOKWAXNtP8yPTAMVxQyRryaBrmjhj1KgCTqQ4qyW6UAV5s909RU/hUCOJXN73KlRGB8I5DfBSN6lk0C6GRA8yRcPoS9BnpbLSBxRQuPfioAUEQCdcRAGW9QHgbV6GIWBrFVY04awyYhsEtjdSzPCRWRUKLTtENCrGm6hISIQBaAofaW03F7oc2dj7Z2fpQAQ0XnEB7QQcih2+/3LpY5/9Bw8RD0p8YtiLyFKC2ZlSmigpGoGRK1oKLAbc3QRSxj1BUemTREclPuSyS6MVlPPxvT4FVnuiKhEX0GyK8nERjrCCC8UrUf9fWpPR6ch1up0iIAPVnWxxd/oRIwUwjmPUARA+QBUEgC4X6JR87NVPBAShEbFAZFlfOEEDqnW+JBuc95N4N8goFBrDS2hUxCqHYMqWMNSIgdQOaQUG8CGUcLrZsB9Xc/WNeHGbG6cfdDddxTB8yox1bpAAzllLKu5FCzkzptHmLw0MbtBX2w/JAyDzn/UD0/VIOHgCKCt51aZAvNqGpGyu/rWKJYO6OQqMAVOVTk6CIeGCFsFDiNmuCRuQlDHFIzSCrlQQWwKoBU5pr6DC5XSgQ+bxHIbJyqp2r2b/U1TaAnqHvPQx8O/XAAyJJAJQykponFriCEgRiLdBUbRGAQVM47ozTRxdghG4gQqkdC26r2yDmmMRLypmk0h9VzQoCEnGn6klZ4oDrKFI8T03RFBVnYbzoYUK/tOncerhkkdOdhCgmxYMggIc0M3VcEEQVDaXKIaTtUTQ7VVJbVmIeY4rJIL+sJDzVIZg4SLZ/VhWZM7b2miOxQs2ZIpAacIUjkHUWVqAhZi6qBUaipmXYacEdlFybjuMcML02fitASk/WqM2aOfxrGiwwGxao+UeRHSAQ6R2AY7/mBX5Pd4MzJSNKiqcNdEEhdSO0K2v84SwCejEHWh89M2+OsngupHtXgsBgARTxQEgMhGKTHMem5TCcmF+HQlTS6pCaaqmFFMQ2DfEdpCoOcUdrpYgCDrEOI4YQ2OWmsjRNqRUK58rEeBbJo+EZlbyHQyLbu/2jflgNDFA/hGvtqcsiah6iT2pupwRKFnUNXrr9TMA/5Tozp4rIe8NBVM88VKCI90tXioZRk5gvvCUUEtffEWF0HiZiKM2snakZFpFmRoXZhtx+G/Q8ZQS9IvqBfQorRC4qQUD0/JKxURut+vg5OMdl24LQ+auwlv7BEYIQRYLdM7UmHVLrv6/AVIIH4BTY76rVtewhJCQ1GpYkLZoRBuoMEWARAtme0bgKX4IFYDBSNFdN9g3SlGLFIZ2AQ0cUIIQS6WMYrzSGhq03q2AiQUFUF2RBoIQeGHB7CKlqi51DzgI5KsWxX8dA2mtdB8VDGQgSSWYCHCCSC9owDQyJbdOYnv+ZQUYouKgEjRBqZHAEpowYhhSobzyRFipvPcY5eImf6yqryOhIBicBuRYBs6sKXEdwJzD11oCfQvEwe87jHMECW/skxQAUAZP1ARQzkFLEBYBDRxRoIoaQ0NiZIKCOQva/q2fMCWYVbSFFClhnKgqGWnkNoQEfaSZ0Sy0aNh1ZwP0aLh3CJGfBDDg/xFBEPifyE17AdUR0kOnXx8knkJSKtibqiItevyLmLWGAU8UYmXwB7rBchQkraj/D9GeSv7IJhmLi06C9L4Kd8qt2tzwP5uRKBcYlAfgcln83v1uhZyuikkgPOJNza61yQmtK4h4U+gRU6AkCRGagDBvIw6NTFy/6YXiqzQYPBII4QotIYnkXfi0+ogzqGOaGGCrIiGMK+6bC3ENbIEBjK4iFjw7aWbGXM/oBxDt0xPYeYMntHDjFiGam0HwEeCvoxOjw0vezn2zs8VE0RhYVmAUvkIVFoJGqCRO2oKGUtQnQRA4wy2MhkitB1xIEk5M426SnmqDueSWXJ9HkPmKIULE9JBCQCnSNQi2Dw3uQQTIdUQEEPRTze65Ny/EAqo+inCwDSnmjdKOg4bwlS/XV1o91L6ub24iWPgS5ePtUAg3L2IKKL1XilOULI2qWHioSIaZpYZcBCk0NCrQJZNS1UC4ZYcgjjIcNT6QaMPDmUwUMkIt48FBaX+eZDA/uHAA/NrFxXI131vA6Chxwk2jIuosnLm+bIuIgwRdQKiTIVZ5Yl0nvJ7ivdwxqbiowpz2zI4xe0X089Jg3XxybmeGB03s9EO3pu1hwkfbBfIgdSFUiiSc3dz3XIj12+BadpWUsEJAJxBHqCL/ntmcoD9PzAoMcbn11aU8Mfg0PVgnEMUIIEchgIDNFmYVh8goHyMOjMzBV/zC5bbxBpJ41EsQqjtNLFKgghKKGnSAhP2xjQJ5QqpCflY5gWQi0WVfdmaNajFqSxEKaFglr6D5hy+iwtZMDQj41gBk7qnHOo1UmNxDKHh96FPxWQYCUegto8tdi6q5sxNvip57h5HQgPwQgzIpkVKCJirMaQKFl+j8vNEEuEp3nYojNMqOq1ucOoQkWh4TpDF4XAyCaFMFNYYAQIqYZG4pikBFRikl1BmKPp0sEpOJ/PwvKsREAi0C0CsMUaFsUNzlxgckXwyN6JkZM4R9l1AHps/ZeBPtUAKEcCIT9QmgcymXx66bQ5ZpaCMjFdKRbDIOKSroNBKYdQWhpjSuhzc8cyVfREHRsMCZWsQhgJNZbTE4FMQ6Af79u6/2N9KAMRFNwHeEiXlUXkUFksK1aWVZmHQn7I4yHfnLobHrrB8UMKDxGKaGpJ+e1JlVnORZTpWE281fWQCNXhG6LVQqKsgsZZiyxdlAdGhjeK2CMDksjtVEeQRPJXGjYFqbDMPzEpNQRVkZDXkNAjvCXfKxF4nCNQs5uYa/J7lnk2zgY1ZypAD8U9OLNxa9UaEVmhHQByJBAuCmvggfKK2MAwiOhiKUIoKY31joRKzRXrOCGFhNK0UEVjISKQhbQQQB3HBCkUFIIhh4cCMOR6DkV4qOAcimd0OHKoN/PQYPxQhIcaJTMHiTYuXLLHxOK6PRbWMEWUUM20t7oOEsXdiZpQUTUwCtoXcfmC6GsJGgl5tCFn1SS4Qa6JoBKTdhPXRICJSfFyjUTg8Y5A/X4Jrhxkz9Z8LyQQv6BMDwU9CbVL5a7wsOinCQCleCCqhREMFDcNysMgpIvRsnmmgZD5ALJeDuPogBv4EAYlpTHfVjE9i77MCaWQUKKlEFbHqq1CuoKsjhay/aZDJMTSQhgMObFMN2CkPYccHrJO6h7Esj2Oh1olM19ollHNAkikWSLXp9GjojNaM/YSspaTT2tO1fKr2nanzHehghZxRWrKhzmIqp0HRpHTCPIFySPMl5h5duuISTKJDJT76kVN3pRrJAISgb0WAQ9iqjc71eg9+oG7L7sIwQ2TlPQFkMTswmQ59Oh8lqZxyeRCnDMhnTqLgvVEd8FAGAbN6doaGLCKMBAWxdJ9FC0MqiSEfNWYJoQYu3QXJERHj1F1bJeQENtv2iOhHa2GqaJ6I455ZsiBoUpyaAA8ZOgvcA5lxLLK4rIe+SFiISKSWcpV7SgiD4k8RRSpZjWQyHavDu1ExFFUzRV5VBR7rgNg5D1GLjVoCzZKGTSnaFY5lYD8eQeMaCKLzieQk0+F0QX16ZW7cq99bMjvIxHY3Qh0AS54Z2W2avKpYlpQF/QEepDyZQpNHPqJJbCQAXJmINcpcVAMhPzRZMCqcZpm2KCMLoZGriqHUMgJKQeIPnTNEJqzsVucEKaFMB6gAlnGNM1ahbICmQdDureQcQsZPLTvqoNF3jlUiYfM8LNSmf3a7fdjvWwP4SE3woxaiKhkVnZVjwwSVaIirgxNd39PM0bmfshWpUGa8OVpTSCpSnEr5rgIMNWkzggzJROxXCkRkAh0i0DNTgyuKW72uguYWzJ8w+bWkKzcAhKaXsTcjznDMEAZAFSjhZliMa5MbGQwyBFCtGrMwSBrl/aFY2s35+rmjlnHdLs61gkJ9SeQRbTQ1fs/VmCIwUMjF8tGxg/Nr99S/81r9kAjzAILURNFhNszOkjEGYm6skSeKKrkiiIRrTMwgpRBERJDI5mko+r58WE8idnHytu+3i7rBLCCtC6vIBF4vCNQh0t625L6xzEoB+cNnFXc2gEdfMMWgh6W8oG0NggA8s0SWT+Q08J8jVhvbFBQLxayQaRkLHQIhV7pPBKaX7+ljg11mJno6nHzzqI5tpQ0NnQklK+lZ2kh3WKxVSAzKMiCIYSHnJDGTm8l5iFLDlVXljGV9lXmoV70soWN2+q/Vv8fYzyESu4VHupMEfUGiRJ2orN4skc9KuKAUREbwe0RyRrsl51xkstoAXgyJ3ESrF73m5rl1SQCEoGaCBRATLx/Mxufe6ofxBPJXqgj4pQfmMroX64q3rRJ7B0D5b1BoSiWaSDE6GJVhBAxCWlOCJCQh0HDQUI9m6aJQLbzESkFs0VkoUBmkJBnhhAYcuahLDmUqyy7+8H6nYfrelyIasaYnmnfsbhMF9unhtvz/qHNO/CfGuAhniJK4SGm8N65iHztPYZEpENj4K12LFGy6IxCImeyJtVnKVTkxsEa2zVsY2K7piVpQWtHo6kFylrKkc2CJGpIInds+Gauds3AJi578pfFSVnOSAQkAvkI1O+vxJUclMnvd5Io0JepPBOfh9s5t8DZLIA+TG9oqE1x1SpQvKIWppxlZomUudjaF33Lqm5crTNaNY82xzk9kAA3n2OMQahSbAAYxBBCkVc6K41pTgg+NBc273TmhDKF9IMjodxo+lQFGSeQOWbonY8BGYGt2hbfd8ZDGAztTTwUjbi3/JC1EGUoIqbQbCBI5FAR3hh4w6i1H+th9pXbaVmuyFuL2GI0s89h20cLX55mEJLvaYTTii1YcxlHfRknpvozDMmEUiH/bD6xyrMSAYnAaCJQ3KrRBfWZIb4S5xy0xtmJAT1J4qdE/xgMRAFQrIVVYKAiFZSHQaEuRlzSCgY5QsgapTEMctLYjVlNCFWahIaPhKKuQgnT9JqGFoptCfpNf6j6TdfMIPNIyBaRAfi5+s7H+66+87E6tHMI8UOBWFaotK8Vy/hJHRkzdW5yWYYfIv2pt5TMabAtQF0jhSYlM85VnXAReWN1DIlgiIczEvlyM9OaKF90RuvOHCqiBfmOK/LWItzfHa3hngbf6HjSKCGoETKpDiQFJWwoVQ0EleKEmD/Dg6coI8tlEgGJQGUE8juu32dx3gjXEeJBHmdIUCRx8V867icQvzL0D6RTbIiOeCBLAoV18gQDxdXyEQaiolg1DNJG6XqHUCiNEZOQRULKJIR8QlfvQQPky9s75lja3lHHtftwkNkSMHMi5IQqkFCxqxABQ3UC2ZaDPQYFpcCQE8tSlWW8eUi1YcQzy7qJZdhM3SMespBo43YAicBCxEtmBYrI1d63QqIAFQWQiCOKKlCRE9EcSQucrVrABkYLD4xCQc1X7KM0weeRGjKJ55PiXMYwTGH6oxf0m3bl1SQCEoG+IpDfuYln45wQnQGKGi0qU1Nwy6czG74hxOIXnZIBOdN0gOMxUCiEtWOgCAapyWK4dVAHGIQJIT9rLEMIEWlMm4R2AQm1maa5GWStSOj+j0Mw1JUcGpJ5aKR4iJPMQtUscBFZisjW3mMjkYdEZIgHNhKxA18riaIGVIToIs8YJYARFdRCWc1kjTib1KYhjZngdq12YSyNbY8UMCXSrlwmEZAI9BiBCLUUty1CMzUJoSnVxJkqg3uS4pfBQA4AmeIV+5gSwkoYqBsVFMKg2CWNdbEuhNDc+k2maozapUfFCdUhocGsQoxAFoEhh4eoc8iRQwWxLN2GcXf5oSpLNa4yGxpFZPqjc9pZmSgiPus6VOToIrN7HWlUg42ATAoIpIhDSuKkOsWtLcddvFyTN7tcU8zdcoFE4LGPQCNAqdxorXu86npMWrs1RTxoHiokMUhryUUB/Xg3tG8RVMJAE3o0k3qEYU16AUOc9CJPBW3pz46MPcjDoG6EEC+NbYbSGGomlOkxXe2YjtSxIhJKW4Wqa+l9v2lrDTI2If24bxt9ETmHuollTKX9iPHQ5e0dUDQvkZGunIXIVt2XKSKuF1GWIrp45WrsJepCFDn5rIyKkLUIuYtC53WKNzK5AJjhxAKSC13ATGa0iG/U+DOR6FaVFuW7JAISgXGPgAM0fGZwz9bAHchISbgDOc3hHuMoSHA/CfQTAaCkH6iAgRhXUAUVOpQ5WAAADNRJREFUxLNBGAbljNKZhooZaQwhITAJXTYmoV58Qt2Q0IBWISeQXX3n4+13PlZgqAoPtVWWjQgPZfoPFfFQ2VWNKKJML6KsauaFMxYSEVTkSvEDoogW5KdREUMXza9CMVpUkpbkjUxeCFxHdSAJEhCkJLpAIIlPbdEF+fzIPDvuHwzy+0sExiUCDqYw25B7qnLLB5e5OnaSSSDVlBch6AlaIAJZ7pWvBvQTAyAvhNVhoLQrKEcFuWIxng1yMEhXznM9hKwuxjVUDKvGkDRWh4SIXRr3mC44ppuREGcVaq+lN+qYQUIeDGXxUFVlGWseImbqYfBDtXhIl5gVJTNMEdle1QgSkXbVuD1jBIl4LxGCRHxrotBRVEJFHYBRjjcK4VEkrg0OktjMRdJc+csIMAXZU56VCEgE9kIEEjgmtcHZ5NBwshn0+AmptBVQ1BAI9zrBPVDMOiWERbZoywMRDMRSQeFYMY4KiiatxjAoqJzPlIxhQqhOGos5oWEgoUQhfTcklLQKGT4oAEMeD7l6s17MQwQPqTaM5mhpxpj3Uwd4qFRyH+AhLZl1oYgS7Yg8JOqknRGiCBXkD4SKzI7F+5muzeZ3j5Aa0MJ1NoJbKLipQguGTIIMBez0cBapDCvnJQISgWFHoAGydNv+kEaiRSBvQS6CNOUXtuALcpqvfs9CH5b+GQ4GYs3RHAxauTatj5mV63Dk6sWwLtaVEGoyCfXCCdUgoe5WISeQARLSYOiBkslqxTJnpiZdrtWX99RhGh+px3iMK9+Zmm8+FDenHgQPdZDM8hRRWGtGy+87QaKAKKpHRRkRzdyvxPcxZWwUiWuR9yhyIPmko2ETZCVukcNMUbKzF3fLofJdEgGJwF6IQGpfp8/zKAfyCUk4wZfdcY+5S0zlTM8AGU90zhBtZlMytuiIB7IYKKKChg+DGEKoWRqL7dIDIKHkHFZaPtarVcjinwcf79t+8LE6EniolRzyeIjtxMjjITXWPp5sP0Q8FEtmJVd1LJl5PNSRJQrsREg+M2qxfcSlZ3kFjUFFZq9CLYNepPZ50m9kgBE8OvYI31fBzRa3iCilIG25ZyHHVS+6IKp05pVXkwhIBPqKQAHHsHucTQvMSQp0IOfgjOTXkLjSi0xKzKMfUx0WFoXlMFAKBpkiG/SoWkizxiDOIu29QcbFATPI1QImz8eEEEZCpKEicghhQiiWxvYEEipbhZIVZAB7DAoqgCHUk5pWlqUq7ccaD8WSWS1FlIZEniha1v3Rl7en9WHe8WgPqLqzFCqKuSIkopkdGDySMs7gSwSPMokAnqKaWjqt+BwUYSbIWdULh5OYhJh4ik2yclIiIBEYagTqd6i/Molp2PyQSSz12QkSWmYRoJ+Q+MEplANAfF0YB4BSchihgpL+aNYbFNuDkkZpDIOsQ4gnhEaAhFY1D6LZED3GVFtozGxTM3CjwAl1QEJOIAPftIJEmhJyYChNDmXwUJNYRsxDOTN1drh9US/r3UJkOlbTCR7IWF3DEkWQiDisU0QRlc+yqIhai2DT4p1M1wgb5ZU1nETqcxBzZQSVcslOX8ymSDkpEZAIjEUEihucuSBz01V6Cmeq1DrAPSYHNqOfpCE6g4FSchilgjh/dDcYFPQQGgQJpedsGPd07bQNVzuWQ0K0pVBgmk5ZhTZ3PmLn0vuxG2kktO1lsk5gqEwOheahHvFQERLBeBS10O0QcHcE34UoIZnVUkSdIZF3WA8JFSWBUVJQw7kgQkhxf6NUlsHnGSRUSmS139KOqJiEKy8iEZAI9B6BvvZ49Do4t1SuGdAT1b3T+8PFdbiN5BbWCRQXhfWIgYgiVg+D9hghlOys2AMS6pUWCsHQbuChXHFZiR8aAR7qBok8UbSqhwOvqmkepA7fE0UeFRH5jHJFSEGroouQjga7N5DS8D6P0wF/hgNJ9XxSZf6qNTBFubIWSMk3SgQkArsXgfo8UHMlD3dKZA/ObzgTRmtInmoRmzgbAZDVwhAPFMhhaQwUeIMCY5DzBtXCoNFJY21IqFA+RkzTfSMhA4Y+sR7qLBjqIJalzEOEH2LxUNZP/d7KzXfhwNRc3OqggR8qUkSbd2DCKzESsfbqCBIxRWemMNLUSapH3lTUAyqCPYz6OuaoI8gIOGVUrdNoCeesmhwn10gEJAKfzwjgXJFbYzK7Yg1pLbvw6AfSJrsw45XCRzUxgxPCmjEQpYLiAatrN6lFOu2SznVTHKZdeuXme6u30HH7/VV9mJKpNdNex3XbwVYhM/FdP7rK9HsfenUsQkJVAllWI9t+8Mm+7Qef6MN6iMBfDc0ZizM6GLHMVdqn8BB4o8zf3yMeiqfc5y1EQdU9xUN3F43NfvMOSxG1QaLQYR0TRXVcURswiqehkV0dYiOTBZLsEckgVdioIkOp16mDUOSyz+fnhPzVEoG9HAGySWu/rEwUFZeRNJX90uOeeEo8SZUh6ME1v2UAVM8DIQwUUEHUH+3YIDVj1Rwbt6g3KG0PWtQjqtSgqqv34MA2EmMswVRCTDRgGoJtMM0iIQeDgip6wgm1mqY9EtpxDaLvRxVkJSSUA0O+B6Mb4JohhzJ4KOo8FE7qIMX2d7SlXAHGZL09W3Lfp2RGIZEZVqfwUAESkWmvBTuRJYrqUJH1FU0v26pLXYlmq8+gHs3clLhHvF3pmuzz+EsOJFUxSanU0ydySiXEToiqNlnLi0sEJAJsBFL7sb/zqaxSd54inpTahdNgGvqYXGoBUBsJ5DzRsRbGYCBHBVEYpKvliSJWB4OSJWO9Vo1x0phzTMPHeoYTSiEhTwvtfEQqt6xpuhUJuSIyrYwpSgiYoUHFMgYP6TaMnhzyZuo9gIeKrurhQCKvnXmiqCMqygOj0GBkti6FRHjD40SQXydwEmScWmKpLpH5VxsFnOovfctvKxGQCJgItO70lush7TCLfB7Dz+JMyK099EmgH1YFc2agXjCQo4JGDIMaOwkNHwlFAlkVEqqghQgYqsJDDW0YY7GsGQ8l+1MjfiiwEA1IEbGqGZ3gQYZ4hF6iSu2sOyry1qIqugh4o1Z4BEkBZ42mdQk2kfzlcU9LNpTvkghIBMY9AiQV5L5sSkH4YkhopUUN9AFWnjRIZADQQDxQpTHIKWKRNyhkg9K62MANFS0MotJYv5xQhIT6EsiMWQgzQwwY6kssq+eHov5DIR4KS8wQJPKW6p7xkKOIUpBoEO3MFAXY+a8BV9RKF7HAyGxU2LfMwmlqeP/nCKQ4j+B00++6EUuZBDrunwry+0sExisCOeDCbuF+swR+tTg7lc7gvKfW+NaRW2OXgi3+1R10ofbFTg2rBUApLQxhoDYqyFeK5WAQ0cX6QkKBV9rBIFpCf9sNJ73zEDumy+rYwEgo7rIIApkFQ9esgdrYqBk8FDupu5mHguFl2WEdXfFQQBFhe1ds/iq6qilFxECiwF6dgkRJoih0FEGpJAeM+Mr8RCWaR0Wmz3WoppXhkUkBHEgyiaMNKmWSEc5ispYISAQkAiYCmaTR/hSFOyazcUAnRkIp6AMwyGEgbnJqNELVGaLzACiWw9gasY3bqrR5846ngjwMuru4pQ7ljzYHckl3g0HFcWMpQiiFhCwMcp0Vh4iE6gSy7QefXHvwyb5r+h9XU4bAULbSHollFWM62vWyFB5iS+4NIF25+Z4+BqKIlrZ3sKm+ARJVamfOZO2r8Y0hztwKoMcMKip4rgMdLRgAMgg8gvSRxkk47/SGmVLpTz45JAISgb0ZgdSe7fU8zjb8GlJW3aIa+pgGKA4AlUigOgzkbNGeB3IYKGWO9jDIThazVFAzDNreqa8ag442bmE+c1HxvCmkD+rnXeGY44SGjYQK/aYj37RBQh4MhfwQLbOvFcvcTHvGTG0c4Pxke+unJv2HPB5KlZglJbMGigi/D9Ra96ouQyJHFBkMrh+DorMyUYRQUQCMEB6qoYvKwMhsWtvByN3KqC/h/kYt3KC0eBHfMDWfqcNPJKMNHU71mprlt5UISATqI0A2e/nLOkBTTE1xflNnSDJ0/d5QtkTQx7SFA+IHFqazrns07XZvwD0tJPNg4TCQr5DPYKAkFRTBoJAKSrJBIQxq9ErnYBAihBwSIs2E6jmhqHYs4RPK1dIXBTJDCVlmKARDiB+Kp9nnK+37wkPJkvtC1T3rIsKSWbkRURoS9UgUeflM94eAzWDmDNvHCBjB1lIL29465y6CjRo0MYKNXUJIOEek0ZLJL8U0NOgFnRBVOcnKy0oEJAJDjUBPOCafQHiUY7IWzmPRGiGeiPJJ4R6cVx36YRggWhVv8rkDQCwJxPBADgMNTgV5b1AjDGLbCFGHkDMJ0fp5Rwilmwm5uWOux3Smir4/JPQxqGEGCV178Mn/BzE64hwsrKjpAAAAAElFTkSuQmCC;" vertex="1" parent="1">
                    <mxGeometry x="192" y="820" width="376" height="271.77" as="geometry"/>
                </mxCell>
                <mxCell id="22" value="&lt;div style=&quot;&quot;&gt;&lt;br&gt;&lt;/div&gt;" style="rounded=0;whiteSpace=wrap;html=1;fillColor=#6d8764;fontColor=#ffffff;strokeColor=#3A5431;align=center;" vertex="1" parent="1">
                    <mxGeometry x="30" y="1110" width="740" height="420" as="geometry"/>
                </mxCell>
                <mxCell id="23" value="GEC (Global Execution Context)" style="text;html=1;align=center;verticalAlign=middle;whiteSpace=wrap;rounded=0;fillColor=#6d8764;fontColor=#ffffff;strokeColor=#3A5431;" vertex="1" parent="1">
                    <mxGeometry x="295" y="1540" width="210" height="30" as="geometry"/>
                </mxCell>
                <mxCell id="26" value="" style="edgeStyle=none;html=1;" edge="1" parent="1" source="24" target="25">
                    <mxGeometry relative="1" as="geometry"/>
                </mxCell>
                <mxCell id="24" value="&lt;b&gt;val1 = undefined&lt;/b&gt;&lt;div&gt;&lt;b&gt;val2 = undefined&lt;/b&gt;&lt;/div&gt;&lt;div&gt;&lt;b&gt;addNum = definition&lt;/b&gt;&lt;/div&gt;&lt;div&gt;&lt;b&gt;result1 = undefined&lt;/b&gt;&lt;/div&gt;&lt;div&gt;&lt;b&gt;result2 = undefined&lt;/b&gt;&lt;/div&gt;" style="rounded=1;whiteSpace=wrap;html=1;fontSize=21;" vertex="1" parent="1">
                    <mxGeometry x="50" y="1270" width="200" height="190" as="geometry"/>
                </mxCell>
                <mxCell id="25" value="Memory Creation" style="whiteSpace=wrap;html=1;fontSize=15;rounded=1;" vertex="1" parent="1">
                    <mxGeometry x="65" y="1490" width="170" height="30" as="geometry"/>
                </mxCell>
                <mxCell id="27" value="Execution Phase" style="whiteSpace=wrap;html=1;fontSize=15;rounded=1;" vertex="1" parent="1">
                    <mxGeometry x="295" y="1490" width="170" height="30" as="geometry"/>
                </mxCell>
                <mxCell id="30" value="" style="edgeStyle=none;html=1;" edge="1" parent="1" source="28" target="27">
                    <mxGeometry relative="1" as="geometry"/>
                </mxCell>
                <mxCell id="28" value="&lt;b&gt;val1 = undefined&lt;/b&gt;&lt;div&gt;&lt;b&gt;val2 = undefined&lt;/b&gt;&lt;/div&gt;&lt;div&gt;&lt;b&gt;addNum = definition&lt;/b&gt;&lt;/div&gt;&lt;div&gt;&lt;b&gt;result1 = undefined&lt;/b&gt;&lt;/div&gt;&lt;div&gt;&lt;b&gt;result2 = undefined&lt;/b&gt;&lt;/div&gt;" style="rounded=1;whiteSpace=wrap;html=1;fontSize=21;" vertex="1" parent="1">
                    <mxGeometry x="280" y="1270" width="200" height="190" as="geometry"/>
                </mxCell>
            </root>
        </mxGraphModel>
    </diagram>
</mxfile>